G75*
G70*
%OFA0B0*%
%FSLAX24Y24*%
%IPPOS*%
%LPD*%
%AMOC8*
5,1,8,0,0,1.08239X$1,22.5*
%
%ADD10C,0.0060*%
%ADD11C,0.0040*%
%ADD12C,0.0050*%
%ADD13C,0.0080*%
%ADD14R,0.0240X0.0340*%
%ADD15R,0.0340X0.0240*%
D10*
X005130Y001237D02*
X005237Y001130D01*
X005450Y001130D01*
X005557Y001237D01*
X005775Y001344D02*
X006095Y001344D01*
X006202Y001450D01*
X006202Y001664D01*
X006095Y001771D01*
X005775Y001771D01*
X005775Y001130D01*
X005557Y001664D02*
X005450Y001771D01*
X005237Y001771D01*
X005130Y001664D01*
X005130Y001237D01*
X006419Y001450D02*
X006846Y001450D01*
X007064Y001450D02*
X007277Y001557D01*
X007384Y001557D01*
X007491Y001450D01*
X007491Y001237D01*
X007384Y001130D01*
X007170Y001130D01*
X007064Y001237D01*
X007064Y001450D02*
X007064Y001771D01*
X007491Y001771D01*
X007708Y001771D02*
X007708Y001450D01*
X007922Y001557D01*
X008028Y001557D01*
X008135Y001450D01*
X008135Y001237D01*
X008028Y001130D01*
X007815Y001130D01*
X007708Y001237D01*
X007708Y001771D02*
X008135Y001771D01*
X008997Y001771D02*
X008997Y001130D01*
X008997Y001344D02*
X009318Y001344D01*
X009424Y001450D01*
X009424Y001664D01*
X009318Y001771D01*
X008997Y001771D01*
X009211Y001344D02*
X009424Y001130D01*
X009642Y001237D02*
X009642Y001450D01*
X009749Y001557D01*
X009962Y001557D01*
X010069Y001450D01*
X010069Y001344D01*
X009642Y001344D01*
X009642Y001237D02*
X009749Y001130D01*
X009962Y001130D01*
X010286Y001130D02*
X010286Y001557D01*
X010393Y001557D01*
X010500Y001450D01*
X010607Y001557D01*
X010713Y001450D01*
X010713Y001130D01*
X010500Y001130D02*
X010500Y001450D01*
X010931Y001450D02*
X010931Y001237D01*
X011038Y001130D01*
X011251Y001130D01*
X011358Y001237D01*
X011358Y001450D01*
X011251Y001557D01*
X011038Y001557D01*
X010931Y001450D01*
X011575Y001557D02*
X011789Y001557D01*
X011682Y001664D02*
X011682Y001237D01*
X011789Y001130D01*
X012005Y001237D02*
X012005Y001450D01*
X012112Y001557D01*
X012325Y001557D01*
X012432Y001450D01*
X012432Y001344D01*
X012005Y001344D01*
X012005Y001237D02*
X012112Y001130D01*
X012325Y001130D01*
X013294Y001237D02*
X013401Y001130D01*
X013615Y001130D01*
X013721Y001237D01*
X013939Y001237D02*
X014046Y001130D01*
X014259Y001130D01*
X014366Y001237D01*
X014366Y001450D01*
X014259Y001557D01*
X014046Y001557D01*
X013939Y001450D01*
X013939Y001237D01*
X013721Y001664D02*
X013615Y001771D01*
X013401Y001771D01*
X013294Y001664D01*
X013294Y001237D01*
X014583Y001130D02*
X014583Y001557D01*
X014904Y001557D01*
X015010Y001450D01*
X015010Y001130D01*
X015335Y001237D02*
X015441Y001130D01*
X015335Y001237D02*
X015335Y001664D01*
X015441Y001557D02*
X015228Y001557D01*
X015658Y001557D02*
X015658Y001130D01*
X015658Y001344D02*
X015871Y001557D01*
X015978Y001557D01*
X016195Y001450D02*
X016195Y001237D01*
X016302Y001130D01*
X016515Y001130D01*
X016622Y001237D01*
X016622Y001450D01*
X016515Y001557D01*
X016302Y001557D01*
X016195Y001450D01*
X016839Y001130D02*
X017053Y001130D01*
X016946Y001130D02*
X016946Y001771D01*
X016839Y001771D01*
X017914Y001557D02*
X018127Y001130D01*
X018341Y001557D01*
X018558Y001664D02*
X018665Y001771D01*
X018878Y001771D01*
X018985Y001664D01*
X018985Y001557D01*
X018558Y001130D01*
X018985Y001130D01*
X019203Y001130D02*
X019203Y001237D01*
X019309Y001237D01*
X019309Y001130D01*
X019203Y001130D01*
X019525Y001237D02*
X019952Y001664D01*
X019952Y001237D01*
X019845Y001130D01*
X019632Y001130D01*
X019525Y001237D01*
X019525Y001664D01*
X019632Y001771D01*
X019845Y001771D01*
X019952Y001664D01*
X020250Y006850D02*
X020950Y006850D01*
X020967Y006852D01*
X020984Y006856D01*
X021000Y006863D01*
X021014Y006873D01*
X021027Y006886D01*
X021037Y006900D01*
X021044Y006916D01*
X021048Y006933D01*
X021050Y006950D01*
X021050Y007100D01*
X021000Y007150D01*
X021000Y009050D01*
X021050Y009100D01*
X021050Y009250D01*
X021048Y009267D01*
X021044Y009284D01*
X021037Y009300D01*
X021027Y009314D01*
X021014Y009327D01*
X021000Y009337D01*
X020984Y009344D01*
X020967Y009348D01*
X020950Y009350D01*
X020250Y009350D01*
X020233Y009348D01*
X020216Y009344D01*
X020200Y009337D01*
X020186Y009327D01*
X020173Y009314D01*
X020163Y009300D01*
X020156Y009284D01*
X020152Y009267D01*
X020150Y009250D01*
X020150Y009100D01*
X020200Y009050D01*
X020200Y007150D01*
X020150Y007100D01*
X020150Y006950D01*
X020152Y006933D01*
X020156Y006916D01*
X020163Y006900D01*
X020173Y006886D01*
X020186Y006873D01*
X020200Y006863D01*
X020216Y006856D01*
X020233Y006852D01*
X020250Y006850D01*
X018315Y011130D02*
X017888Y011130D01*
X018101Y011130D02*
X018101Y011771D01*
X017888Y011557D01*
X017026Y011450D02*
X017026Y011344D01*
X016599Y011344D01*
X016599Y011450D02*
X016599Y011237D01*
X016706Y011130D01*
X016919Y011130D01*
X017026Y011450D02*
X016919Y011557D01*
X016706Y011557D01*
X016599Y011450D01*
X016383Y011557D02*
X016169Y011557D01*
X016276Y011664D02*
X016276Y011237D01*
X016383Y011130D01*
X015952Y011130D02*
X015952Y011557D01*
X015952Y011130D02*
X015631Y011130D01*
X015525Y011237D01*
X015525Y011557D01*
X015307Y011771D02*
X015307Y011130D01*
X014880Y011130D02*
X014880Y011771D01*
X015094Y011557D01*
X015307Y011771D01*
X012950Y009350D02*
X012250Y009350D01*
X012233Y009348D01*
X012216Y009344D01*
X012200Y009337D01*
X012186Y009327D01*
X012173Y009314D01*
X012163Y009300D01*
X012156Y009284D01*
X012152Y009267D01*
X012150Y009250D01*
X012150Y009100D01*
X012200Y009050D01*
X012200Y007150D01*
X012150Y007100D01*
X012150Y006950D01*
X012152Y006933D01*
X012156Y006916D01*
X012163Y006900D01*
X012173Y006886D01*
X012186Y006873D01*
X012200Y006863D01*
X012216Y006856D01*
X012233Y006852D01*
X012250Y006850D01*
X012950Y006850D01*
X012967Y006852D01*
X012984Y006856D01*
X013000Y006863D01*
X013014Y006873D01*
X013027Y006886D01*
X013037Y006900D01*
X013044Y006916D01*
X013048Y006933D01*
X013050Y006950D01*
X013050Y007100D01*
X013000Y007150D01*
X013000Y009050D01*
X013050Y009100D01*
X013050Y009250D01*
X013048Y009267D01*
X013044Y009284D01*
X013037Y009300D01*
X013027Y009314D01*
X013014Y009327D01*
X013000Y009337D01*
X012984Y009344D01*
X012967Y009348D01*
X012950Y009350D01*
X011858Y011130D02*
X011431Y011130D01*
X011858Y011557D01*
X011858Y011664D01*
X011751Y011771D01*
X011538Y011771D01*
X011431Y011664D01*
X010569Y011557D02*
X010249Y011557D01*
X010142Y011450D01*
X010142Y011237D01*
X010249Y011130D01*
X010569Y011130D01*
X009924Y011130D02*
X009924Y011450D01*
X009818Y011557D01*
X009497Y011557D01*
X009497Y011130D01*
X009280Y011130D02*
X008960Y011130D01*
X008853Y011237D01*
X008853Y011557D01*
X008635Y011664D02*
X008528Y011771D01*
X008315Y011771D01*
X008208Y011664D01*
X008208Y011557D01*
X008315Y011450D01*
X008528Y011450D01*
X008635Y011344D01*
X008635Y011237D01*
X008528Y011130D01*
X008315Y011130D01*
X008208Y011237D01*
X007991Y011450D02*
X007564Y011450D01*
X007346Y011450D02*
X007346Y011130D01*
X007346Y011450D02*
X007239Y011557D01*
X006919Y011557D01*
X006919Y011130D01*
X006702Y011237D02*
X006702Y011450D01*
X006595Y011557D01*
X006381Y011557D01*
X006275Y011450D01*
X006275Y011237D01*
X006381Y011130D01*
X006595Y011130D01*
X006702Y011237D01*
X006057Y011130D02*
X006057Y011771D01*
X005630Y011771D02*
X005630Y011130D01*
X006057Y011130D02*
X005630Y011771D01*
X009066Y010916D02*
X009173Y010916D01*
X009280Y011023D01*
X009280Y011557D01*
X008950Y016850D02*
X008250Y016850D01*
X008233Y016852D01*
X008216Y016856D01*
X008200Y016863D01*
X008186Y016873D01*
X008173Y016886D01*
X008163Y016900D01*
X008156Y016916D01*
X008152Y016933D01*
X008150Y016950D01*
X008150Y017100D01*
X008200Y017150D01*
X008200Y019050D01*
X008150Y019100D01*
X008150Y019250D01*
X008152Y019267D01*
X008156Y019284D01*
X008163Y019300D01*
X008173Y019314D01*
X008186Y019327D01*
X008200Y019337D01*
X008216Y019344D01*
X008233Y019348D01*
X008250Y019350D01*
X008950Y019350D01*
X008967Y019348D01*
X008984Y019344D01*
X009000Y019337D01*
X009014Y019327D01*
X009027Y019314D01*
X009037Y019300D01*
X009044Y019284D01*
X009048Y019267D01*
X009050Y019250D01*
X009050Y019100D01*
X009000Y019050D01*
X009000Y017150D01*
X009050Y017100D01*
X009050Y016950D01*
X009048Y016933D01*
X009044Y016916D01*
X009037Y016900D01*
X009027Y016886D01*
X009014Y016873D01*
X009000Y016863D01*
X008984Y016856D01*
X008967Y016852D01*
X008950Y016850D01*
X010380Y021130D02*
X010380Y021557D01*
X010594Y021771D01*
X010807Y021557D01*
X010807Y021130D01*
X011025Y021130D02*
X011025Y021557D01*
X011345Y021557D01*
X011452Y021450D01*
X011452Y021130D01*
X011669Y021237D02*
X011776Y021344D01*
X012096Y021344D01*
X012096Y021450D02*
X012096Y021130D01*
X011776Y021130D01*
X011669Y021237D01*
X011776Y021557D02*
X011989Y021557D01*
X012096Y021450D01*
X012314Y021130D02*
X012527Y021130D01*
X012420Y021130D02*
X012420Y021771D01*
X012314Y021771D01*
X012743Y021450D02*
X012743Y021237D01*
X012850Y021130D01*
X013064Y021130D01*
X013170Y021237D01*
X013170Y021450D01*
X013064Y021557D01*
X012850Y021557D01*
X012743Y021450D01*
X013388Y021450D02*
X013388Y021237D01*
X013495Y021130D01*
X013815Y021130D01*
X013815Y021023D02*
X013815Y021557D01*
X013495Y021557D01*
X013388Y021450D01*
X013601Y020916D02*
X013708Y020916D01*
X013815Y021023D01*
X014677Y021450D02*
X015104Y021450D01*
X014997Y021130D02*
X014997Y021771D01*
X014677Y021450D01*
X012850Y023100D02*
X013100Y023350D01*
X013100Y024850D01*
X012850Y025100D01*
X012350Y025100D01*
X012100Y024850D01*
X012100Y023350D01*
X012350Y023100D01*
X012850Y023100D01*
X012100Y023350D02*
X011850Y023100D01*
X011350Y023100D01*
X011100Y023350D01*
X011100Y024850D01*
X011350Y025100D01*
X011850Y025100D01*
X012100Y024850D01*
X011100Y024850D02*
X010850Y025100D01*
X010350Y025100D01*
X010100Y024850D01*
X010100Y023350D01*
X010350Y023100D01*
X010850Y023100D01*
X011100Y023350D01*
X010100Y023350D02*
X009850Y023100D01*
X009350Y023100D01*
X009100Y023350D01*
X009100Y024850D01*
X009350Y025100D01*
X009850Y025100D01*
X010100Y024850D01*
X009100Y024850D02*
X008850Y025100D01*
X008350Y025100D01*
X008100Y024850D01*
X008100Y023350D01*
X008350Y023100D01*
X008850Y023100D01*
X009100Y023350D01*
X008100Y023350D02*
X007850Y023100D01*
X007350Y023100D01*
X007100Y023350D01*
X007100Y024850D01*
X007350Y025100D01*
X007850Y025100D01*
X008100Y024850D01*
X007100Y024850D02*
X006850Y025100D01*
X006350Y025100D01*
X006100Y024850D01*
X006100Y023350D01*
X006350Y023100D01*
X006850Y023100D01*
X007100Y023350D01*
X006100Y023350D02*
X005850Y023100D01*
X005350Y023100D01*
X005100Y023350D01*
X005100Y024850D01*
X005350Y025100D01*
X005850Y025100D01*
X006100Y024850D01*
X005710Y021771D02*
X005710Y021130D01*
X005816Y021130D02*
X005603Y021130D01*
X005385Y021130D02*
X005385Y021450D01*
X005278Y021557D01*
X005065Y021557D01*
X005065Y021344D02*
X005385Y021344D01*
X005385Y021130D02*
X005065Y021130D01*
X004958Y021237D01*
X005065Y021344D01*
X004742Y021557D02*
X004528Y021557D01*
X004635Y021664D02*
X004635Y021237D01*
X004742Y021130D01*
X004312Y021130D02*
X004099Y021130D01*
X004206Y021130D02*
X004206Y021557D01*
X004099Y021557D01*
X003881Y021557D02*
X003561Y021557D01*
X003454Y021450D01*
X003454Y021237D01*
X003561Y021130D01*
X003881Y021130D01*
X003881Y021023D02*
X003775Y020916D01*
X003668Y020916D01*
X003881Y021023D02*
X003881Y021557D01*
X004206Y021771D02*
X004206Y021877D01*
X003131Y021877D02*
X003131Y021771D01*
X003131Y021557D02*
X003131Y021130D01*
X003025Y021130D02*
X003238Y021130D01*
X003131Y021557D02*
X003025Y021557D01*
X002807Y021664D02*
X002807Y021237D01*
X002700Y021130D01*
X002380Y021130D01*
X002380Y021771D01*
X002700Y021771D01*
X002807Y021664D01*
X005603Y021771D02*
X005710Y021771D01*
X006677Y021771D02*
X006677Y021450D01*
X006891Y021557D01*
X006997Y021557D01*
X007104Y021450D01*
X007104Y021237D01*
X006997Y021130D01*
X006784Y021130D01*
X006677Y021237D01*
X006677Y021771D02*
X007104Y021771D01*
X010380Y021450D02*
X010807Y021450D01*
X016150Y019250D02*
X016150Y019100D01*
X016200Y019050D01*
X016200Y017150D01*
X016150Y017100D01*
X016150Y016950D01*
X016152Y016933D01*
X016156Y016916D01*
X016163Y016900D01*
X016173Y016886D01*
X016186Y016873D01*
X016200Y016863D01*
X016216Y016856D01*
X016233Y016852D01*
X016250Y016850D01*
X016950Y016850D01*
X016967Y016852D01*
X016984Y016856D01*
X017000Y016863D01*
X017014Y016873D01*
X017027Y016886D01*
X017037Y016900D01*
X017044Y016916D01*
X017048Y016933D01*
X017050Y016950D01*
X017050Y017100D01*
X017000Y017150D01*
X017000Y019050D01*
X017050Y019100D01*
X017050Y019250D01*
X017048Y019267D01*
X017044Y019284D01*
X017037Y019300D01*
X017027Y019314D01*
X017014Y019327D01*
X017000Y019337D01*
X016984Y019344D01*
X016967Y019348D01*
X016950Y019350D01*
X016250Y019350D01*
X016233Y019348D01*
X016216Y019344D01*
X016200Y019337D01*
X016186Y019327D01*
X016173Y019314D01*
X016163Y019300D01*
X016156Y019284D01*
X016152Y019267D01*
X016150Y019250D01*
X017880Y021130D02*
X017880Y021771D01*
X018094Y021557D01*
X018307Y021771D01*
X018307Y021130D01*
X018525Y021237D02*
X018631Y021344D01*
X018952Y021344D01*
X018952Y021450D02*
X018952Y021130D01*
X018631Y021130D01*
X018525Y021237D01*
X018631Y021557D02*
X018845Y021557D01*
X018952Y021450D01*
X019169Y021450D02*
X019169Y021237D01*
X019276Y021130D01*
X019596Y021130D01*
X019596Y021023D02*
X019596Y021557D01*
X019276Y021557D01*
X019169Y021450D01*
X019383Y020916D02*
X019489Y020916D01*
X019596Y021023D01*
X019814Y021130D02*
X019814Y021557D01*
X020134Y021557D01*
X020241Y021450D01*
X020241Y021130D01*
X020458Y021237D02*
X020458Y021450D01*
X020565Y021557D01*
X020778Y021557D01*
X020885Y021450D01*
X020885Y021344D01*
X020458Y021344D01*
X020458Y021237D02*
X020565Y021130D01*
X020778Y021130D01*
X021103Y021557D02*
X021316Y021557D01*
X021210Y021664D02*
X021210Y021237D01*
X021316Y021130D01*
X021532Y021130D02*
X021746Y021130D01*
X021639Y021130D02*
X021639Y021557D01*
X021532Y021557D01*
X021639Y021771D02*
X021639Y021877D01*
X021962Y021450D02*
X021962Y021237D01*
X022069Y021130D01*
X022389Y021130D01*
X022389Y021557D02*
X022069Y021557D01*
X021962Y021450D01*
X021250Y022650D02*
X021100Y022650D01*
X021050Y022700D01*
X019150Y022700D01*
X019100Y022650D01*
X018950Y022650D01*
X018933Y022652D01*
X018916Y022656D01*
X018900Y022663D01*
X018886Y022673D01*
X018873Y022686D01*
X018863Y022700D01*
X018856Y022716D01*
X018852Y022733D01*
X018850Y022750D01*
X018850Y023450D01*
X018852Y023467D01*
X018856Y023484D01*
X018863Y023500D01*
X018873Y023514D01*
X018886Y023527D01*
X018900Y023537D01*
X018916Y023544D01*
X018933Y023548D01*
X018950Y023550D01*
X019100Y023550D01*
X019150Y023500D01*
X021050Y023500D01*
X021100Y023550D01*
X021250Y023550D01*
X021267Y023548D01*
X021284Y023544D01*
X021300Y023537D01*
X021314Y023527D01*
X021327Y023514D01*
X021337Y023500D01*
X021344Y023484D01*
X021348Y023467D01*
X021350Y023450D01*
X021350Y022750D01*
X021348Y022733D01*
X021344Y022716D01*
X021337Y022700D01*
X021327Y022686D01*
X021314Y022673D01*
X021300Y022663D01*
X021284Y022656D01*
X021267Y022652D01*
X021250Y022650D01*
X023251Y021664D02*
X023358Y021771D01*
X023572Y021771D01*
X023678Y021664D01*
X023678Y021557D01*
X023572Y021450D01*
X023678Y021344D01*
X023678Y021237D01*
X023572Y021130D01*
X023358Y021130D01*
X023251Y021237D01*
X023465Y021450D02*
X023572Y021450D01*
D11*
X015922Y023120D02*
X015922Y023350D01*
X015845Y023427D01*
X015692Y023427D01*
X015615Y023350D01*
X015462Y023427D02*
X015231Y023427D01*
X015155Y023350D01*
X015155Y023197D01*
X015231Y023120D01*
X015462Y023120D01*
X015615Y023120D02*
X015615Y023580D01*
X015001Y023427D02*
X014848Y023427D01*
X014924Y023504D02*
X014924Y023197D01*
X015001Y023120D01*
X014694Y023120D02*
X014541Y023120D01*
X014618Y023120D02*
X014618Y023427D01*
X014541Y023427D01*
X014387Y023427D02*
X014387Y023197D01*
X014311Y023120D01*
X014234Y023197D01*
X014157Y023120D01*
X014080Y023197D01*
X014080Y023427D01*
X013927Y023504D02*
X013850Y023580D01*
X013697Y023580D01*
X013620Y023504D01*
X013620Y023427D01*
X013697Y023350D01*
X013850Y023350D01*
X013927Y023273D01*
X013927Y023197D01*
X013850Y023120D01*
X013697Y023120D01*
X013620Y023197D01*
X014618Y023580D02*
X014618Y023657D01*
X014541Y024370D02*
X014771Y024370D01*
X014848Y024447D01*
X014848Y024754D01*
X014771Y024830D01*
X014541Y024830D01*
X014541Y024370D01*
X014387Y024370D02*
X014080Y024370D01*
X014080Y024830D01*
X014387Y024830D01*
X014234Y024600D02*
X014080Y024600D01*
X013927Y024370D02*
X013620Y024370D01*
X013620Y024830D01*
X012677Y025370D02*
X012370Y025370D01*
X012523Y025370D02*
X012523Y025830D01*
X012370Y025677D01*
X011677Y025677D02*
X011677Y025754D01*
X011600Y025830D01*
X011447Y025830D01*
X011370Y025754D01*
X011677Y025677D02*
X011370Y025370D01*
X011677Y025370D01*
X010677Y025447D02*
X010600Y025370D01*
X010447Y025370D01*
X010370Y025447D01*
X010523Y025600D02*
X010600Y025600D01*
X010677Y025523D01*
X010677Y025447D01*
X010600Y025600D02*
X010677Y025677D01*
X010677Y025754D01*
X010600Y025830D01*
X010447Y025830D01*
X010370Y025754D01*
X009677Y025600D02*
X009370Y025600D01*
X009600Y025830D01*
X009600Y025370D01*
X008677Y025447D02*
X008600Y025370D01*
X008447Y025370D01*
X008370Y025447D01*
X008370Y025600D02*
X008523Y025677D01*
X008600Y025677D01*
X008677Y025600D01*
X008677Y025447D01*
X008370Y025600D02*
X008370Y025830D01*
X008677Y025830D01*
X007830Y025830D02*
X007370Y025830D01*
X007830Y026137D01*
X007370Y026137D01*
X007370Y026291D02*
X007370Y026521D01*
X007446Y026598D01*
X007753Y026598D01*
X007830Y026521D01*
X007830Y026291D01*
X007370Y026291D01*
X007446Y025677D02*
X007370Y025600D01*
X007370Y025447D01*
X007446Y025370D01*
X007753Y025370D01*
X007830Y025447D01*
X007830Y025600D01*
X007753Y025677D01*
X007600Y025677D01*
X007600Y025523D01*
D12*
X006825Y025375D02*
X006275Y025375D01*
X006458Y025558D01*
X006275Y025742D01*
X006825Y025742D01*
X006733Y025927D02*
X006825Y026019D01*
X006825Y026294D01*
X006458Y026294D01*
X006458Y026480D02*
X006458Y026663D01*
X006366Y026572D02*
X006733Y026572D01*
X006825Y026663D01*
X006733Y026848D02*
X006825Y026940D01*
X006825Y027123D01*
X006642Y027215D02*
X006642Y026848D01*
X006733Y026848D02*
X006550Y026848D01*
X006458Y026940D01*
X006458Y027123D01*
X006550Y027215D01*
X006642Y027215D01*
X006550Y027953D02*
X006550Y028320D01*
X006458Y025927D02*
X006733Y025927D01*
D13*
X007002Y020507D02*
X002198Y020507D01*
X002198Y018267D01*
X002750Y017600D01*
X002750Y014250D01*
X006450Y014250D01*
X006450Y017600D01*
X007002Y018267D01*
X002198Y018267D01*
X002198Y013693D01*
X002750Y014250D01*
X002198Y013693D02*
X007002Y013693D01*
X006450Y014250D01*
X007002Y013693D02*
X007002Y018267D01*
X007002Y020507D01*
X004041Y019100D02*
X004043Y019147D01*
X004049Y019193D01*
X004059Y019239D01*
X004072Y019284D01*
X004089Y019327D01*
X004110Y019369D01*
X004134Y019409D01*
X004162Y019447D01*
X004193Y019483D01*
X004226Y019515D01*
X004262Y019545D01*
X004300Y019572D01*
X004341Y019595D01*
X004383Y019615D01*
X004427Y019632D01*
X004472Y019644D01*
X004518Y019653D01*
X004565Y019658D01*
X004612Y019659D01*
X004658Y019656D01*
X004705Y019649D01*
X004750Y019638D01*
X004795Y019624D01*
X004838Y019606D01*
X004879Y019584D01*
X004919Y019559D01*
X004956Y019531D01*
X004991Y019499D01*
X005023Y019465D01*
X005052Y019429D01*
X005078Y019390D01*
X005101Y019349D01*
X005120Y019306D01*
X005135Y019262D01*
X005147Y019216D01*
X005155Y019170D01*
X005159Y019123D01*
X005159Y019077D01*
X005155Y019030D01*
X005147Y018984D01*
X005135Y018938D01*
X005120Y018894D01*
X005101Y018851D01*
X005078Y018810D01*
X005052Y018771D01*
X005023Y018735D01*
X004991Y018701D01*
X004956Y018669D01*
X004919Y018641D01*
X004880Y018616D01*
X004838Y018594D01*
X004795Y018576D01*
X004750Y018562D01*
X004705Y018551D01*
X004658Y018544D01*
X004612Y018541D01*
X004565Y018542D01*
X004518Y018547D01*
X004472Y018556D01*
X004427Y018568D01*
X004383Y018585D01*
X004341Y018605D01*
X004300Y018628D01*
X004262Y018655D01*
X004226Y018685D01*
X004193Y018717D01*
X004162Y018753D01*
X004134Y018791D01*
X004110Y018831D01*
X004089Y018873D01*
X004072Y018916D01*
X004059Y018961D01*
X004049Y019007D01*
X004043Y019053D01*
X004041Y019100D01*
X002750Y017600D02*
X006450Y017600D01*
X010198Y018267D02*
X010198Y013693D01*
X010750Y014250D01*
X010750Y017600D01*
X014450Y017600D01*
X014450Y014250D01*
X015002Y013693D01*
X015002Y018267D01*
X014450Y017600D01*
X015002Y018267D02*
X010198Y018267D01*
X010750Y017600D01*
X010198Y018267D02*
X010198Y020507D01*
X015002Y020507D01*
X015002Y018267D01*
X012041Y019100D02*
X012043Y019147D01*
X012049Y019193D01*
X012059Y019239D01*
X012072Y019284D01*
X012089Y019327D01*
X012110Y019369D01*
X012134Y019409D01*
X012162Y019447D01*
X012193Y019483D01*
X012226Y019515D01*
X012262Y019545D01*
X012300Y019572D01*
X012341Y019595D01*
X012383Y019615D01*
X012427Y019632D01*
X012472Y019644D01*
X012518Y019653D01*
X012565Y019658D01*
X012612Y019659D01*
X012658Y019656D01*
X012705Y019649D01*
X012750Y019638D01*
X012795Y019624D01*
X012838Y019606D01*
X012879Y019584D01*
X012919Y019559D01*
X012956Y019531D01*
X012991Y019499D01*
X013023Y019465D01*
X013052Y019429D01*
X013078Y019390D01*
X013101Y019349D01*
X013120Y019306D01*
X013135Y019262D01*
X013147Y019216D01*
X013155Y019170D01*
X013159Y019123D01*
X013159Y019077D01*
X013155Y019030D01*
X013147Y018984D01*
X013135Y018938D01*
X013120Y018894D01*
X013101Y018851D01*
X013078Y018810D01*
X013052Y018771D01*
X013023Y018735D01*
X012991Y018701D01*
X012956Y018669D01*
X012919Y018641D01*
X012880Y018616D01*
X012838Y018594D01*
X012795Y018576D01*
X012750Y018562D01*
X012705Y018551D01*
X012658Y018544D01*
X012612Y018541D01*
X012565Y018542D01*
X012518Y018547D01*
X012472Y018556D01*
X012427Y018568D01*
X012383Y018585D01*
X012341Y018605D01*
X012300Y018628D01*
X012262Y018655D01*
X012226Y018685D01*
X012193Y018717D01*
X012162Y018753D01*
X012134Y018791D01*
X012110Y018831D01*
X012089Y018873D01*
X012072Y018916D01*
X012059Y018961D01*
X012049Y019007D01*
X012043Y019053D01*
X012041Y019100D01*
X010750Y014250D02*
X014450Y014250D01*
X015002Y013693D02*
X010198Y013693D01*
X011002Y010507D02*
X006198Y010507D01*
X006198Y008267D01*
X006750Y007600D01*
X006750Y004250D01*
X010450Y004250D01*
X010450Y007600D01*
X011002Y008267D01*
X006198Y008267D01*
X006198Y003693D01*
X006750Y004250D01*
X006198Y003693D02*
X011002Y003693D01*
X010450Y004250D01*
X011002Y003693D02*
X011002Y008267D01*
X011002Y010507D01*
X008041Y009100D02*
X008043Y009147D01*
X008049Y009193D01*
X008059Y009239D01*
X008072Y009284D01*
X008089Y009327D01*
X008110Y009369D01*
X008134Y009409D01*
X008162Y009447D01*
X008193Y009483D01*
X008226Y009515D01*
X008262Y009545D01*
X008300Y009572D01*
X008341Y009595D01*
X008383Y009615D01*
X008427Y009632D01*
X008472Y009644D01*
X008518Y009653D01*
X008565Y009658D01*
X008612Y009659D01*
X008658Y009656D01*
X008705Y009649D01*
X008750Y009638D01*
X008795Y009624D01*
X008838Y009606D01*
X008879Y009584D01*
X008919Y009559D01*
X008956Y009531D01*
X008991Y009499D01*
X009023Y009465D01*
X009052Y009429D01*
X009078Y009390D01*
X009101Y009349D01*
X009120Y009306D01*
X009135Y009262D01*
X009147Y009216D01*
X009155Y009170D01*
X009159Y009123D01*
X009159Y009077D01*
X009155Y009030D01*
X009147Y008984D01*
X009135Y008938D01*
X009120Y008894D01*
X009101Y008851D01*
X009078Y008810D01*
X009052Y008771D01*
X009023Y008735D01*
X008991Y008701D01*
X008956Y008669D01*
X008919Y008641D01*
X008880Y008616D01*
X008838Y008594D01*
X008795Y008576D01*
X008750Y008562D01*
X008705Y008551D01*
X008658Y008544D01*
X008612Y008541D01*
X008565Y008542D01*
X008518Y008547D01*
X008472Y008556D01*
X008427Y008568D01*
X008383Y008585D01*
X008341Y008605D01*
X008300Y008628D01*
X008262Y008655D01*
X008226Y008685D01*
X008193Y008717D01*
X008162Y008753D01*
X008134Y008791D01*
X008110Y008831D01*
X008089Y008873D01*
X008072Y008916D01*
X008059Y008961D01*
X008049Y009007D01*
X008043Y009053D01*
X008041Y009100D01*
X006750Y007600D02*
X010450Y007600D01*
X014198Y008267D02*
X014198Y003693D01*
X014750Y004250D01*
X014750Y007600D01*
X018450Y007600D01*
X018450Y004250D01*
X019002Y003693D01*
X019002Y008267D01*
X018450Y007600D01*
X019002Y008267D02*
X014198Y008267D01*
X014750Y007600D01*
X014198Y008267D02*
X014198Y010507D01*
X019002Y010507D01*
X019002Y008267D01*
X016041Y009100D02*
X016043Y009147D01*
X016049Y009193D01*
X016059Y009239D01*
X016072Y009284D01*
X016089Y009327D01*
X016110Y009369D01*
X016134Y009409D01*
X016162Y009447D01*
X016193Y009483D01*
X016226Y009515D01*
X016262Y009545D01*
X016300Y009572D01*
X016341Y009595D01*
X016383Y009615D01*
X016427Y009632D01*
X016472Y009644D01*
X016518Y009653D01*
X016565Y009658D01*
X016612Y009659D01*
X016658Y009656D01*
X016705Y009649D01*
X016750Y009638D01*
X016795Y009624D01*
X016838Y009606D01*
X016879Y009584D01*
X016919Y009559D01*
X016956Y009531D01*
X016991Y009499D01*
X017023Y009465D01*
X017052Y009429D01*
X017078Y009390D01*
X017101Y009349D01*
X017120Y009306D01*
X017135Y009262D01*
X017147Y009216D01*
X017155Y009170D01*
X017159Y009123D01*
X017159Y009077D01*
X017155Y009030D01*
X017147Y008984D01*
X017135Y008938D01*
X017120Y008894D01*
X017101Y008851D01*
X017078Y008810D01*
X017052Y008771D01*
X017023Y008735D01*
X016991Y008701D01*
X016956Y008669D01*
X016919Y008641D01*
X016880Y008616D01*
X016838Y008594D01*
X016795Y008576D01*
X016750Y008562D01*
X016705Y008551D01*
X016658Y008544D01*
X016612Y008541D01*
X016565Y008542D01*
X016518Y008547D01*
X016472Y008556D01*
X016427Y008568D01*
X016383Y008585D01*
X016341Y008605D01*
X016300Y008628D01*
X016262Y008655D01*
X016226Y008685D01*
X016193Y008717D01*
X016162Y008753D01*
X016134Y008791D01*
X016110Y008831D01*
X016089Y008873D01*
X016072Y008916D01*
X016059Y008961D01*
X016049Y009007D01*
X016043Y009053D01*
X016041Y009100D01*
X018198Y013693D02*
X018750Y014250D01*
X018750Y017600D01*
X022450Y017600D01*
X022450Y014250D01*
X023002Y013693D01*
X023002Y018267D01*
X022450Y017600D01*
X023002Y018267D02*
X018198Y018267D01*
X018750Y017600D01*
X018198Y018267D02*
X018198Y013693D01*
X023002Y013693D01*
X022450Y014250D02*
X018750Y014250D01*
X018198Y018267D02*
X018198Y020507D01*
X023002Y020507D01*
X023002Y018267D01*
X020041Y019100D02*
X020043Y019147D01*
X020049Y019193D01*
X020059Y019239D01*
X020072Y019284D01*
X020089Y019327D01*
X020110Y019369D01*
X020134Y019409D01*
X020162Y019447D01*
X020193Y019483D01*
X020226Y019515D01*
X020262Y019545D01*
X020300Y019572D01*
X020341Y019595D01*
X020383Y019615D01*
X020427Y019632D01*
X020472Y019644D01*
X020518Y019653D01*
X020565Y019658D01*
X020612Y019659D01*
X020658Y019656D01*
X020705Y019649D01*
X020750Y019638D01*
X020795Y019624D01*
X020838Y019606D01*
X020879Y019584D01*
X020919Y019559D01*
X020956Y019531D01*
X020991Y019499D01*
X021023Y019465D01*
X021052Y019429D01*
X021078Y019390D01*
X021101Y019349D01*
X021120Y019306D01*
X021135Y019262D01*
X021147Y019216D01*
X021155Y019170D01*
X021159Y019123D01*
X021159Y019077D01*
X021155Y019030D01*
X021147Y018984D01*
X021135Y018938D01*
X021120Y018894D01*
X021101Y018851D01*
X021078Y018810D01*
X021052Y018771D01*
X021023Y018735D01*
X020991Y018701D01*
X020956Y018669D01*
X020919Y018641D01*
X020880Y018616D01*
X020838Y018594D01*
X020795Y018576D01*
X020750Y018562D01*
X020705Y018551D01*
X020658Y018544D01*
X020612Y018541D01*
X020565Y018542D01*
X020518Y018547D01*
X020472Y018556D01*
X020427Y018568D01*
X020383Y018585D01*
X020341Y018605D01*
X020300Y018628D01*
X020262Y018655D01*
X020226Y018685D01*
X020193Y018717D01*
X020162Y018753D01*
X020134Y018791D01*
X020110Y018831D01*
X020089Y018873D01*
X020072Y018916D01*
X020059Y018961D01*
X020049Y019007D01*
X020043Y019053D01*
X020041Y019100D01*
X018450Y004250D02*
X014750Y004250D01*
X014198Y003693D02*
X019002Y003693D01*
D14*
X020600Y006680D03*
X020600Y009520D03*
X016600Y016680D03*
X016600Y019520D03*
X008600Y019520D03*
X008600Y016680D03*
X012600Y009520D03*
X012600Y006680D03*
D15*
X018680Y023100D03*
X021520Y023100D03*
M02*
