G75*
G70*
%OFA0B0*%
%FSLAX24Y24*%
%IPPOS*%
%LPD*%
%AMOC8*
5,1,8,0,0,1.08239X$1,22.5*
%
%ADD10C,0.1380*%
%ADD11R,0.0671X0.0671*%
%ADD12C,0.0513*%
%ADD13OC8,0.0680*%
%ADD14OC8,0.0600*%
%ADD15C,0.0480*%
D10*
X002100Y002100D03*
X023100Y002100D03*
X023100Y027100D03*
X002100Y027100D03*
D11*
X003100Y019100D03*
X003100Y017100D03*
X003100Y015100D03*
X006100Y015100D03*
X006100Y017100D03*
X006100Y019100D03*
X011100Y019100D03*
X011100Y017100D03*
X011100Y015100D03*
X014100Y015100D03*
X014100Y017100D03*
X014100Y019100D03*
X019100Y019100D03*
X019100Y017100D03*
X019100Y015100D03*
X022100Y015100D03*
X022100Y017100D03*
X022100Y019100D03*
X018100Y009100D03*
X018100Y007100D03*
X018100Y005100D03*
X015100Y005100D03*
X015100Y007100D03*
X015100Y009100D03*
X010100Y009100D03*
X010100Y007100D03*
X010100Y005100D03*
X007100Y005100D03*
X007100Y007100D03*
X007100Y009100D03*
D12*
X010100Y010100D03*
X011100Y014100D03*
X014100Y020100D03*
X019100Y014100D03*
X018100Y010100D03*
X015100Y004100D03*
X007100Y004100D03*
X003100Y014100D03*
X006100Y020100D03*
X022100Y020100D03*
D13*
X012600Y023600D03*
X012600Y024600D03*
X011600Y024600D03*
X011600Y023600D03*
X010600Y023600D03*
X010600Y024600D03*
X009600Y024600D03*
X009600Y023600D03*
X008600Y023600D03*
X008600Y024600D03*
X007600Y024600D03*
X007600Y023600D03*
X006600Y023600D03*
X006600Y024600D03*
X005600Y024600D03*
X005600Y023600D03*
D14*
X008600Y020100D03*
X008600Y016100D03*
X012600Y010100D03*
X012600Y006100D03*
X020600Y006100D03*
X020600Y010100D03*
X016600Y016100D03*
X016600Y020100D03*
X018100Y023100D03*
X022100Y023100D03*
D15*
X014700Y023070D03*
X014180Y018500D03*
M02*
