%
M48
M72
T01C0.0240
T02C0.0320
T03C0.0354
T04C0.0400
T05C0.0433
T06C0.1300
%
T01
X14180Y18500
X14700Y23070
T02
X16600Y20100
X18100Y23100
X22100Y23100
X16600Y16100
X12600Y10100
X12600Y6100
X20600Y6100
X20600Y10100
X8600Y16100
X8600Y20100
T03
X6100Y19100
X6100Y17100
X6100Y15100
X3100Y15100
X3100Y17100
X3100Y19100
X11100Y19100
X11100Y17100
X11100Y15100
X14100Y15100
X14100Y17100
X14100Y19100
X19100Y19100
X19100Y17100
X19100Y15100
X22100Y15100
X22100Y17100
X22100Y19100
X18100Y9100
X18100Y7100
X18100Y5100
X15100Y5100
X15100Y7100
X15100Y9100
X10100Y9100
X10100Y7100
X10100Y5100
X7100Y5100
X7100Y7100
X7100Y9100
T04
X6600Y23600
X6600Y24600
X5600Y24600
X5600Y23600
X7600Y23600
X7600Y24600
X8600Y24600
X8600Y23600
X9600Y23600
X9600Y24600
X10600Y24600
X10600Y23600
X11600Y23600
X11600Y24600
X12600Y24600
X12600Y23600
T05
X14100Y20100
X11100Y14100
X10100Y10100
X7100Y4100
X15100Y4100
X18100Y10100
X19100Y14100
X22100Y20100
X6100Y20100
X3100Y14100
T06
X2100Y2100
X23100Y2100
X23100Y27100
X2100Y27100
M30
