G75*
G70*
%OFA0B0*%
%FSLAX24Y24*%
%IPPOS*%
%LPD*%
%AMOC8*
5,1,8,0,0,1.08239X$1,22.5*
%
%ADD10C,0.0060*%
%ADD11C,0.0050*%
%ADD12R,1.6000X0.0300*%
%ADD13R,2.0900X0.0200*%
%ADD14R,0.0320X0.2850*%
%ADD15R,0.0320X0.1850*%
D10*
X000858Y001120D02*
X000858Y002020D01*
X001488Y002020D01*
X000858Y002020D02*
X000858Y004740D01*
X006768Y004740D01*
X012668Y004740D01*
X012668Y002020D01*
X012038Y002020D01*
X012668Y002020D02*
X012668Y001120D01*
X000858Y001120D01*
X002188Y002020D02*
X003458Y002020D01*
X004158Y002020D02*
X005428Y002020D01*
X006128Y002020D02*
X006768Y002020D01*
X006768Y004740D01*
X007416Y005050D02*
X007416Y005691D01*
X007737Y005370D01*
X007310Y005370D01*
X007548Y004140D02*
X007550Y004168D01*
X007556Y004195D01*
X007565Y004221D01*
X007578Y004246D01*
X007595Y004269D01*
X007614Y004289D01*
X007636Y004306D01*
X007660Y004320D01*
X007686Y004330D01*
X007713Y004337D01*
X007741Y004340D01*
X007769Y004339D01*
X007796Y004334D01*
X007823Y004325D01*
X007848Y004313D01*
X007871Y004298D01*
X007892Y004279D01*
X007910Y004258D01*
X007925Y004234D01*
X007936Y004208D01*
X007944Y004182D01*
X007948Y004154D01*
X007948Y004126D01*
X007944Y004098D01*
X007936Y004072D01*
X007925Y004046D01*
X007910Y004022D01*
X007892Y004001D01*
X007871Y003982D01*
X007848Y003967D01*
X007823Y003955D01*
X007796Y003946D01*
X007769Y003941D01*
X007741Y003940D01*
X007713Y003943D01*
X007686Y003950D01*
X007660Y003960D01*
X007636Y003974D01*
X007614Y003991D01*
X007595Y004011D01*
X007578Y004034D01*
X007565Y004059D01*
X007556Y004085D01*
X007550Y004112D01*
X007548Y004140D01*
X007398Y002020D02*
X006768Y002020D01*
X008098Y002020D02*
X009368Y002020D01*
X010068Y002020D02*
X011338Y002020D01*
X012858Y002020D02*
X012858Y001120D01*
X024668Y001120D01*
X024668Y002020D01*
X024668Y004740D01*
X018768Y004740D01*
X018768Y002020D01*
X018128Y002020D01*
X018768Y002020D02*
X019398Y002020D01*
X020098Y002020D02*
X021368Y002020D01*
X022068Y002020D02*
X023338Y002020D01*
X024038Y002020D02*
X024668Y002020D01*
X023488Y004140D02*
X023490Y004168D01*
X023496Y004195D01*
X023505Y004221D01*
X023518Y004246D01*
X023535Y004269D01*
X023554Y004289D01*
X023576Y004306D01*
X023600Y004320D01*
X023626Y004330D01*
X023653Y004337D01*
X023681Y004340D01*
X023709Y004339D01*
X023736Y004334D01*
X023763Y004325D01*
X023788Y004313D01*
X023811Y004298D01*
X023832Y004279D01*
X023850Y004258D01*
X023865Y004234D01*
X023876Y004208D01*
X023884Y004182D01*
X023888Y004154D01*
X023888Y004126D01*
X023884Y004098D01*
X023876Y004072D01*
X023865Y004046D01*
X023850Y004022D01*
X023832Y004001D01*
X023811Y003982D01*
X023788Y003967D01*
X023763Y003955D01*
X023736Y003946D01*
X023709Y003941D01*
X023681Y003940D01*
X023653Y003943D01*
X023626Y003950D01*
X023600Y003960D01*
X023576Y003974D01*
X023554Y003991D01*
X023535Y004011D01*
X023518Y004034D01*
X023505Y004059D01*
X023496Y004085D01*
X023490Y004112D01*
X023488Y004140D01*
X023592Y005050D02*
X023165Y005050D01*
X023165Y005477D02*
X023165Y005584D01*
X023272Y005691D01*
X023485Y005691D01*
X023592Y005584D01*
X023165Y005477D02*
X023592Y005050D01*
X023810Y005050D02*
X024237Y005050D01*
X024023Y005050D02*
X024023Y005691D01*
X024237Y005477D01*
X022237Y005477D02*
X022023Y005691D01*
X022023Y005050D01*
X021810Y005050D02*
X022237Y005050D01*
X021592Y005050D02*
X021165Y005050D01*
X021379Y005050D02*
X021379Y005691D01*
X021592Y005477D01*
X021518Y004140D02*
X021520Y004168D01*
X021526Y004195D01*
X021535Y004221D01*
X021548Y004246D01*
X021565Y004269D01*
X021584Y004289D01*
X021606Y004306D01*
X021630Y004320D01*
X021656Y004330D01*
X021683Y004337D01*
X021711Y004340D01*
X021739Y004339D01*
X021766Y004334D01*
X021793Y004325D01*
X021818Y004313D01*
X021841Y004298D01*
X021862Y004279D01*
X021880Y004258D01*
X021895Y004234D01*
X021906Y004208D01*
X021914Y004182D01*
X021918Y004154D01*
X021918Y004126D01*
X021914Y004098D01*
X021906Y004072D01*
X021895Y004046D01*
X021880Y004022D01*
X021862Y004001D01*
X021841Y003982D01*
X021818Y003967D01*
X021793Y003955D01*
X021766Y003946D01*
X021739Y003941D01*
X021711Y003940D01*
X021683Y003943D01*
X021656Y003950D01*
X021630Y003960D01*
X021606Y003974D01*
X021584Y003991D01*
X021565Y004011D01*
X021548Y004034D01*
X021535Y004059D01*
X021526Y004085D01*
X021520Y004112D01*
X021518Y004140D01*
X020237Y005050D02*
X019810Y005050D01*
X020023Y005050D02*
X020023Y005691D01*
X020237Y005477D01*
X019592Y005584D02*
X019592Y005157D01*
X019165Y005584D01*
X019165Y005157D01*
X019272Y005050D01*
X019485Y005050D01*
X019592Y005157D01*
X019592Y005584D02*
X019485Y005691D01*
X019272Y005691D01*
X019165Y005584D01*
X018768Y004740D02*
X012858Y004740D01*
X012858Y002020D01*
X013488Y002020D01*
X014188Y002020D02*
X015458Y002020D01*
X016158Y002020D02*
X017428Y002020D01*
X017578Y004140D02*
X017580Y004168D01*
X017586Y004195D01*
X017595Y004221D01*
X017608Y004246D01*
X017625Y004269D01*
X017644Y004289D01*
X017666Y004306D01*
X017690Y004320D01*
X017716Y004330D01*
X017743Y004337D01*
X017771Y004340D01*
X017799Y004339D01*
X017826Y004334D01*
X017853Y004325D01*
X017878Y004313D01*
X017901Y004298D01*
X017922Y004279D01*
X017940Y004258D01*
X017955Y004234D01*
X017966Y004208D01*
X017974Y004182D01*
X017978Y004154D01*
X017978Y004126D01*
X017974Y004098D01*
X017966Y004072D01*
X017955Y004046D01*
X017940Y004022D01*
X017922Y004001D01*
X017901Y003982D01*
X017878Y003967D01*
X017853Y003955D01*
X017826Y003946D01*
X017799Y003941D01*
X017771Y003940D01*
X017743Y003943D01*
X017716Y003950D01*
X017690Y003960D01*
X017666Y003974D01*
X017644Y003991D01*
X017625Y004011D01*
X017608Y004034D01*
X017595Y004059D01*
X017586Y004085D01*
X017580Y004112D01*
X017578Y004140D01*
X017630Y005050D02*
X017416Y005050D01*
X017310Y005157D01*
X017310Y005584D01*
X017416Y005691D01*
X017630Y005691D01*
X017737Y005584D01*
X017737Y005477D01*
X017630Y005370D01*
X017310Y005370D01*
X017630Y005050D02*
X017737Y005157D01*
X015618Y004140D02*
X015620Y004168D01*
X015626Y004195D01*
X015635Y004221D01*
X015648Y004246D01*
X015665Y004269D01*
X015684Y004289D01*
X015706Y004306D01*
X015730Y004320D01*
X015756Y004330D01*
X015783Y004337D01*
X015811Y004340D01*
X015839Y004339D01*
X015866Y004334D01*
X015893Y004325D01*
X015918Y004313D01*
X015941Y004298D01*
X015962Y004279D01*
X015980Y004258D01*
X015995Y004234D01*
X016006Y004208D01*
X016014Y004182D01*
X016018Y004154D01*
X016018Y004126D01*
X016014Y004098D01*
X016006Y004072D01*
X015995Y004046D01*
X015980Y004022D01*
X015962Y004001D01*
X015941Y003982D01*
X015918Y003967D01*
X015893Y003955D01*
X015866Y003946D01*
X015839Y003941D01*
X015811Y003940D01*
X015783Y003943D01*
X015756Y003950D01*
X015730Y003960D01*
X015706Y003974D01*
X015684Y003991D01*
X015665Y004011D01*
X015648Y004034D01*
X015635Y004059D01*
X015626Y004085D01*
X015620Y004112D01*
X015618Y004140D01*
X015630Y005050D02*
X015416Y005050D01*
X015310Y005157D01*
X015310Y005264D01*
X015416Y005370D01*
X015630Y005370D01*
X015737Y005477D01*
X015737Y005584D01*
X015630Y005691D01*
X015416Y005691D01*
X015310Y005584D01*
X015310Y005477D01*
X015416Y005370D01*
X015630Y005370D02*
X015737Y005264D01*
X015737Y005157D01*
X015630Y005050D01*
X013648Y004140D02*
X013650Y004168D01*
X013656Y004195D01*
X013665Y004221D01*
X013678Y004246D01*
X013695Y004269D01*
X013714Y004289D01*
X013736Y004306D01*
X013760Y004320D01*
X013786Y004330D01*
X013813Y004337D01*
X013841Y004340D01*
X013869Y004339D01*
X013896Y004334D01*
X013923Y004325D01*
X013948Y004313D01*
X013971Y004298D01*
X013992Y004279D01*
X014010Y004258D01*
X014025Y004234D01*
X014036Y004208D01*
X014044Y004182D01*
X014048Y004154D01*
X014048Y004126D01*
X014044Y004098D01*
X014036Y004072D01*
X014025Y004046D01*
X014010Y004022D01*
X013992Y004001D01*
X013971Y003982D01*
X013948Y003967D01*
X013923Y003955D01*
X013896Y003946D01*
X013869Y003941D01*
X013841Y003940D01*
X013813Y003943D01*
X013786Y003950D01*
X013760Y003960D01*
X013736Y003974D01*
X013714Y003991D01*
X013695Y004011D01*
X013678Y004034D01*
X013665Y004059D01*
X013656Y004085D01*
X013650Y004112D01*
X013648Y004140D01*
X013737Y005050D02*
X013737Y005157D01*
X013310Y005584D01*
X013310Y005691D01*
X013737Y005691D01*
X011737Y005370D02*
X011737Y005157D01*
X011630Y005050D01*
X011416Y005050D01*
X011310Y005157D01*
X011310Y005264D01*
X011416Y005370D01*
X011737Y005370D01*
X011523Y005584D01*
X011310Y005691D01*
X011488Y004140D02*
X011490Y004168D01*
X011496Y004195D01*
X011505Y004221D01*
X011518Y004246D01*
X011535Y004269D01*
X011554Y004289D01*
X011576Y004306D01*
X011600Y004320D01*
X011626Y004330D01*
X011653Y004337D01*
X011681Y004340D01*
X011709Y004339D01*
X011736Y004334D01*
X011763Y004325D01*
X011788Y004313D01*
X011811Y004298D01*
X011832Y004279D01*
X011850Y004258D01*
X011865Y004234D01*
X011876Y004208D01*
X011884Y004182D01*
X011888Y004154D01*
X011888Y004126D01*
X011884Y004098D01*
X011876Y004072D01*
X011865Y004046D01*
X011850Y004022D01*
X011832Y004001D01*
X011811Y003982D01*
X011788Y003967D01*
X011763Y003955D01*
X011736Y003946D01*
X011709Y003941D01*
X011681Y003940D01*
X011653Y003943D01*
X011626Y003950D01*
X011600Y003960D01*
X011576Y003974D01*
X011554Y003991D01*
X011535Y004011D01*
X011518Y004034D01*
X011505Y004059D01*
X011496Y004085D01*
X011490Y004112D01*
X011488Y004140D01*
X009518Y004140D02*
X009520Y004168D01*
X009526Y004195D01*
X009535Y004221D01*
X009548Y004246D01*
X009565Y004269D01*
X009584Y004289D01*
X009606Y004306D01*
X009630Y004320D01*
X009656Y004330D01*
X009683Y004337D01*
X009711Y004340D01*
X009739Y004339D01*
X009766Y004334D01*
X009793Y004325D01*
X009818Y004313D01*
X009841Y004298D01*
X009862Y004279D01*
X009880Y004258D01*
X009895Y004234D01*
X009906Y004208D01*
X009914Y004182D01*
X009918Y004154D01*
X009918Y004126D01*
X009914Y004098D01*
X009906Y004072D01*
X009895Y004046D01*
X009880Y004022D01*
X009862Y004001D01*
X009841Y003982D01*
X009818Y003967D01*
X009793Y003955D01*
X009766Y003946D01*
X009739Y003941D01*
X009711Y003940D01*
X009683Y003943D01*
X009656Y003950D01*
X009630Y003960D01*
X009606Y003974D01*
X009584Y003991D01*
X009565Y004011D01*
X009548Y004034D01*
X009535Y004059D01*
X009526Y004085D01*
X009520Y004112D01*
X009518Y004140D01*
X009416Y005050D02*
X009630Y005050D01*
X009737Y005157D01*
X009737Y005370D02*
X009523Y005477D01*
X009416Y005477D01*
X009310Y005370D01*
X009310Y005157D01*
X009416Y005050D01*
X009737Y005370D02*
X009737Y005691D01*
X009310Y005691D01*
X005987Y005584D02*
X005880Y005691D01*
X005666Y005691D01*
X005560Y005584D01*
X005560Y005477D01*
X005666Y005370D01*
X005560Y005264D01*
X005560Y005157D01*
X005666Y005050D01*
X005880Y005050D01*
X005987Y005157D01*
X005773Y005370D02*
X005666Y005370D01*
X005578Y004140D02*
X005580Y004168D01*
X005586Y004195D01*
X005595Y004221D01*
X005608Y004246D01*
X005625Y004269D01*
X005644Y004289D01*
X005666Y004306D01*
X005690Y004320D01*
X005716Y004330D01*
X005743Y004337D01*
X005771Y004340D01*
X005799Y004339D01*
X005826Y004334D01*
X005853Y004325D01*
X005878Y004313D01*
X005901Y004298D01*
X005922Y004279D01*
X005940Y004258D01*
X005955Y004234D01*
X005966Y004208D01*
X005974Y004182D01*
X005978Y004154D01*
X005978Y004126D01*
X005974Y004098D01*
X005966Y004072D01*
X005955Y004046D01*
X005940Y004022D01*
X005922Y004001D01*
X005901Y003982D01*
X005878Y003967D01*
X005853Y003955D01*
X005826Y003946D01*
X005799Y003941D01*
X005771Y003940D01*
X005743Y003943D01*
X005716Y003950D01*
X005690Y003960D01*
X005666Y003974D01*
X005644Y003991D01*
X005625Y004011D01*
X005608Y004034D01*
X005595Y004059D01*
X005586Y004085D01*
X005580Y004112D01*
X005578Y004140D01*
X003618Y004140D02*
X003620Y004168D01*
X003626Y004195D01*
X003635Y004221D01*
X003648Y004246D01*
X003665Y004269D01*
X003684Y004289D01*
X003706Y004306D01*
X003730Y004320D01*
X003756Y004330D01*
X003783Y004337D01*
X003811Y004340D01*
X003839Y004339D01*
X003866Y004334D01*
X003893Y004325D01*
X003918Y004313D01*
X003941Y004298D01*
X003962Y004279D01*
X003980Y004258D01*
X003995Y004234D01*
X004006Y004208D01*
X004014Y004182D01*
X004018Y004154D01*
X004018Y004126D01*
X004014Y004098D01*
X004006Y004072D01*
X003995Y004046D01*
X003980Y004022D01*
X003962Y004001D01*
X003941Y003982D01*
X003918Y003967D01*
X003893Y003955D01*
X003866Y003946D01*
X003839Y003941D01*
X003811Y003940D01*
X003783Y003943D01*
X003756Y003950D01*
X003730Y003960D01*
X003706Y003974D01*
X003684Y003991D01*
X003665Y004011D01*
X003648Y004034D01*
X003635Y004059D01*
X003626Y004085D01*
X003620Y004112D01*
X003618Y004140D01*
X003560Y005050D02*
X003987Y005050D01*
X003560Y005477D01*
X003560Y005584D01*
X003666Y005691D01*
X003880Y005691D01*
X003987Y005584D01*
X001987Y005477D02*
X001773Y005691D01*
X001773Y005050D01*
X001560Y005050D02*
X001987Y005050D01*
X001648Y004140D02*
X001650Y004168D01*
X001656Y004195D01*
X001665Y004221D01*
X001678Y004246D01*
X001695Y004269D01*
X001714Y004289D01*
X001736Y004306D01*
X001760Y004320D01*
X001786Y004330D01*
X001813Y004337D01*
X001841Y004340D01*
X001869Y004339D01*
X001896Y004334D01*
X001923Y004325D01*
X001948Y004313D01*
X001971Y004298D01*
X001992Y004279D01*
X002010Y004258D01*
X002025Y004234D01*
X002036Y004208D01*
X002044Y004182D01*
X002048Y004154D01*
X002048Y004126D01*
X002044Y004098D01*
X002036Y004072D01*
X002025Y004046D01*
X002010Y004022D01*
X001992Y004001D01*
X001971Y003982D01*
X001948Y003967D01*
X001923Y003955D01*
X001896Y003946D01*
X001869Y003941D01*
X001841Y003940D01*
X001813Y003943D01*
X001786Y003950D01*
X001760Y003960D01*
X001736Y003974D01*
X001714Y003991D01*
X001695Y004011D01*
X001678Y004034D01*
X001665Y004059D01*
X001656Y004085D01*
X001650Y004112D01*
X001648Y004140D01*
X001267Y012770D02*
X001017Y013020D01*
X001017Y013520D01*
X001267Y013770D01*
X002767Y013770D01*
X003017Y013520D01*
X003017Y013020D01*
X002767Y012770D01*
X001267Y012770D01*
X001267Y013770D02*
X001017Y014020D01*
X001017Y014520D01*
X001267Y014770D01*
X002767Y014770D01*
X003017Y015020D01*
X003017Y015520D01*
X002767Y015770D01*
X001267Y015770D01*
X001017Y015520D01*
X001017Y015020D01*
X001267Y014770D01*
X001267Y015770D02*
X001017Y016020D01*
X001017Y016520D01*
X001267Y016770D01*
X002767Y016770D01*
X003017Y017020D01*
X003017Y017520D01*
X002767Y017770D01*
X001267Y017770D01*
X001017Y017520D01*
X001017Y017020D01*
X001267Y016770D01*
X001267Y017770D02*
X001017Y018020D01*
X001017Y018520D01*
X001267Y018770D01*
X002767Y018770D01*
X003017Y018520D01*
X003017Y018020D01*
X002767Y017770D01*
X003454Y017484D02*
X003454Y017377D01*
X003561Y017270D01*
X003774Y017270D01*
X003881Y017377D01*
X003881Y017484D01*
X003774Y017591D01*
X003561Y017591D01*
X003454Y017484D01*
X003561Y017270D02*
X003454Y017164D01*
X003454Y017057D01*
X003561Y016950D01*
X003774Y016950D01*
X003881Y017057D01*
X003881Y017164D01*
X003774Y017270D01*
X003774Y016591D02*
X003561Y016591D01*
X003454Y016484D01*
X003454Y016057D01*
X003561Y015950D01*
X003774Y015950D01*
X003881Y016057D01*
X003774Y016270D02*
X003454Y016270D01*
X003017Y016520D02*
X002767Y016770D01*
X003017Y016520D02*
X003017Y016020D01*
X002767Y015770D01*
X003454Y015484D02*
X003454Y015057D01*
X003561Y014950D01*
X003774Y014950D01*
X003881Y015057D01*
X003454Y015484D01*
X003561Y015591D01*
X003774Y015591D01*
X003881Y015484D01*
X003881Y015057D01*
X004099Y014950D02*
X004526Y014950D01*
X004312Y014950D02*
X004312Y015591D01*
X004526Y015377D01*
X004312Y014591D02*
X004312Y013950D01*
X004099Y013950D02*
X004526Y013950D01*
X004312Y013591D02*
X004312Y012950D01*
X004099Y012950D02*
X004526Y012950D01*
X004526Y013377D02*
X004312Y013591D01*
X003881Y013484D02*
X003774Y013591D01*
X003561Y013591D01*
X003454Y013484D01*
X003454Y013377D01*
X003881Y012950D01*
X003454Y012950D01*
X002767Y013770D02*
X003017Y014020D01*
X003017Y014520D01*
X002767Y014770D01*
X003454Y013950D02*
X003881Y013950D01*
X003668Y013950D02*
X003668Y014591D01*
X003881Y014377D01*
X004312Y014591D02*
X004526Y014377D01*
X003774Y016270D02*
X003881Y016377D01*
X003881Y016484D01*
X003774Y016591D01*
X003881Y017950D02*
X003881Y018057D01*
X003454Y018484D01*
X003454Y018591D01*
X003881Y018591D01*
X003774Y018950D02*
X003561Y018950D01*
X003454Y019057D01*
X003454Y019164D01*
X003561Y019270D01*
X003881Y019270D01*
X003881Y019057D01*
X003774Y018950D01*
X003881Y019270D02*
X003668Y019484D01*
X003454Y019591D01*
X003561Y019950D02*
X003454Y020057D01*
X003454Y020270D01*
X003561Y020377D01*
X003668Y020377D01*
X003881Y020270D01*
X003881Y020591D01*
X003454Y020591D01*
X003561Y020950D02*
X003561Y021591D01*
X003881Y021270D01*
X003454Y021270D01*
X003017Y021020D02*
X002767Y020770D01*
X001267Y020770D01*
X001017Y020520D01*
X001017Y020020D01*
X001267Y019770D01*
X002767Y019770D01*
X003017Y019520D01*
X003017Y019020D01*
X002767Y018770D01*
X002767Y019770D02*
X003017Y020020D01*
X003017Y020520D01*
X002767Y020770D01*
X003017Y021020D02*
X003017Y021520D01*
X002767Y021770D01*
X001267Y021770D01*
X001017Y021520D01*
X001017Y021020D01*
X001267Y020770D01*
X001267Y019770D02*
X001017Y019520D01*
X001017Y019020D01*
X001267Y018770D01*
X003561Y019950D02*
X003774Y019950D01*
X003881Y020057D01*
X003774Y021950D02*
X003561Y021950D01*
X003454Y022057D01*
X003454Y022164D01*
X003561Y022270D01*
X003668Y022270D01*
X003561Y022270D02*
X003454Y022377D01*
X003454Y022484D01*
X003561Y022591D01*
X003774Y022591D01*
X003881Y022484D01*
X003881Y022057D02*
X003774Y021950D01*
X003017Y022020D02*
X002767Y021770D01*
X003017Y022020D02*
X003017Y022520D01*
X002767Y022770D01*
X001267Y022770D01*
X001017Y022520D01*
X001017Y022020D01*
X001267Y021770D01*
X001267Y022770D02*
X001017Y023020D01*
X001017Y023520D01*
X001267Y023770D01*
X002767Y023770D01*
X003017Y023520D01*
X003017Y023020D01*
X002767Y022770D01*
X003454Y022950D02*
X003881Y022950D01*
X003454Y023377D01*
X003454Y023484D01*
X003561Y023591D01*
X003774Y023591D01*
X003881Y023484D01*
X003881Y023950D02*
X003454Y023950D01*
X003668Y023950D02*
X003668Y024591D01*
X003881Y024377D01*
X003017Y024520D02*
X003017Y024020D01*
X002767Y023770D01*
X003017Y024520D02*
X002767Y024770D01*
X001267Y024770D01*
X001017Y024520D01*
X001017Y024020D01*
X001267Y023770D01*
X002267Y027020D02*
X002067Y027220D01*
X002067Y031220D01*
X002067Y031270D01*
X004067Y031270D01*
X004417Y031270D01*
X004417Y027220D01*
X004217Y027020D01*
X002267Y027020D01*
X001580Y027800D02*
X001474Y027800D01*
X001367Y027907D01*
X001367Y028120D01*
X001260Y028227D01*
X001153Y028227D01*
X001047Y028120D01*
X001047Y027907D01*
X001153Y027800D01*
X001260Y027800D01*
X001367Y027907D01*
X001367Y028120D02*
X001474Y028227D01*
X001580Y028227D01*
X001687Y028120D01*
X001687Y027907D01*
X001580Y027800D01*
X001367Y028445D02*
X001367Y028872D01*
X001474Y029089D02*
X001367Y029196D01*
X001367Y029516D01*
X001580Y029516D02*
X001687Y029409D01*
X001687Y029196D01*
X001580Y029089D01*
X001474Y029089D01*
X001153Y029089D02*
X001047Y029196D01*
X001047Y029409D01*
X001153Y029516D01*
X001580Y029516D01*
X001367Y029734D02*
X001367Y030161D01*
X001474Y030378D02*
X001687Y030592D01*
X001047Y030592D01*
X001047Y030805D02*
X001047Y030378D01*
X001047Y031023D02*
X001474Y031450D01*
X001580Y031450D01*
X001687Y031343D01*
X001687Y031130D01*
X001580Y031023D01*
X001047Y031023D02*
X001047Y031450D01*
X002067Y031270D02*
X002067Y032470D01*
X002067Y032670D01*
X003067Y032670D01*
X004067Y032670D01*
X004067Y032470D01*
X004117Y032470D01*
X004117Y031520D01*
X004119Y031490D01*
X004124Y031460D01*
X004133Y031431D01*
X004146Y031404D01*
X004161Y031378D01*
X004180Y031354D01*
X004201Y031333D01*
X004225Y031314D01*
X004251Y031299D01*
X004278Y031286D01*
X004307Y031277D01*
X004337Y031272D01*
X004367Y031270D01*
X004417Y031270D02*
X004517Y031270D01*
X004517Y030970D01*
X020517Y030970D01*
X020517Y031270D01*
X004517Y031270D01*
X004067Y032670D02*
X020967Y032670D01*
X020967Y032470D01*
X020917Y032470D01*
X020917Y031520D01*
X020915Y031490D01*
X020910Y031460D01*
X020901Y031431D01*
X020888Y031404D01*
X020873Y031378D01*
X020854Y031354D01*
X020833Y031333D01*
X020809Y031314D01*
X020783Y031299D01*
X020756Y031286D01*
X020727Y031277D01*
X020697Y031272D01*
X020667Y031270D01*
X020617Y031270D02*
X020617Y027220D01*
X020817Y027020D01*
X022717Y027020D01*
X022967Y027270D01*
X022967Y031220D01*
X022967Y031270D01*
X022967Y032470D01*
X022967Y032670D01*
X021967Y032670D01*
X020967Y032670D01*
X020317Y032870D02*
X020287Y032872D01*
X020257Y032877D01*
X020228Y032886D01*
X020201Y032899D01*
X020175Y032914D01*
X020151Y032933D01*
X020130Y032954D01*
X020111Y032978D01*
X020096Y033004D01*
X020083Y033031D01*
X020074Y033060D01*
X020069Y033090D01*
X020067Y033120D01*
X020067Y035120D01*
X020065Y035146D01*
X020060Y035172D01*
X020052Y035197D01*
X020040Y035220D01*
X020026Y035242D01*
X020008Y035261D01*
X019989Y035279D01*
X019967Y035293D01*
X019944Y035305D01*
X019919Y035313D01*
X019893Y035318D01*
X019867Y035320D01*
X019767Y035320D01*
X005267Y035320D01*
X005167Y035320D01*
X005141Y035318D01*
X005115Y035313D01*
X005090Y035305D01*
X005067Y035293D01*
X005045Y035279D01*
X005026Y035261D01*
X005008Y035242D01*
X004994Y035220D01*
X004982Y035197D01*
X004974Y035172D01*
X004969Y035146D01*
X004967Y035120D01*
X004967Y033120D01*
X004965Y033090D01*
X004960Y033060D01*
X004951Y033031D01*
X004938Y033004D01*
X004923Y032978D01*
X004904Y032954D01*
X004883Y032933D01*
X004859Y032914D01*
X004833Y032899D01*
X004806Y032886D01*
X004777Y032877D01*
X004747Y032872D01*
X004717Y032870D01*
X005117Y032870D02*
X002067Y032870D01*
X002067Y032670D01*
X005117Y032870D02*
X019917Y032870D01*
X022967Y032870D01*
X022967Y032670D01*
X022967Y031270D02*
X020967Y031270D01*
X020617Y031270D01*
X020517Y031270D01*
X021127Y028270D02*
X021129Y028320D01*
X021135Y028370D01*
X021145Y028420D01*
X021158Y028468D01*
X021175Y028516D01*
X021196Y028562D01*
X021220Y028606D01*
X021248Y028648D01*
X021279Y028688D01*
X021313Y028725D01*
X021350Y028760D01*
X021389Y028791D01*
X021430Y028820D01*
X021474Y028845D01*
X021520Y028867D01*
X021567Y028885D01*
X021615Y028899D01*
X021664Y028910D01*
X021714Y028917D01*
X021764Y028920D01*
X021815Y028919D01*
X021865Y028914D01*
X021915Y028905D01*
X021963Y028893D01*
X022011Y028876D01*
X022057Y028856D01*
X022102Y028833D01*
X022145Y028806D01*
X022185Y028776D01*
X022223Y028743D01*
X022258Y028707D01*
X022291Y028668D01*
X022320Y028627D01*
X022346Y028584D01*
X022369Y028539D01*
X022388Y028492D01*
X022403Y028444D01*
X022415Y028395D01*
X022423Y028345D01*
X022427Y028295D01*
X022427Y028245D01*
X022423Y028195D01*
X022415Y028145D01*
X022403Y028096D01*
X022388Y028048D01*
X022369Y028001D01*
X022346Y027956D01*
X022320Y027913D01*
X022291Y027872D01*
X022258Y027833D01*
X022223Y027797D01*
X022185Y027764D01*
X022145Y027734D01*
X022102Y027707D01*
X022057Y027684D01*
X022011Y027664D01*
X021963Y027647D01*
X021915Y027635D01*
X021865Y027626D01*
X021815Y027621D01*
X021764Y027620D01*
X021714Y027623D01*
X021664Y027630D01*
X021615Y027641D01*
X021567Y027655D01*
X021520Y027673D01*
X021474Y027695D01*
X021430Y027720D01*
X021389Y027749D01*
X021350Y027780D01*
X021313Y027815D01*
X021279Y027852D01*
X021248Y027892D01*
X021220Y027934D01*
X021196Y027978D01*
X021175Y028024D01*
X021158Y028072D01*
X021145Y028120D01*
X021135Y028170D01*
X021129Y028220D01*
X021127Y028270D01*
X021166Y025591D02*
X021487Y025270D01*
X021060Y025270D01*
X021166Y024950D02*
X021166Y025591D01*
X021060Y024591D02*
X021487Y024591D01*
X021487Y024270D01*
X021273Y024377D01*
X021166Y024377D01*
X021060Y024270D01*
X021060Y024057D01*
X021166Y023950D01*
X021380Y023950D01*
X021487Y024057D01*
X021487Y023591D02*
X021060Y023591D01*
X021060Y023484D01*
X021487Y023057D01*
X021487Y022950D01*
X021380Y022591D02*
X021166Y022591D01*
X021060Y022484D01*
X021060Y022057D01*
X021166Y021950D01*
X021380Y021950D01*
X021487Y022057D01*
X021380Y022270D02*
X021060Y022270D01*
X021380Y022270D02*
X021487Y022377D01*
X021487Y022484D01*
X021380Y022591D01*
X022017Y022520D02*
X022017Y022020D01*
X022267Y021770D01*
X023767Y021770D01*
X024017Y021520D01*
X024017Y021020D01*
X023767Y020770D01*
X022267Y020770D01*
X022017Y020520D01*
X022017Y020020D01*
X022267Y019770D01*
X023767Y019770D01*
X024017Y019520D01*
X024017Y019020D01*
X023767Y018770D01*
X022267Y018770D01*
X022017Y018520D01*
X022017Y018020D01*
X022267Y017770D01*
X023767Y017770D01*
X024017Y018020D01*
X024017Y018520D01*
X023767Y018770D01*
X023767Y017770D02*
X024017Y017520D01*
X024017Y017020D01*
X023767Y016770D01*
X022267Y016770D01*
X022017Y016520D01*
X022017Y016020D01*
X022267Y015770D01*
X023767Y015770D01*
X024017Y016020D01*
X024017Y016520D01*
X023767Y016770D01*
X023767Y015770D02*
X024017Y015520D01*
X024017Y015020D01*
X023767Y014770D01*
X022267Y014770D01*
X022017Y014520D01*
X022017Y014020D01*
X022267Y013770D01*
X023767Y013770D01*
X024017Y014020D01*
X024017Y014520D01*
X023767Y014770D01*
X023767Y013770D02*
X024017Y013520D01*
X024017Y013020D01*
X023767Y012770D01*
X024017Y012520D01*
X024017Y012020D01*
X023767Y011770D01*
X022267Y011770D01*
X022017Y012020D01*
X022017Y012520D01*
X022267Y012770D01*
X023767Y012770D01*
X022267Y012770D02*
X022017Y013020D01*
X022017Y013520D01*
X022267Y013770D01*
X022267Y014770D02*
X022017Y015020D01*
X022017Y015520D01*
X022267Y015770D01*
X022267Y016770D02*
X022017Y017020D01*
X022017Y017520D01*
X022267Y017770D01*
X022267Y018770D02*
X022017Y019020D01*
X022017Y019520D01*
X022267Y019770D01*
X022267Y020770D02*
X022017Y021020D01*
X022017Y021520D01*
X022267Y021770D01*
X022017Y022520D02*
X022267Y022770D01*
X023767Y022770D01*
X024017Y022520D01*
X024017Y022020D01*
X023767Y021770D01*
X023767Y020770D02*
X024017Y020520D01*
X024017Y020020D01*
X023767Y019770D01*
X023767Y022770D02*
X024017Y023020D01*
X024017Y023520D01*
X023767Y023770D01*
X022267Y023770D01*
X022017Y023520D01*
X022017Y023020D01*
X022267Y022770D01*
X022267Y023770D02*
X022017Y024020D01*
X022017Y024520D01*
X022267Y024770D01*
X023767Y024770D01*
X024017Y024520D01*
X024017Y024020D01*
X023767Y023770D01*
X023767Y024770D02*
X024017Y025020D01*
X024017Y025520D01*
X023767Y025770D01*
X022267Y025770D01*
X022017Y025520D01*
X022017Y025020D01*
X022267Y024770D01*
X021273Y021591D02*
X021273Y020950D01*
X021060Y020950D02*
X021487Y020950D01*
X021273Y020591D02*
X021273Y019950D01*
X021060Y019950D02*
X021487Y019950D01*
X021273Y019591D02*
X021273Y018950D01*
X021060Y018950D02*
X021487Y018950D01*
X021273Y018591D02*
X021273Y017950D01*
X021060Y017950D02*
X021487Y017950D01*
X021273Y017591D02*
X021273Y016950D01*
X021060Y016950D02*
X021487Y016950D01*
X021273Y016591D02*
X021273Y015950D01*
X021060Y015950D02*
X021487Y015950D01*
X021273Y015591D02*
X021273Y014950D01*
X021060Y014950D02*
X021487Y014950D01*
X021273Y014591D02*
X021273Y013950D01*
X021060Y013950D02*
X021487Y013950D01*
X021273Y013591D02*
X021273Y012950D01*
X021060Y012950D02*
X021487Y012950D01*
X021380Y012591D02*
X021166Y012591D01*
X021060Y012484D01*
X021060Y012377D01*
X021487Y011950D01*
X021060Y011950D01*
X020842Y012057D02*
X020735Y011950D01*
X020522Y011950D01*
X020415Y012057D01*
X020415Y012164D01*
X020522Y012270D01*
X020629Y012270D01*
X020522Y012270D02*
X020415Y012377D01*
X020415Y012484D01*
X020522Y012591D01*
X020735Y012591D01*
X020842Y012484D01*
X020735Y012950D02*
X020522Y012950D01*
X020415Y013057D01*
X020415Y013484D01*
X020522Y013591D01*
X020735Y013591D01*
X020842Y013484D01*
X020842Y013377D01*
X020735Y013270D01*
X020415Y013270D01*
X020735Y012950D02*
X020842Y013057D01*
X021273Y013591D02*
X021487Y013377D01*
X021380Y012591D02*
X021487Y012484D01*
X020735Y013950D02*
X020842Y014057D01*
X020842Y014164D01*
X020735Y014270D01*
X020522Y014270D01*
X020415Y014164D01*
X020415Y014057D01*
X020522Y013950D01*
X020735Y013950D01*
X020735Y014270D02*
X020842Y014377D01*
X020842Y014484D01*
X020735Y014591D01*
X020522Y014591D01*
X020415Y014484D01*
X020415Y014377D01*
X020522Y014270D01*
X020842Y014950D02*
X020842Y015057D01*
X020415Y015484D01*
X020415Y015591D01*
X020842Y015591D01*
X020735Y015950D02*
X020842Y016057D01*
X020735Y015950D02*
X020522Y015950D01*
X020415Y016057D01*
X020415Y016270D01*
X020522Y016377D01*
X020629Y016377D01*
X020842Y016270D01*
X020842Y016591D01*
X020415Y016591D01*
X020522Y016950D02*
X020522Y017591D01*
X020842Y017270D01*
X020415Y017270D01*
X020522Y017950D02*
X020415Y018057D01*
X020415Y018164D01*
X020522Y018270D01*
X020629Y018270D01*
X020522Y018270D02*
X020415Y018377D01*
X020415Y018484D01*
X020522Y018591D01*
X020735Y018591D01*
X020842Y018484D01*
X020842Y018950D02*
X020415Y019377D01*
X020415Y019484D01*
X020522Y019591D01*
X020735Y019591D01*
X020842Y019484D01*
X020842Y018950D02*
X020415Y018950D01*
X020842Y018057D02*
X020735Y017950D01*
X020522Y017950D01*
X021273Y017591D02*
X021487Y017377D01*
X021487Y018377D02*
X021273Y018591D01*
X021487Y019377D02*
X021273Y019591D01*
X020842Y019950D02*
X020415Y019950D01*
X020629Y019950D02*
X020629Y020591D01*
X020842Y020377D01*
X021273Y020591D02*
X021487Y020377D01*
X020842Y021057D02*
X020415Y021484D01*
X020415Y021057D01*
X020522Y020950D01*
X020735Y020950D01*
X020842Y021057D01*
X020842Y021484D01*
X020735Y021591D01*
X020522Y021591D01*
X020415Y021484D01*
X021273Y021591D02*
X021487Y021377D01*
X021273Y016591D02*
X021487Y016377D01*
X021273Y015591D02*
X021487Y015377D01*
X021273Y014591D02*
X021487Y014377D01*
X019548Y004140D02*
X019550Y004168D01*
X019556Y004195D01*
X019565Y004221D01*
X019578Y004246D01*
X019595Y004269D01*
X019614Y004289D01*
X019636Y004306D01*
X019660Y004320D01*
X019686Y004330D01*
X019713Y004337D01*
X019741Y004340D01*
X019769Y004339D01*
X019796Y004334D01*
X019823Y004325D01*
X019848Y004313D01*
X019871Y004298D01*
X019892Y004279D01*
X019910Y004258D01*
X019925Y004234D01*
X019936Y004208D01*
X019944Y004182D01*
X019948Y004154D01*
X019948Y004126D01*
X019944Y004098D01*
X019936Y004072D01*
X019925Y004046D01*
X019910Y004022D01*
X019892Y004001D01*
X019871Y003982D01*
X019848Y003967D01*
X019823Y003955D01*
X019796Y003946D01*
X019769Y003941D01*
X019741Y003940D01*
X019713Y003943D01*
X019686Y003950D01*
X019660Y003960D01*
X019636Y003974D01*
X019614Y003991D01*
X019595Y004011D01*
X019578Y004034D01*
X019565Y004059D01*
X019556Y004085D01*
X019550Y004112D01*
X019548Y004140D01*
X002607Y028270D02*
X002609Y028320D01*
X002615Y028370D01*
X002625Y028420D01*
X002638Y028468D01*
X002655Y028516D01*
X002676Y028562D01*
X002700Y028606D01*
X002728Y028648D01*
X002759Y028688D01*
X002793Y028725D01*
X002830Y028760D01*
X002869Y028791D01*
X002910Y028820D01*
X002954Y028845D01*
X003000Y028867D01*
X003047Y028885D01*
X003095Y028899D01*
X003144Y028910D01*
X003194Y028917D01*
X003244Y028920D01*
X003295Y028919D01*
X003345Y028914D01*
X003395Y028905D01*
X003443Y028893D01*
X003491Y028876D01*
X003537Y028856D01*
X003582Y028833D01*
X003625Y028806D01*
X003665Y028776D01*
X003703Y028743D01*
X003738Y028707D01*
X003771Y028668D01*
X003800Y028627D01*
X003826Y028584D01*
X003849Y028539D01*
X003868Y028492D01*
X003883Y028444D01*
X003895Y028395D01*
X003903Y028345D01*
X003907Y028295D01*
X003907Y028245D01*
X003903Y028195D01*
X003895Y028145D01*
X003883Y028096D01*
X003868Y028048D01*
X003849Y028001D01*
X003826Y027956D01*
X003800Y027913D01*
X003771Y027872D01*
X003738Y027833D01*
X003703Y027797D01*
X003665Y027764D01*
X003625Y027734D01*
X003582Y027707D01*
X003537Y027684D01*
X003491Y027664D01*
X003443Y027647D01*
X003395Y027635D01*
X003345Y027626D01*
X003295Y027621D01*
X003244Y027620D01*
X003194Y027623D01*
X003144Y027630D01*
X003095Y027641D01*
X003047Y027655D01*
X003000Y027673D01*
X002954Y027695D01*
X002910Y027720D01*
X002869Y027749D01*
X002830Y027780D01*
X002793Y027815D01*
X002759Y027852D01*
X002728Y027892D01*
X002700Y027934D01*
X002676Y027978D01*
X002655Y028024D01*
X002638Y028072D01*
X002625Y028120D01*
X002615Y028170D01*
X002609Y028220D01*
X002607Y028270D01*
D11*
X002667Y029295D02*
X002742Y029370D01*
X002742Y029520D01*
X002667Y029595D01*
X002592Y029595D01*
X002292Y029295D01*
X002292Y029595D01*
X002142Y029755D02*
X002292Y029906D01*
X002292Y029830D01*
X002367Y029830D01*
X002367Y029906D01*
X002292Y029906D01*
X002367Y030062D02*
X002292Y030137D01*
X002292Y030288D01*
X002367Y030363D01*
X002517Y030363D01*
X002592Y030288D01*
X002592Y030212D01*
X002517Y030062D01*
X002742Y030062D01*
X002742Y030363D01*
X002517Y030523D02*
X002517Y030823D01*
X002742Y030748D02*
X002517Y030523D01*
X002292Y030748D02*
X002742Y030748D01*
X004731Y028995D02*
X005031Y028995D01*
X005031Y028770D01*
X004881Y028845D01*
X004806Y028845D01*
X004731Y028770D01*
X004731Y028620D01*
X004806Y028545D01*
X004956Y028545D01*
X005031Y028620D01*
X005191Y028545D02*
X005492Y028545D01*
X005191Y028845D01*
X005191Y028920D01*
X005266Y028995D01*
X005417Y028995D01*
X005492Y028920D01*
X005342Y027995D02*
X005342Y027545D01*
X005492Y027545D02*
X005191Y027545D01*
X005031Y027620D02*
X004956Y027545D01*
X004806Y027545D01*
X004731Y027620D01*
X004731Y027695D01*
X004806Y027770D01*
X004881Y027770D01*
X004806Y027770D02*
X004731Y027845D01*
X004731Y027920D01*
X004806Y027995D01*
X004956Y027995D01*
X005031Y027920D01*
X005342Y027995D02*
X005492Y027845D01*
X018621Y031720D02*
X018696Y031645D01*
X018846Y031645D01*
X018921Y031720D01*
X018921Y031870D02*
X018771Y031945D01*
X018696Y031945D01*
X018621Y031870D01*
X018621Y031720D01*
X018921Y031870D02*
X018921Y032095D01*
X018621Y032095D01*
X019081Y032020D02*
X019156Y032095D01*
X019306Y032095D01*
X019381Y032020D01*
X019541Y032095D02*
X019842Y032095D01*
X019842Y031645D01*
X019842Y031870D02*
X019692Y031870D01*
X019381Y031645D02*
X019081Y031945D01*
X019081Y032020D01*
X019081Y031645D02*
X019381Y031645D01*
X019506Y028995D02*
X019731Y028770D01*
X019431Y028770D01*
X019506Y028545D02*
X019506Y028995D01*
X019891Y028545D02*
X020192Y028545D01*
X020042Y028545D02*
X020042Y028995D01*
X020192Y028845D01*
X019692Y027995D02*
X019692Y027545D01*
X019842Y027545D02*
X019541Y027545D01*
X019842Y027845D02*
X019692Y027995D01*
D12*
X012517Y031120D03*
D13*
X012517Y032770D03*
D14*
X012517Y029545D03*
X013597Y029545D03*
X014687Y029545D03*
X015777Y029545D03*
X016867Y029545D03*
X017947Y029545D03*
X019037Y029545D03*
X011427Y029545D03*
X010347Y029545D03*
X009257Y029545D03*
X008167Y029545D03*
X007087Y029545D03*
X005997Y029545D03*
D15*
X006547Y030045D03*
X007637Y030045D03*
X008717Y030045D03*
X009797Y030045D03*
X010887Y030045D03*
X011977Y030045D03*
X013057Y030045D03*
X014147Y030045D03*
X015237Y030045D03*
X016317Y030045D03*
X017407Y030045D03*
X018497Y030045D03*
M02*
