%
M48
M72
T01C0.0240
T02C0.0400
T03C0.0470
T04C0.1300
%
T01
X1877Y7090
X8597Y12930
X8597Y13730
X10517Y12530
X10917Y10930
X7237Y16690
X7797Y17730
X8197Y18610
X14517Y23810
X14497Y24710
X17797Y15090
X17397Y11650
X21397Y16610
X21707Y13640
T02
X22517Y13270
X22517Y12270
X23517Y12270
X23517Y13270
X23517Y14270
X23517Y15270
X23517Y16270
X23517Y17270
X23517Y18270
X23517Y19270
X23517Y20270
X23517Y21270
X23517Y22270
X23517Y23270
X23517Y24270
X23517Y25270
X22517Y25270
X22517Y24270
X22517Y23270
X22517Y22270
X22517Y21270
X22517Y20270
X22517Y19270
X22517Y18270
X22517Y17270
X22517Y16270
X22517Y15270
X22517Y14270
X19037Y8830
X18497Y7710
X17947Y8830
X17407Y7710
X16867Y8830
X16317Y7710
X15777Y8830
X15237Y7710
X14687Y8830
X14147Y7710
X13607Y8830
X13057Y7710
X12517Y8830
X11977Y7710
X11427Y8830
X10887Y7710
X10347Y8830
X9797Y7710
X9257Y8830
X8717Y7710
X8167Y8830
X7627Y7710
X7087Y8830
X6537Y7710
X5997Y8830
X2517Y13270
X2517Y14270
X2517Y15270
X2517Y16270
X2517Y17270
X2517Y18270
X2517Y19270
X2517Y20270
X2517Y21270
X2517Y22270
X2517Y23270
X2517Y24270
X1517Y24270
X1517Y23270
X1517Y22270
X1517Y21270
X1517Y20270
X1517Y19270
X1517Y18270
X1517Y17270
X1517Y16270
X1517Y15270
X1517Y14270
X1517Y13270
X8737Y15330
X9277Y14210
X9817Y15330
X10357Y14210
X10897Y15330
X11437Y14210
X11977Y15330
X12517Y14210
X13057Y15330
X13597Y14210
X14137Y15330
X14677Y14210
X15217Y15330
X15757Y14210
X16297Y15330
X15757Y22210
X16297Y23330
X15217Y23330
X14677Y22210
X14137Y23330
X13597Y22210
X13057Y23330
X12517Y22210
X11977Y23330
X11437Y22210
X10897Y23330
X10357Y22210
X9817Y23330
X9277Y22210
X8737Y23330
X9257Y27770
X9797Y28770
X10347Y27770
X10887Y28770
X11427Y27770
X11977Y28770
X12517Y27770
X13057Y28770
X13607Y27770
X14147Y28770
X14687Y27770
X15237Y28770
X15777Y27770
X16317Y28770
X16867Y27770
X17407Y28770
X17947Y27770
X18497Y28770
X19037Y27770
X8717Y28770
X8167Y27770
X7627Y28770
X7087Y27770
X6537Y28770
X5997Y27770
T03
X1845Y2770
X3814Y2770
X5782Y2770
X7751Y2770
X9719Y2770
X11688Y2770
X13845Y2770
X15814Y2770
X17782Y2770
X19751Y2770
X21719Y2770
X23688Y2770
T04
X21777Y8270
X19077Y14770
X19077Y22770
X21777Y28270
X5957Y22770
X3257Y28270
X5957Y14770
X3257Y8270
M30
