G75*
G70*
%OFA0B0*%
%FSLAX24Y24*%
%IPPOS*%
%LPD*%
%AMOC8*
5,1,8,0,0,1.08239X$1,22.5*
%
%ADD10C,0.0000*%
%ADD11OC8,0.0600*%
%ADD12C,0.2000*%
%ADD13C,0.0705*%
%ADD14C,0.0100*%
%ADD15C,0.0400*%
D10*
X000517Y000770D02*
X000517Y032266D01*
X024887Y032266D01*
X024887Y000770D01*
X000517Y000770D01*
D11*
X005997Y008830D03*
X006537Y007710D03*
X007087Y008830D03*
X007627Y007710D03*
X008167Y008830D03*
X008717Y007710D03*
X009257Y008830D03*
X009797Y007710D03*
X010347Y008830D03*
X010887Y007710D03*
X011427Y008830D03*
X011977Y007710D03*
X012517Y008830D03*
X013057Y007710D03*
X013607Y008830D03*
X014147Y007710D03*
X014687Y008830D03*
X015237Y007710D03*
X015777Y008830D03*
X016317Y007710D03*
X016867Y008830D03*
X017407Y007710D03*
X017947Y008830D03*
X018497Y007710D03*
X019037Y008830D03*
X022517Y012270D03*
X022517Y013270D03*
X022517Y014270D03*
X022517Y015270D03*
X022517Y016270D03*
X022517Y017270D03*
X022517Y018270D03*
X022517Y019270D03*
X022517Y020270D03*
X022517Y021270D03*
X022517Y022270D03*
X022517Y023270D03*
X022517Y024270D03*
X022517Y025270D03*
X023517Y025270D03*
X023517Y024270D03*
X023517Y023270D03*
X023517Y022270D03*
X023517Y021270D03*
X023517Y020270D03*
X023517Y019270D03*
X023517Y018270D03*
X023517Y017270D03*
X023517Y016270D03*
X023517Y015270D03*
X023517Y014270D03*
X023517Y013270D03*
X023517Y012270D03*
X016297Y015330D03*
X015757Y014210D03*
X015217Y015330D03*
X014677Y014210D03*
X014137Y015330D03*
X013597Y014210D03*
X013057Y015330D03*
X012517Y014210D03*
X011977Y015330D03*
X011437Y014210D03*
X010897Y015330D03*
X010357Y014210D03*
X009817Y015330D03*
X009277Y014210D03*
X008737Y015330D03*
X009277Y022210D03*
X009817Y023330D03*
X010357Y022210D03*
X010897Y023330D03*
X011437Y022210D03*
X011977Y023330D03*
X012517Y022210D03*
X013057Y023330D03*
X013597Y022210D03*
X014137Y023330D03*
X014677Y022210D03*
X015217Y023330D03*
X015757Y022210D03*
X016297Y023330D03*
X015777Y027770D03*
X016317Y028770D03*
X016867Y027770D03*
X017407Y028770D03*
X017947Y027770D03*
X018497Y028770D03*
X019037Y027770D03*
X015237Y028770D03*
X014687Y027770D03*
X014147Y028770D03*
X013607Y027770D03*
X013057Y028770D03*
X012517Y027770D03*
X011977Y028770D03*
X011427Y027770D03*
X010887Y028770D03*
X010347Y027770D03*
X009797Y028770D03*
X009257Y027770D03*
X008717Y028770D03*
X008167Y027770D03*
X007627Y028770D03*
X007087Y027770D03*
X006537Y028770D03*
X005997Y027770D03*
X008737Y023330D03*
X002517Y023270D03*
X002517Y022270D03*
X002517Y021270D03*
X002517Y020270D03*
X002517Y019270D03*
X002517Y018270D03*
X002517Y017270D03*
X002517Y016270D03*
X002517Y015270D03*
X002517Y014270D03*
X002517Y013270D03*
X001517Y013270D03*
X001517Y014270D03*
X001517Y015270D03*
X001517Y016270D03*
X001517Y017270D03*
X001517Y018270D03*
X001517Y019270D03*
X001517Y020270D03*
X001517Y021270D03*
X001517Y022270D03*
X001517Y023270D03*
X001517Y024270D03*
X002517Y024270D03*
D12*
X003257Y028270D03*
X005957Y022770D03*
X005957Y014770D03*
X003257Y008270D03*
X019077Y014770D03*
X021777Y008270D03*
X019077Y022770D03*
X021777Y028270D03*
D13*
X021719Y003123D02*
X021719Y002418D01*
X019751Y002418D02*
X019751Y003123D01*
X017782Y003123D02*
X017782Y002418D01*
X015814Y002418D02*
X015814Y003123D01*
X013845Y003123D02*
X013845Y002418D01*
X011688Y002418D02*
X011688Y003123D01*
X009719Y003123D02*
X009719Y002418D01*
X007751Y002418D02*
X007751Y003123D01*
X005782Y003123D02*
X005782Y002418D01*
X003814Y002418D02*
X003814Y003123D01*
X001845Y003123D02*
X001845Y002418D01*
X023688Y002418D02*
X023688Y003123D01*
D14*
X020597Y001890D02*
X020597Y010290D01*
X022517Y012210D01*
X022517Y012270D01*
X022517Y012290D01*
X023477Y012290D01*
X023517Y012270D01*
X023517Y013270D02*
X023477Y013330D01*
X022517Y013330D01*
X022517Y013270D01*
X022037Y013970D02*
X022037Y022770D01*
X022517Y023250D01*
X022517Y023270D01*
X022517Y023330D01*
X023477Y023330D01*
X023517Y023270D01*
X023477Y022290D02*
X023517Y022270D01*
X023477Y022290D02*
X022517Y022290D01*
X022517Y022270D01*
X022517Y020290D02*
X022517Y020270D01*
X022517Y020290D02*
X023477Y020290D01*
X023517Y020270D01*
X023477Y019330D02*
X023517Y019270D01*
X023477Y019330D02*
X022517Y019330D01*
X022517Y019270D01*
X022517Y018290D02*
X022517Y018270D01*
X022517Y018290D02*
X023477Y018290D01*
X023517Y018270D01*
X023477Y017330D02*
X023517Y017270D01*
X023477Y017330D02*
X022517Y017330D01*
X022517Y017270D01*
X022517Y016290D02*
X022517Y016270D01*
X022517Y016290D02*
X023477Y016290D01*
X023517Y016270D01*
X023477Y015330D02*
X023517Y015270D01*
X023477Y015330D02*
X022517Y015330D01*
X022517Y015270D01*
X021797Y015570D02*
X021797Y024530D01*
X022517Y025250D01*
X022517Y025270D01*
X022517Y025330D01*
X023477Y025330D01*
X023517Y025270D01*
X023477Y024290D02*
X023517Y024270D01*
X023477Y024290D02*
X022517Y024290D01*
X022517Y024270D01*
X019037Y027770D02*
X016357Y025090D01*
X016357Y023330D01*
X016297Y023330D01*
X016277Y023330D01*
X016277Y015330D01*
X016297Y015330D01*
X015797Y014210D02*
X015757Y014210D01*
X015797Y014210D02*
X015797Y022210D01*
X015757Y022210D01*
X015717Y022210D01*
X015717Y023490D01*
X014497Y024710D01*
X014117Y025010D02*
X014117Y023330D01*
X014137Y023330D01*
X014117Y023330D02*
X014117Y015330D01*
X014137Y015330D01*
X013637Y014210D02*
X013597Y014210D01*
X013637Y014210D02*
X013637Y022210D01*
X013597Y022210D01*
X013077Y023330D02*
X013057Y023330D01*
X013077Y023330D02*
X013077Y025090D01*
X015717Y027730D01*
X015777Y027770D01*
X016437Y028210D02*
X009717Y028210D01*
X009717Y026610D01*
X009317Y026210D01*
X009317Y022210D01*
X009277Y022210D01*
X009317Y022210D02*
X009317Y014210D01*
X009277Y014210D01*
X008597Y013730D02*
X012997Y009330D01*
X012997Y008770D01*
X013557Y008210D01*
X013557Y006930D01*
X017717Y002770D01*
X017782Y002770D01*
X019717Y002770D02*
X019751Y002770D01*
X019717Y002770D02*
X015237Y007250D01*
X014597Y007250D01*
X014597Y008290D01*
X014037Y008850D01*
X014037Y009010D01*
X010517Y012530D01*
X010917Y010930D02*
X010917Y008690D01*
X011317Y008290D01*
X011317Y007250D01*
X015797Y002770D01*
X015814Y002770D01*
X013845Y002770D02*
X013797Y002770D01*
X009157Y007410D01*
X009157Y008290D01*
X008597Y008850D01*
X008597Y012930D01*
X010357Y014210D02*
X010357Y022210D01*
X009877Y023330D02*
X009817Y023330D01*
X009797Y023330D01*
X009797Y015330D01*
X009817Y015330D01*
X008757Y015330D02*
X008737Y015330D01*
X008757Y015330D02*
X008757Y023330D01*
X008737Y023330D01*
X009877Y023330D02*
X009877Y025090D01*
X012517Y027730D01*
X012517Y027770D01*
X013557Y027730D02*
X013607Y027770D01*
X013557Y027730D02*
X010917Y025090D01*
X010917Y023330D01*
X010897Y023330D01*
X010917Y023330D02*
X010917Y015330D01*
X010897Y015330D01*
X011437Y014210D02*
X011477Y014210D01*
X011477Y022210D01*
X011437Y022210D01*
X011957Y023330D02*
X011977Y023330D01*
X012037Y023330D01*
X012037Y025090D01*
X014677Y027730D01*
X014687Y027770D01*
X016437Y028210D02*
X016757Y028530D01*
X016757Y028770D01*
X017407Y028770D01*
X016867Y027770D02*
X016837Y027730D01*
X014117Y025010D01*
X014517Y023810D02*
X014677Y023650D01*
X014677Y022210D01*
X014677Y014210D01*
X015217Y015330D02*
X015237Y015330D01*
X015237Y023330D01*
X015217Y023330D01*
X013077Y023330D02*
X013077Y015330D01*
X013057Y015330D01*
X012517Y014210D02*
X012517Y022210D01*
X011957Y023330D02*
X011957Y015330D01*
X011977Y015330D01*
X008197Y018610D02*
X008197Y008850D01*
X008167Y008830D01*
X007797Y009490D02*
X007797Y017730D01*
X007237Y016690D02*
X007237Y010050D01*
X006037Y008850D01*
X005997Y008830D01*
X007087Y008830D02*
X007157Y008850D01*
X007797Y009490D01*
X008717Y007710D02*
X008757Y007650D01*
X008917Y007490D01*
X008917Y006610D01*
X013637Y001890D01*
X020597Y001890D01*
X020357Y007250D02*
X017237Y007250D01*
X016917Y007570D01*
X016917Y007730D01*
X016437Y008210D01*
X016437Y008770D01*
X015797Y008770D01*
X015777Y008830D01*
X015317Y009570D02*
X015317Y007810D01*
X015237Y007730D01*
X015237Y007710D01*
X015317Y009570D02*
X017397Y011650D01*
X017797Y011570D02*
X017477Y011250D01*
X017477Y007730D01*
X017407Y007710D01*
X018497Y007710D02*
X018517Y007730D01*
X020117Y007730D01*
X020117Y014210D01*
X021397Y015490D01*
X021397Y016610D01*
X021797Y015570D02*
X020357Y014130D01*
X020357Y007250D01*
X017797Y011570D02*
X017797Y015090D01*
X021707Y013640D02*
X022037Y013970D01*
X022517Y014270D02*
X022517Y014290D01*
X023477Y014290D01*
X023517Y014270D01*
X007751Y002770D02*
X007717Y002770D01*
X006277Y001330D01*
X001077Y001330D01*
X001077Y020850D01*
X001477Y021250D01*
X001517Y021270D01*
X001557Y021330D01*
X002517Y021330D01*
X002517Y021270D01*
X003237Y021490D02*
X002517Y022210D01*
X002517Y022270D01*
X002517Y022290D01*
X001557Y022290D01*
X001517Y022270D01*
X001517Y023270D02*
X001557Y023330D01*
X002517Y023330D01*
X002517Y023270D01*
X002517Y023250D01*
X003637Y022130D01*
X003637Y014130D01*
X004437Y013330D01*
X004437Y003330D01*
X003877Y002770D01*
X003814Y002770D01*
X003317Y002770D02*
X003317Y002210D01*
X003637Y001890D01*
X004677Y001890D01*
X004677Y014130D01*
X003877Y014930D01*
X003877Y022850D01*
X002517Y024210D01*
X002517Y024270D01*
X002517Y024290D01*
X001557Y024290D01*
X001517Y024270D01*
X003237Y021490D02*
X003237Y013010D01*
X002117Y011890D01*
X002117Y007810D01*
X002277Y007650D01*
X002277Y006210D01*
X001317Y005250D01*
X001317Y001650D01*
X004757Y001650D01*
X004917Y001810D01*
X004917Y001970D01*
X005717Y002770D01*
X005782Y002770D01*
X003317Y002770D02*
X001845Y002770D01*
X001877Y007090D02*
X001877Y011970D01*
X002997Y013090D01*
X002997Y019730D01*
X002517Y020210D01*
X002517Y020270D01*
X002517Y020290D01*
X001557Y020290D01*
X001517Y020270D01*
X001557Y019330D02*
X001517Y019270D01*
X001557Y019330D02*
X002517Y019330D01*
X002517Y019270D01*
X002517Y018290D02*
X002517Y018270D01*
X002517Y018290D02*
X001557Y018290D01*
X001517Y018270D01*
X001557Y017330D02*
X001517Y017270D01*
X001557Y017330D02*
X002517Y017330D01*
X002517Y017270D01*
X002517Y016290D02*
X002517Y016270D01*
X002517Y016290D02*
X001557Y016290D01*
X001517Y016270D01*
X001557Y015330D02*
X001517Y015270D01*
X001557Y015330D02*
X002517Y015330D01*
X002517Y015270D01*
X002517Y014290D02*
X002517Y014270D01*
X002517Y014290D02*
X001557Y014290D01*
X001517Y014270D01*
X001557Y013330D02*
X001517Y013270D01*
X001557Y013330D02*
X002517Y013330D01*
X002517Y013270D01*
D15*
X001877Y007090D03*
X008597Y012930D03*
X008597Y013730D03*
X010517Y012530D03*
X010917Y010930D03*
X007237Y016690D03*
X007797Y017730D03*
X008197Y018610D03*
X014517Y023810D03*
X014497Y024710D03*
X017797Y015090D03*
X017397Y011650D03*
X021397Y016610D03*
X021707Y013640D03*
M02*
