G75*
G70*
%OFA0B0*%
%FSLAX24Y24*%
%IPPOS*%
%LPD*%
%AMOC8*
5,1,8,0,0,1.08239X$1,22.5*
%
%ADD10C,0.0060*%
%ADD11C,0.0050*%
D10*
X003400Y005810D02*
X004250Y005810D01*
X005250Y005810D01*
X021950Y005810D01*
X022950Y005810D01*
X023800Y005810D01*
X023830Y005812D01*
X023860Y005817D01*
X023889Y005826D01*
X023916Y005839D01*
X023942Y005854D01*
X023966Y005873D01*
X023987Y005894D01*
X024006Y005918D01*
X024021Y005944D01*
X024034Y005971D01*
X024043Y006000D01*
X024048Y006030D01*
X024050Y006060D01*
X024050Y010460D01*
X024048Y010490D01*
X024043Y010520D01*
X024034Y010549D01*
X024021Y010576D01*
X024006Y010602D01*
X023987Y010626D01*
X023966Y010647D01*
X023942Y010666D01*
X023916Y010681D01*
X023889Y010694D01*
X023860Y010703D01*
X023830Y010708D01*
X023800Y010710D01*
X022950Y010710D01*
X021950Y010710D01*
X005250Y010710D01*
X004250Y010710D01*
X003400Y010710D01*
X003370Y010708D01*
X003340Y010703D01*
X003311Y010694D01*
X003284Y010681D01*
X003258Y010666D01*
X003234Y010647D01*
X003213Y010626D01*
X003194Y010602D01*
X003179Y010576D01*
X003166Y010549D01*
X003157Y010520D01*
X003152Y010490D01*
X003150Y010460D01*
X003150Y006060D01*
X003152Y006030D01*
X003157Y006000D01*
X003166Y005971D01*
X003179Y005944D01*
X003194Y005918D01*
X003213Y005894D01*
X003234Y005873D01*
X003258Y005854D01*
X003284Y005839D01*
X003311Y005826D01*
X003340Y005817D01*
X003370Y005812D01*
X003400Y005810D01*
X004250Y005810D02*
X004250Y005860D01*
X005250Y005860D01*
X005250Y005810D01*
X006290Y007100D02*
X005980Y009180D01*
X005980Y009176D02*
X005973Y009220D01*
X005970Y009265D01*
X005971Y009309D01*
X005975Y009354D01*
X005983Y009398D01*
X005995Y009441D01*
X006010Y009482D01*
X006029Y009523D01*
X006051Y009562D01*
X006076Y009598D01*
X006105Y009633D01*
X006136Y009665D01*
X006169Y009694D01*
X006205Y009721D01*
X006243Y009744D01*
X006283Y009764D01*
X006325Y009780D01*
X006368Y009793D01*
X006411Y009803D01*
X006455Y009808D01*
X006500Y009810D01*
X020700Y009810D01*
X020745Y009808D01*
X020790Y009802D01*
X020834Y009793D01*
X020877Y009780D01*
X020919Y009763D01*
X020959Y009743D01*
X020997Y009719D01*
X021033Y009692D01*
X021067Y009662D01*
X021098Y009630D01*
X021127Y009595D01*
X021152Y009557D01*
X021174Y009518D01*
X021192Y009477D01*
X021207Y009434D01*
X021218Y009391D01*
X021226Y009346D01*
X021230Y009301D01*
X021229Y009256D01*
X021226Y009211D01*
X021218Y009167D01*
X021220Y009170D02*
X020910Y007110D01*
X020915Y007116D02*
X020903Y007074D01*
X020888Y007032D01*
X020869Y006992D01*
X020846Y006954D01*
X020821Y006918D01*
X020793Y006884D01*
X020762Y006853D01*
X020728Y006824D01*
X020692Y006798D01*
X020654Y006775D01*
X020615Y006756D01*
X020574Y006739D01*
X020531Y006727D01*
X020488Y006717D01*
X020444Y006712D01*
X020400Y006710D01*
X006800Y006710D01*
X006756Y006712D01*
X006713Y006717D01*
X006671Y006726D01*
X006629Y006738D01*
X006588Y006754D01*
X006549Y006773D01*
X006511Y006796D01*
X006476Y006821D01*
X006442Y006849D01*
X006411Y006880D01*
X006383Y006913D01*
X006358Y006948D01*
X006335Y006985D01*
X006316Y007024D01*
X006300Y007065D01*
X006287Y007107D01*
X003690Y008260D02*
X003692Y008310D01*
X003698Y008360D01*
X003708Y008410D01*
X003721Y008458D01*
X003738Y008506D01*
X003759Y008552D01*
X003783Y008596D01*
X003811Y008638D01*
X003842Y008678D01*
X003876Y008715D01*
X003913Y008750D01*
X003952Y008781D01*
X003993Y008810D01*
X004037Y008835D01*
X004083Y008857D01*
X004130Y008875D01*
X004178Y008889D01*
X004227Y008900D01*
X004277Y008907D01*
X004327Y008910D01*
X004378Y008909D01*
X004428Y008904D01*
X004478Y008895D01*
X004526Y008883D01*
X004574Y008866D01*
X004620Y008846D01*
X004665Y008823D01*
X004708Y008796D01*
X004748Y008766D01*
X004786Y008733D01*
X004821Y008697D01*
X004854Y008658D01*
X004883Y008617D01*
X004909Y008574D01*
X004932Y008529D01*
X004951Y008482D01*
X004966Y008434D01*
X004978Y008385D01*
X004986Y008335D01*
X004990Y008285D01*
X004990Y008235D01*
X004986Y008185D01*
X004978Y008135D01*
X004966Y008086D01*
X004951Y008038D01*
X004932Y007991D01*
X004909Y007946D01*
X004883Y007903D01*
X004854Y007862D01*
X004821Y007823D01*
X004786Y007787D01*
X004748Y007754D01*
X004708Y007724D01*
X004665Y007697D01*
X004620Y007674D01*
X004574Y007654D01*
X004526Y007637D01*
X004478Y007625D01*
X004428Y007616D01*
X004378Y007611D01*
X004327Y007610D01*
X004277Y007613D01*
X004227Y007620D01*
X004178Y007631D01*
X004130Y007645D01*
X004083Y007663D01*
X004037Y007685D01*
X003993Y007710D01*
X003952Y007739D01*
X003913Y007770D01*
X003876Y007805D01*
X003842Y007842D01*
X003811Y007882D01*
X003783Y007924D01*
X003759Y007968D01*
X003738Y008014D01*
X003721Y008062D01*
X003708Y008110D01*
X003698Y008160D01*
X003692Y008210D01*
X003690Y008260D01*
X004250Y010660D02*
X005250Y010660D01*
X005250Y010710D01*
X004250Y010710D02*
X004250Y010660D01*
X006100Y013310D02*
X006950Y013310D01*
X007950Y013310D01*
X019250Y013310D01*
X020250Y013310D01*
X021100Y013310D01*
X021130Y013312D01*
X021160Y013317D01*
X021189Y013326D01*
X021216Y013339D01*
X021242Y013354D01*
X021266Y013373D01*
X021287Y013394D01*
X021306Y013418D01*
X021321Y013444D01*
X021334Y013471D01*
X021343Y013500D01*
X021348Y013530D01*
X021350Y013560D01*
X021350Y017960D01*
X021348Y017990D01*
X021343Y018020D01*
X021334Y018049D01*
X021321Y018076D01*
X021306Y018102D01*
X021287Y018126D01*
X021266Y018147D01*
X021242Y018166D01*
X021216Y018181D01*
X021189Y018194D01*
X021160Y018203D01*
X021130Y018208D01*
X021100Y018210D01*
X020250Y018210D01*
X019250Y018210D01*
X007950Y018210D01*
X006950Y018210D01*
X006100Y018210D01*
X006070Y018208D01*
X006040Y018203D01*
X006011Y018194D01*
X005984Y018181D01*
X005958Y018166D01*
X005934Y018147D01*
X005913Y018126D01*
X005894Y018102D01*
X005879Y018076D01*
X005866Y018049D01*
X005857Y018020D01*
X005852Y017990D01*
X005850Y017960D01*
X005850Y013560D01*
X005852Y013530D01*
X005857Y013500D01*
X005866Y013471D01*
X005879Y013444D01*
X005894Y013418D01*
X005913Y013394D01*
X005934Y013373D01*
X005958Y013354D01*
X005984Y013339D01*
X006011Y013326D01*
X006040Y013317D01*
X006070Y013312D01*
X006100Y013310D01*
X006950Y013310D02*
X006950Y013360D01*
X007950Y013360D01*
X007950Y013310D01*
X008990Y014600D02*
X008680Y016680D01*
X008680Y016676D02*
X008673Y016720D01*
X008670Y016765D01*
X008671Y016809D01*
X008675Y016854D01*
X008683Y016898D01*
X008695Y016941D01*
X008710Y016982D01*
X008729Y017023D01*
X008751Y017062D01*
X008776Y017098D01*
X008805Y017133D01*
X008836Y017165D01*
X008869Y017194D01*
X008905Y017221D01*
X008943Y017244D01*
X008983Y017264D01*
X009025Y017280D01*
X009068Y017293D01*
X009111Y017303D01*
X009155Y017308D01*
X009200Y017310D01*
X018000Y017310D01*
X018045Y017308D01*
X018090Y017302D01*
X018134Y017293D01*
X018177Y017280D01*
X018219Y017263D01*
X018259Y017243D01*
X018297Y017219D01*
X018333Y017192D01*
X018367Y017162D01*
X018398Y017130D01*
X018427Y017095D01*
X018452Y017057D01*
X018474Y017018D01*
X018492Y016977D01*
X018507Y016934D01*
X018518Y016891D01*
X018526Y016846D01*
X018530Y016801D01*
X018529Y016756D01*
X018526Y016711D01*
X018518Y016667D01*
X018520Y016670D02*
X018210Y014610D01*
X018215Y014616D02*
X018203Y014574D01*
X018188Y014532D01*
X018169Y014492D01*
X018146Y014454D01*
X018121Y014418D01*
X018093Y014384D01*
X018062Y014353D01*
X018028Y014324D01*
X017992Y014298D01*
X017954Y014275D01*
X017915Y014256D01*
X017874Y014239D01*
X017831Y014227D01*
X017788Y014217D01*
X017744Y014212D01*
X017700Y014210D01*
X009500Y014210D01*
X009456Y014212D01*
X009413Y014217D01*
X009371Y014226D01*
X009329Y014238D01*
X009288Y014254D01*
X009249Y014273D01*
X009211Y014296D01*
X009176Y014321D01*
X009142Y014349D01*
X009111Y014380D01*
X009083Y014413D01*
X009058Y014448D01*
X009035Y014485D01*
X009016Y014524D01*
X009000Y014565D01*
X008987Y014607D01*
X006390Y015760D02*
X006392Y015810D01*
X006398Y015860D01*
X006408Y015910D01*
X006421Y015958D01*
X006438Y016006D01*
X006459Y016052D01*
X006483Y016096D01*
X006511Y016138D01*
X006542Y016178D01*
X006576Y016215D01*
X006613Y016250D01*
X006652Y016281D01*
X006693Y016310D01*
X006737Y016335D01*
X006783Y016357D01*
X006830Y016375D01*
X006878Y016389D01*
X006927Y016400D01*
X006977Y016407D01*
X007027Y016410D01*
X007078Y016409D01*
X007128Y016404D01*
X007178Y016395D01*
X007226Y016383D01*
X007274Y016366D01*
X007320Y016346D01*
X007365Y016323D01*
X007408Y016296D01*
X007448Y016266D01*
X007486Y016233D01*
X007521Y016197D01*
X007554Y016158D01*
X007583Y016117D01*
X007609Y016074D01*
X007632Y016029D01*
X007651Y015982D01*
X007666Y015934D01*
X007678Y015885D01*
X007686Y015835D01*
X007690Y015785D01*
X007690Y015735D01*
X007686Y015685D01*
X007678Y015635D01*
X007666Y015586D01*
X007651Y015538D01*
X007632Y015491D01*
X007609Y015446D01*
X007583Y015403D01*
X007554Y015362D01*
X007521Y015323D01*
X007486Y015287D01*
X007448Y015254D01*
X007408Y015224D01*
X007365Y015197D01*
X007320Y015174D01*
X007274Y015154D01*
X007226Y015137D01*
X007178Y015125D01*
X007128Y015116D01*
X007078Y015111D01*
X007027Y015110D01*
X006977Y015113D01*
X006927Y015120D01*
X006878Y015131D01*
X006830Y015145D01*
X006783Y015163D01*
X006737Y015185D01*
X006693Y015210D01*
X006652Y015239D01*
X006613Y015270D01*
X006576Y015305D01*
X006542Y015342D01*
X006511Y015382D01*
X006483Y015424D01*
X006459Y015468D01*
X006438Y015514D01*
X006421Y015562D01*
X006408Y015610D01*
X006398Y015660D01*
X006392Y015710D01*
X006390Y015760D01*
X006950Y018160D02*
X007950Y018160D01*
X007950Y018210D01*
X006950Y018210D02*
X006950Y018160D01*
X010630Y018790D02*
X010630Y019431D01*
X010950Y019431D01*
X011057Y019324D01*
X011057Y019110D01*
X010950Y019004D01*
X010630Y019004D01*
X011275Y019004D02*
X011488Y019217D01*
X011595Y019217D01*
X011812Y019110D02*
X011812Y018897D01*
X011918Y018790D01*
X012132Y018790D01*
X012239Y018897D01*
X012239Y019110D01*
X012132Y019217D01*
X011918Y019217D01*
X011812Y019110D01*
X011275Y019217D02*
X011275Y018790D01*
X012456Y018576D02*
X012563Y018576D01*
X012670Y018683D01*
X012670Y019217D01*
X012670Y019431D02*
X012670Y019537D01*
X012993Y019217D02*
X013206Y019217D01*
X013313Y019110D01*
X013313Y019004D01*
X012886Y019004D01*
X012886Y019110D02*
X012993Y019217D01*
X012886Y019110D02*
X012886Y018897D01*
X012993Y018790D01*
X013206Y018790D01*
X013530Y018897D02*
X013637Y018790D01*
X013958Y018790D01*
X014282Y018897D02*
X014389Y018790D01*
X014282Y018897D02*
X014282Y019324D01*
X014175Y019217D02*
X014389Y019217D01*
X014605Y019110D02*
X014605Y018897D01*
X014711Y018790D01*
X014925Y018790D01*
X015032Y018897D01*
X015032Y019110D01*
X014925Y019217D01*
X014711Y019217D01*
X014605Y019110D01*
X013958Y019217D02*
X013637Y019217D01*
X013530Y019110D01*
X013530Y018897D01*
X015249Y019004D02*
X015463Y019217D01*
X015570Y019217D01*
X015249Y019217D02*
X015249Y018790D01*
X016431Y018790D02*
X016858Y018790D01*
X016644Y018790D02*
X016644Y019431D01*
X016431Y019217D01*
X019250Y018210D02*
X019250Y018160D01*
X020250Y018160D01*
X020250Y018210D01*
X019510Y015760D02*
X019512Y015810D01*
X019518Y015860D01*
X019528Y015910D01*
X019541Y015958D01*
X019558Y016006D01*
X019579Y016052D01*
X019603Y016096D01*
X019631Y016138D01*
X019662Y016178D01*
X019696Y016215D01*
X019733Y016250D01*
X019772Y016281D01*
X019813Y016310D01*
X019857Y016335D01*
X019903Y016357D01*
X019950Y016375D01*
X019998Y016389D01*
X020047Y016400D01*
X020097Y016407D01*
X020147Y016410D01*
X020198Y016409D01*
X020248Y016404D01*
X020298Y016395D01*
X020346Y016383D01*
X020394Y016366D01*
X020440Y016346D01*
X020485Y016323D01*
X020528Y016296D01*
X020568Y016266D01*
X020606Y016233D01*
X020641Y016197D01*
X020674Y016158D01*
X020703Y016117D01*
X020729Y016074D01*
X020752Y016029D01*
X020771Y015982D01*
X020786Y015934D01*
X020798Y015885D01*
X020806Y015835D01*
X020810Y015785D01*
X020810Y015735D01*
X020806Y015685D01*
X020798Y015635D01*
X020786Y015586D01*
X020771Y015538D01*
X020752Y015491D01*
X020729Y015446D01*
X020703Y015403D01*
X020674Y015362D01*
X020641Y015323D01*
X020606Y015287D01*
X020568Y015254D01*
X020528Y015224D01*
X020485Y015197D01*
X020440Y015174D01*
X020394Y015154D01*
X020346Y015137D01*
X020298Y015125D01*
X020248Y015116D01*
X020198Y015111D01*
X020147Y015110D01*
X020097Y015113D01*
X020047Y015120D01*
X019998Y015131D01*
X019950Y015145D01*
X019903Y015163D01*
X019857Y015185D01*
X019813Y015210D01*
X019772Y015239D01*
X019733Y015270D01*
X019696Y015305D01*
X019662Y015342D01*
X019631Y015382D01*
X019603Y015424D01*
X019579Y015468D01*
X019558Y015514D01*
X019541Y015562D01*
X019528Y015610D01*
X019518Y015660D01*
X019512Y015710D01*
X019510Y015760D01*
X019250Y013360D02*
X020250Y013360D01*
X020250Y013310D01*
X019250Y013310D02*
X019250Y013360D01*
X017184Y011290D02*
X016757Y011290D01*
X016971Y011290D02*
X016971Y011931D01*
X016757Y011717D01*
X015896Y011290D02*
X015683Y011290D01*
X015790Y011290D02*
X015790Y011931D01*
X015683Y011931D01*
X015465Y011610D02*
X015359Y011717D01*
X015145Y011717D01*
X015038Y011610D01*
X015038Y011397D01*
X015145Y011290D01*
X015359Y011290D01*
X015465Y011397D01*
X015465Y011610D01*
X014822Y011717D02*
X014715Y011717D01*
X014501Y011504D01*
X014501Y011717D02*
X014501Y011290D01*
X014285Y011290D02*
X014178Y011397D01*
X014178Y011824D01*
X014072Y011717D02*
X014285Y011717D01*
X013854Y011610D02*
X013854Y011290D01*
X013854Y011610D02*
X013747Y011717D01*
X013427Y011717D01*
X013427Y011290D01*
X013209Y011397D02*
X013209Y011610D01*
X013103Y011717D01*
X012889Y011717D01*
X012782Y011610D01*
X012782Y011397D01*
X012889Y011290D01*
X013103Y011290D01*
X013209Y011397D01*
X012565Y011397D02*
X012458Y011290D01*
X012245Y011290D01*
X012138Y011397D01*
X012138Y011824D01*
X012245Y011931D01*
X012458Y011931D01*
X012565Y011824D01*
X011276Y011610D02*
X011276Y011290D01*
X011276Y011610D02*
X011169Y011717D01*
X010849Y011717D01*
X010849Y011290D01*
X010633Y011290D02*
X010419Y011290D01*
X010526Y011290D02*
X010526Y011717D01*
X010419Y011717D01*
X010526Y011931D02*
X010526Y012037D01*
X010095Y011717D02*
X010202Y011610D01*
X010202Y011290D01*
X009881Y011290D01*
X009775Y011397D01*
X009881Y011504D01*
X010202Y011504D01*
X010095Y011717D02*
X009881Y011717D01*
X009557Y011931D02*
X009557Y011290D01*
X009130Y011290D02*
X009130Y011931D01*
X009344Y011717D01*
X009557Y011931D01*
X021950Y010710D02*
X021950Y010660D01*
X022950Y010660D01*
X022950Y010710D01*
X022210Y008260D02*
X022212Y008310D01*
X022218Y008360D01*
X022228Y008410D01*
X022241Y008458D01*
X022258Y008506D01*
X022279Y008552D01*
X022303Y008596D01*
X022331Y008638D01*
X022362Y008678D01*
X022396Y008715D01*
X022433Y008750D01*
X022472Y008781D01*
X022513Y008810D01*
X022557Y008835D01*
X022603Y008857D01*
X022650Y008875D01*
X022698Y008889D01*
X022747Y008900D01*
X022797Y008907D01*
X022847Y008910D01*
X022898Y008909D01*
X022948Y008904D01*
X022998Y008895D01*
X023046Y008883D01*
X023094Y008866D01*
X023140Y008846D01*
X023185Y008823D01*
X023228Y008796D01*
X023268Y008766D01*
X023306Y008733D01*
X023341Y008697D01*
X023374Y008658D01*
X023403Y008617D01*
X023429Y008574D01*
X023452Y008529D01*
X023471Y008482D01*
X023486Y008434D01*
X023498Y008385D01*
X023506Y008335D01*
X023510Y008285D01*
X023510Y008235D01*
X023506Y008185D01*
X023498Y008135D01*
X023486Y008086D01*
X023471Y008038D01*
X023452Y007991D01*
X023429Y007946D01*
X023403Y007903D01*
X023374Y007862D01*
X023341Y007823D01*
X023306Y007787D01*
X023268Y007754D01*
X023228Y007724D01*
X023185Y007697D01*
X023140Y007674D01*
X023094Y007654D01*
X023046Y007637D01*
X022998Y007625D01*
X022948Y007616D01*
X022898Y007611D01*
X022847Y007610D01*
X022797Y007613D01*
X022747Y007620D01*
X022698Y007631D01*
X022650Y007645D01*
X022603Y007663D01*
X022557Y007685D01*
X022513Y007710D01*
X022472Y007739D01*
X022433Y007770D01*
X022396Y007805D01*
X022362Y007842D01*
X022331Y007882D01*
X022303Y007924D01*
X022279Y007968D01*
X022258Y008014D01*
X022241Y008062D01*
X022228Y008110D01*
X022218Y008160D01*
X022212Y008210D01*
X022210Y008260D01*
X021950Y005860D02*
X022950Y005860D01*
X022950Y005810D01*
X021950Y005810D02*
X021950Y005860D01*
D11*
X019804Y006885D02*
X019804Y007225D01*
X019634Y007055D01*
X019861Y007055D01*
X019502Y006885D02*
X019275Y006885D01*
X019388Y006885D02*
X019388Y007225D01*
X019275Y007112D01*
X018761Y007055D02*
X018761Y006942D01*
X018704Y006885D01*
X018591Y006885D01*
X018534Y006942D01*
X018534Y007055D02*
X018648Y007112D01*
X018704Y007112D01*
X018761Y007055D01*
X018761Y007225D02*
X018534Y007225D01*
X018534Y007055D01*
X018402Y006885D02*
X018175Y006885D01*
X018288Y006885D02*
X018288Y007225D01*
X018175Y007112D01*
X017661Y007225D02*
X017548Y007169D01*
X017434Y007055D01*
X017604Y007055D01*
X017661Y006998D01*
X017661Y006942D01*
X017604Y006885D01*
X017491Y006885D01*
X017434Y006942D01*
X017434Y007055D01*
X017302Y006885D02*
X017075Y006885D01*
X017188Y006885D02*
X017188Y007225D01*
X017075Y007112D01*
X016561Y007169D02*
X016334Y006942D01*
X016334Y006885D01*
X016202Y006885D02*
X015975Y006885D01*
X016088Y006885D02*
X016088Y007225D01*
X015975Y007112D01*
X016334Y007225D02*
X016561Y007225D01*
X016561Y007169D01*
X015511Y007169D02*
X015511Y007112D01*
X015454Y007055D01*
X015341Y007055D01*
X015284Y007112D01*
X015284Y007169D01*
X015341Y007225D01*
X015454Y007225D01*
X015511Y007169D01*
X015454Y007055D02*
X015511Y006998D01*
X015511Y006942D01*
X015454Y006885D01*
X015341Y006885D01*
X015284Y006942D01*
X015284Y006998D01*
X015341Y007055D01*
X015152Y006885D02*
X014925Y006885D01*
X015038Y006885D02*
X015038Y007225D01*
X014925Y007112D01*
X014461Y007169D02*
X014404Y007225D01*
X014291Y007225D01*
X014234Y007169D01*
X014234Y007112D01*
X014291Y007055D01*
X014461Y007055D01*
X014461Y006942D02*
X014461Y007169D01*
X014461Y006942D02*
X014404Y006885D01*
X014291Y006885D01*
X014234Y006942D01*
X014102Y006885D02*
X013875Y006885D01*
X013988Y006885D02*
X013988Y007225D01*
X013875Y007112D01*
X013311Y007169D02*
X013084Y006942D01*
X013141Y006885D01*
X013254Y006885D01*
X013311Y006942D01*
X013311Y007169D01*
X013254Y007225D01*
X013141Y007225D01*
X013084Y007169D01*
X013084Y006942D01*
X012952Y006885D02*
X012725Y006885D01*
X012952Y007112D01*
X012952Y007169D01*
X012895Y007225D01*
X012782Y007225D01*
X012725Y007169D01*
X012261Y006885D02*
X012034Y006885D01*
X012148Y006885D02*
X012148Y007225D01*
X012034Y007112D01*
X011902Y007112D02*
X011675Y006885D01*
X011902Y006885D01*
X011902Y007112D02*
X011902Y007169D01*
X011845Y007225D01*
X011732Y007225D01*
X011675Y007169D01*
X011211Y007169D02*
X011154Y007225D01*
X011041Y007225D01*
X010984Y007169D01*
X010852Y007169D02*
X010795Y007225D01*
X010682Y007225D01*
X010625Y007169D01*
X010852Y007169D02*
X010852Y007112D01*
X010625Y006885D01*
X010852Y006885D01*
X010984Y006885D02*
X011211Y007112D01*
X011211Y007169D01*
X011211Y006885D02*
X010984Y006885D01*
X010111Y006942D02*
X010054Y006885D01*
X009941Y006885D01*
X009884Y006942D01*
X009752Y006885D02*
X009525Y006885D01*
X009752Y007112D01*
X009752Y007169D01*
X009695Y007225D01*
X009582Y007225D01*
X009525Y007169D01*
X009884Y007169D02*
X009941Y007225D01*
X010054Y007225D01*
X010111Y007169D01*
X010111Y007112D01*
X010054Y007055D01*
X010111Y006998D01*
X010111Y006942D01*
X010054Y007055D02*
X009998Y007055D01*
X008961Y007055D02*
X008734Y007055D01*
X008904Y007225D01*
X008904Y006885D01*
X008602Y006885D02*
X008375Y006885D01*
X008602Y007112D01*
X008602Y007169D01*
X008545Y007225D01*
X008432Y007225D01*
X008375Y007169D01*
X007861Y007225D02*
X007634Y007225D01*
X007634Y007055D01*
X007748Y007112D01*
X007804Y007112D01*
X007861Y007055D01*
X007861Y006942D01*
X007804Y006885D01*
X007691Y006885D01*
X007634Y006942D01*
X007502Y006885D02*
X007275Y006885D01*
X007502Y007112D01*
X007502Y007169D01*
X007445Y007225D01*
X007332Y007225D01*
X007275Y007169D01*
X007241Y009285D02*
X007184Y009342D01*
X007241Y009285D02*
X007354Y009285D01*
X007411Y009342D01*
X007411Y009398D01*
X007354Y009455D01*
X007298Y009455D01*
X007354Y009455D02*
X007411Y009512D01*
X007411Y009569D01*
X007354Y009625D01*
X007241Y009625D01*
X007184Y009569D01*
X006938Y009625D02*
X006938Y009285D01*
X006825Y009285D02*
X007052Y009285D01*
X006825Y009512D02*
X006938Y009625D01*
X007925Y009512D02*
X008038Y009625D01*
X008038Y009285D01*
X007925Y009285D02*
X008152Y009285D01*
X008284Y009285D02*
X008511Y009512D01*
X008511Y009569D01*
X008454Y009625D01*
X008341Y009625D01*
X008284Y009569D01*
X008284Y009285D02*
X008511Y009285D01*
X009025Y009285D02*
X009252Y009285D01*
X009138Y009285D02*
X009138Y009625D01*
X009025Y009512D01*
X009384Y009512D02*
X009498Y009625D01*
X009498Y009285D01*
X009611Y009285D02*
X009384Y009285D01*
X010075Y009285D02*
X010302Y009285D01*
X010188Y009285D02*
X010188Y009625D01*
X010075Y009512D01*
X010434Y009569D02*
X010491Y009625D01*
X010604Y009625D01*
X010661Y009569D01*
X010434Y009342D01*
X010491Y009285D01*
X010604Y009285D01*
X010661Y009342D01*
X010661Y009569D01*
X010434Y009569D02*
X010434Y009342D01*
X011275Y009342D02*
X011332Y009285D01*
X011445Y009285D01*
X011502Y009342D01*
X011502Y009569D01*
X011445Y009625D01*
X011332Y009625D01*
X011275Y009569D01*
X011275Y009512D01*
X011332Y009455D01*
X011502Y009455D01*
X012375Y009398D02*
X012432Y009455D01*
X012545Y009455D01*
X012602Y009398D01*
X012602Y009342D01*
X012545Y009285D01*
X012432Y009285D01*
X012375Y009342D01*
X012375Y009398D01*
X012432Y009455D02*
X012375Y009512D01*
X012375Y009569D01*
X012432Y009625D01*
X012545Y009625D01*
X012602Y009569D01*
X012602Y009512D01*
X012545Y009455D01*
X013475Y009342D02*
X013475Y009285D01*
X013475Y009342D02*
X013702Y009569D01*
X013702Y009625D01*
X013475Y009625D01*
X014525Y009455D02*
X014695Y009455D01*
X014752Y009398D01*
X014752Y009342D01*
X014695Y009285D01*
X014582Y009285D01*
X014525Y009342D01*
X014525Y009455D01*
X014638Y009569D01*
X014752Y009625D01*
X015625Y009625D02*
X015625Y009455D01*
X015738Y009512D01*
X015795Y009512D01*
X015852Y009455D01*
X015852Y009342D01*
X015795Y009285D01*
X015682Y009285D01*
X015625Y009342D01*
X015625Y009625D02*
X015852Y009625D01*
X016725Y009455D02*
X016952Y009455D01*
X016895Y009285D02*
X016895Y009625D01*
X016725Y009455D01*
X017825Y009342D02*
X017882Y009285D01*
X017995Y009285D01*
X018052Y009342D01*
X018052Y009398D01*
X017995Y009455D01*
X017938Y009455D01*
X017995Y009455D02*
X018052Y009512D01*
X018052Y009569D01*
X017995Y009625D01*
X017882Y009625D01*
X017825Y009569D01*
X018875Y009569D02*
X018932Y009625D01*
X019045Y009625D01*
X019102Y009569D01*
X019102Y009512D01*
X018875Y009285D01*
X019102Y009285D01*
X020025Y009285D02*
X020252Y009285D01*
X020138Y009285D02*
X020138Y009625D01*
X020025Y009512D01*
X016885Y014385D02*
X016772Y014385D01*
X016715Y014442D01*
X016772Y014555D02*
X016942Y014555D01*
X016942Y014442D02*
X016942Y014669D01*
X016885Y014725D01*
X016772Y014725D01*
X016715Y014669D01*
X016715Y014612D01*
X016772Y014555D01*
X016885Y014385D02*
X016942Y014442D01*
X016061Y014442D02*
X016004Y014385D01*
X015891Y014385D01*
X015834Y014442D01*
X016061Y014669D01*
X016061Y014442D01*
X016061Y014669D02*
X016004Y014725D01*
X015891Y014725D01*
X015834Y014669D01*
X015834Y014442D01*
X015702Y014385D02*
X015475Y014385D01*
X015588Y014385D02*
X015588Y014725D01*
X015475Y014612D01*
X015011Y014385D02*
X014784Y014385D01*
X014898Y014385D02*
X014898Y014725D01*
X014784Y014612D01*
X014652Y014385D02*
X014425Y014385D01*
X014538Y014385D02*
X014538Y014725D01*
X014425Y014612D01*
X013911Y014612D02*
X013911Y014669D01*
X013854Y014725D01*
X013741Y014725D01*
X013684Y014669D01*
X013911Y014612D02*
X013684Y014385D01*
X013911Y014385D01*
X013552Y014385D02*
X013325Y014385D01*
X013438Y014385D02*
X013438Y014725D01*
X013325Y014612D01*
X012811Y014612D02*
X012754Y014555D01*
X012811Y014498D01*
X012811Y014442D01*
X012754Y014385D01*
X012641Y014385D01*
X012584Y014442D01*
X012452Y014385D02*
X012225Y014385D01*
X012338Y014385D02*
X012338Y014725D01*
X012225Y014612D01*
X012584Y014669D02*
X012641Y014725D01*
X012754Y014725D01*
X012811Y014669D01*
X012811Y014612D01*
X012754Y014555D02*
X012698Y014555D01*
X011711Y014555D02*
X011484Y014555D01*
X011654Y014725D01*
X011654Y014385D01*
X011352Y014385D02*
X011125Y014385D01*
X011238Y014385D02*
X011238Y014725D01*
X011125Y014612D01*
X010661Y014555D02*
X010661Y014442D01*
X010604Y014385D01*
X010491Y014385D01*
X010434Y014442D01*
X010434Y014555D02*
X010548Y014612D01*
X010604Y014612D01*
X010661Y014555D01*
X010661Y014725D02*
X010434Y014725D01*
X010434Y014555D01*
X010302Y014385D02*
X010075Y014385D01*
X010188Y014385D02*
X010188Y014725D01*
X010075Y014612D01*
X009785Y016785D02*
X009672Y016785D01*
X009615Y016842D01*
X009615Y016898D01*
X009672Y016955D01*
X009785Y016955D01*
X009842Y016898D01*
X009842Y016842D01*
X009785Y016785D01*
X009785Y016955D02*
X009842Y017012D01*
X009842Y017069D01*
X009785Y017125D01*
X009672Y017125D01*
X009615Y017069D01*
X009615Y017012D01*
X009672Y016955D01*
X010715Y016842D02*
X010715Y016785D01*
X010715Y016842D02*
X010942Y017069D01*
X010942Y017125D01*
X010715Y017125D01*
X011815Y016955D02*
X011985Y016955D01*
X012042Y016898D01*
X012042Y016842D01*
X011985Y016785D01*
X011872Y016785D01*
X011815Y016842D01*
X011815Y016955D01*
X011928Y017069D01*
X012042Y017125D01*
X012915Y017125D02*
X012915Y016955D01*
X013028Y017012D01*
X013085Y017012D01*
X013142Y016955D01*
X013142Y016842D01*
X013085Y016785D01*
X012972Y016785D01*
X012915Y016842D01*
X012915Y017125D02*
X013142Y017125D01*
X014015Y016955D02*
X014242Y016955D01*
X014185Y016785D02*
X014185Y017125D01*
X014015Y016955D01*
X015065Y016842D02*
X015122Y016785D01*
X015235Y016785D01*
X015292Y016842D01*
X015292Y016898D01*
X015235Y016955D01*
X015178Y016955D01*
X015235Y016955D02*
X015292Y017012D01*
X015292Y017069D01*
X015235Y017125D01*
X015122Y017125D01*
X015065Y017069D01*
X016165Y017069D02*
X016222Y017125D01*
X016335Y017125D01*
X016392Y017069D01*
X016392Y017012D01*
X016165Y016785D01*
X016392Y016785D01*
X017265Y016785D02*
X017492Y016785D01*
X017378Y016785D02*
X017378Y017125D01*
X017265Y017012D01*
M02*
