G75*
G70*
%OFA0B0*%
%FSLAX24Y24*%
%IPPOS*%
%LPD*%
%AMOC8*
5,1,8,0,0,1.08239X$1,22.5*
%
%ADD10C,0.0000*%
%ADD11OC8,0.0600*%
%ADD12C,0.2000*%
%ADD13C,0.0705*%
%ADD14C,0.0100*%
%ADD15C,0.0400*%
D10*
X000100Y000760D02*
X000100Y026756D01*
X026970Y026756D01*
X026970Y000760D01*
X000100Y000760D01*
D11*
X007080Y008820D03*
X008170Y008820D03*
X009250Y008820D03*
X010340Y008820D03*
X011430Y008820D03*
X012510Y008820D03*
X013600Y008820D03*
X014690Y008820D03*
X015770Y008820D03*
X016860Y008820D03*
X017950Y008820D03*
X019030Y008820D03*
X020120Y008820D03*
X019580Y007700D03*
X018490Y007700D03*
X017400Y007700D03*
X016320Y007700D03*
X015230Y007700D03*
X014140Y007700D03*
X013060Y007700D03*
X011970Y007700D03*
X010880Y007700D03*
X009800Y007700D03*
X008710Y007700D03*
X007620Y007700D03*
X002100Y010260D03*
X002100Y011260D03*
X002100Y012260D03*
X001100Y012260D03*
X001100Y011260D03*
X001100Y010260D03*
X001100Y013260D03*
X001100Y014260D03*
X001100Y015260D03*
X002100Y015260D03*
X002100Y014260D03*
X002100Y013260D03*
X002100Y016260D03*
X002100Y017260D03*
X002100Y018260D03*
X001100Y018260D03*
X001100Y017260D03*
X001100Y016260D03*
X001100Y019260D03*
X001100Y020260D03*
X002100Y020260D03*
X002100Y019260D03*
X002100Y021260D03*
X001100Y021260D03*
X007080Y022260D03*
X007620Y023260D03*
X008170Y022260D03*
X008710Y023260D03*
X009250Y022260D03*
X009800Y023260D03*
X010340Y022260D03*
X010880Y023260D03*
X011430Y022260D03*
X011970Y023260D03*
X012510Y022260D03*
X013060Y023260D03*
X013600Y022260D03*
X014140Y023260D03*
X014690Y022260D03*
X015230Y023260D03*
X015770Y022260D03*
X016320Y023260D03*
X016860Y022260D03*
X017400Y023260D03*
X017950Y022260D03*
X018490Y023260D03*
X019030Y022260D03*
X019580Y023260D03*
X020120Y022260D03*
X025100Y021760D03*
X025100Y020760D03*
X025100Y019760D03*
X025100Y018760D03*
X025100Y017760D03*
X025100Y016760D03*
X025100Y015760D03*
X025100Y014760D03*
X025100Y013760D03*
X025100Y012760D03*
X025100Y011760D03*
X025100Y010760D03*
X025100Y009760D03*
X026100Y009760D03*
X026100Y010760D03*
X026100Y011760D03*
X026100Y012760D03*
X026100Y013760D03*
X026100Y014760D03*
X026100Y015760D03*
X026100Y016760D03*
X026100Y017760D03*
X026100Y018760D03*
X026100Y019760D03*
X026100Y020760D03*
X026100Y021760D03*
X026100Y022760D03*
X025100Y022760D03*
X017380Y016320D03*
X016300Y016320D03*
X015220Y016320D03*
X014140Y016320D03*
X013060Y016320D03*
X011980Y016320D03*
X010900Y016320D03*
X009820Y016320D03*
X010360Y015200D03*
X011440Y015200D03*
X012520Y015200D03*
X013600Y015200D03*
X014680Y015200D03*
X015760Y015200D03*
X016840Y015200D03*
D12*
X020160Y015760D03*
X022860Y022760D03*
X022860Y008260D03*
X007040Y015760D03*
X004340Y022760D03*
X004340Y008260D03*
D13*
X004647Y003113D02*
X004647Y002408D01*
X006616Y002408D02*
X006616Y003113D01*
X008584Y003113D02*
X008584Y002408D01*
X010553Y002408D02*
X010553Y003113D01*
X012521Y003113D02*
X012521Y002408D01*
X014679Y002408D02*
X014679Y003113D01*
X016647Y003113D02*
X016647Y002408D01*
X018616Y002408D02*
X018616Y003113D01*
X020584Y003113D02*
X020584Y002408D01*
X022553Y002408D02*
X022553Y003113D01*
X024521Y003113D02*
X024521Y002408D01*
X002679Y002408D02*
X002679Y003113D01*
D14*
X002780Y002840D02*
X002700Y002760D01*
X002679Y002760D01*
X002780Y002840D02*
X002780Y020600D01*
X002140Y021240D01*
X002100Y021260D01*
X002060Y021320D01*
X001100Y021320D01*
X001100Y021260D01*
X001100Y020280D02*
X001100Y020260D01*
X001100Y020280D02*
X002060Y020280D01*
X002100Y020260D01*
X002140Y020200D01*
X002540Y019800D01*
X002540Y010040D01*
X002140Y009640D01*
X002140Y001880D01*
X002860Y001880D01*
X003180Y002200D01*
X003180Y002760D01*
X004647Y002760D01*
X005900Y005400D02*
X005900Y014920D01*
X005500Y015000D02*
X006220Y015720D01*
X007040Y015760D01*
X007020Y015720D01*
X006220Y015720D01*
X006220Y020920D01*
X004380Y022760D01*
X004340Y022760D01*
X007080Y022260D02*
X007100Y022200D01*
X007100Y017800D01*
X008060Y016840D01*
X009340Y017960D02*
X009340Y015560D01*
X011180Y013720D01*
X011180Y009080D01*
X011420Y008840D01*
X011430Y008820D01*
X011510Y007240D02*
X015180Y003320D01*
X015180Y001640D01*
X019980Y001640D01*
X020140Y001800D01*
X020140Y002360D01*
X020540Y002760D01*
X020584Y002760D01*
X019900Y003640D02*
X019900Y001880D01*
X016460Y001880D01*
X016140Y002200D01*
X016140Y006760D01*
X015260Y007640D01*
X015230Y007700D01*
X015660Y007720D02*
X015660Y008280D01*
X015180Y008760D01*
X015180Y012120D01*
X014140Y012120D02*
X016370Y014600D01*
X016380Y015160D02*
X016380Y015720D01*
X016940Y016280D01*
X016940Y018360D01*
X017420Y019560D02*
X017420Y016360D01*
X017380Y016320D01*
X017420Y015000D02*
X017420Y012200D01*
X016460Y011240D01*
X016860Y008820D02*
X016860Y008760D01*
X017500Y008760D01*
X017500Y008600D01*
X017740Y008360D01*
X018540Y008360D01*
X018540Y013160D01*
X019980Y014600D01*
X023420Y014600D01*
X023420Y021080D01*
X025100Y022760D01*
X026100Y022760D01*
X026060Y021800D02*
X025100Y021800D01*
X025100Y021760D01*
X025100Y021720D01*
X024380Y021000D01*
X024380Y011880D01*
X021900Y009400D01*
X021500Y007720D02*
X021500Y011640D01*
X023980Y014120D01*
X024620Y013320D02*
X024620Y017240D01*
X025100Y017720D01*
X025100Y017760D01*
X025100Y017800D01*
X026060Y017800D01*
X026100Y017760D01*
X026100Y018760D02*
X025100Y018760D01*
X025100Y019760D02*
X025100Y019800D01*
X026060Y019800D01*
X026100Y019760D01*
X026100Y020760D02*
X025100Y020760D01*
X026100Y021760D02*
X026060Y021800D01*
X026060Y015800D02*
X025100Y015800D01*
X025100Y015760D01*
X025100Y014760D02*
X026100Y014760D01*
X026060Y013800D02*
X026100Y013760D01*
X026060Y013800D02*
X025100Y013800D01*
X025100Y013760D01*
X025180Y013320D02*
X024620Y013320D01*
X025100Y012760D02*
X024620Y012280D01*
X024620Y010440D01*
X023830Y009400D01*
X025660Y009400D02*
X025660Y011160D01*
X025100Y011720D01*
X025100Y011760D01*
X025500Y012280D02*
X025580Y012360D01*
X025580Y012920D01*
X025180Y013320D01*
X026100Y011760D02*
X025660Y011320D01*
X025660Y011160D01*
X025660Y009400D02*
X019900Y003640D01*
X016647Y002760D02*
X016620Y002760D01*
X016380Y003000D01*
X016380Y007000D01*
X015660Y007720D01*
X014220Y007800D02*
X014140Y007720D01*
X014140Y007700D01*
X014220Y007800D02*
X014220Y010200D01*
X013010Y009400D02*
X011420Y011240D01*
X011420Y014600D01*
X010860Y015160D01*
X010860Y015720D01*
X010300Y016280D01*
X010300Y020600D01*
X008780Y022120D01*
X008780Y023240D01*
X008710Y023260D01*
X009800Y023260D02*
X009820Y023320D01*
X009820Y023720D01*
X013260Y023720D01*
X013500Y023480D01*
X013500Y023240D01*
X013820Y022920D01*
X013820Y022760D01*
X017020Y022760D01*
X017340Y022440D01*
X017340Y022200D01*
X017820Y021720D01*
X017820Y008920D01*
X017900Y008840D01*
X017950Y008820D01*
X018490Y007700D02*
X018540Y007720D01*
X019660Y008840D01*
X019660Y013400D01*
X020060Y013880D02*
X020060Y008840D01*
X020120Y008820D01*
X019580Y007720D02*
X019580Y007700D01*
X019580Y007720D02*
X021500Y007720D01*
X018220Y014200D02*
X019020Y015000D01*
X019020Y017560D01*
X019580Y018120D01*
X019580Y023260D01*
X019030Y022260D02*
X019020Y022200D01*
X019020Y018360D01*
X018220Y017560D01*
X016380Y015160D02*
X013660Y012440D01*
X013660Y008840D01*
X013600Y008820D01*
X010780Y011400D02*
X010780Y012920D01*
X010780Y011400D02*
X008220Y008840D01*
X008170Y008820D01*
X008060Y008280D02*
X007580Y008760D01*
X007580Y012920D01*
X006300Y014040D02*
X006300Y007000D01*
X010540Y002760D01*
X010553Y002760D01*
X008584Y002760D02*
X008540Y002760D01*
X005900Y005400D01*
X008060Y007160D02*
X008060Y008280D01*
X008060Y007160D02*
X012460Y002760D01*
X012521Y002760D01*
X013020Y002760D02*
X013020Y002200D01*
X012460Y001640D01*
X000620Y001640D01*
X000620Y014760D01*
X001100Y015240D01*
X001100Y015260D01*
X001100Y015320D01*
X002060Y015320D01*
X002100Y015260D01*
X002060Y014280D02*
X001100Y014280D01*
X001100Y014260D01*
X001100Y013320D02*
X001100Y013260D01*
X001100Y013320D02*
X001660Y013320D01*
X001660Y009000D01*
X004340Y008260D02*
X004380Y008280D01*
X005500Y009400D01*
X005500Y015000D01*
X002100Y014260D02*
X002060Y014280D01*
X002060Y013320D02*
X001660Y013320D01*
X002060Y013320D02*
X002100Y013260D01*
X002100Y016260D02*
X002060Y016280D01*
X001100Y016280D01*
X001100Y016260D01*
X001100Y017260D02*
X001100Y017320D01*
X002060Y017320D01*
X002100Y017260D01*
X002100Y018260D02*
X002060Y018280D01*
X001100Y018280D01*
X001100Y018260D01*
X001100Y019260D02*
X001100Y019320D01*
X002060Y019320D01*
X002100Y019260D01*
X010900Y016320D02*
X010940Y016360D01*
X010940Y022440D01*
X011260Y022760D01*
X013580Y022760D01*
X013580Y022280D01*
X013600Y022260D01*
X014300Y022200D02*
X014620Y022200D01*
X014690Y022260D01*
X014300Y022200D02*
X012860Y020760D01*
X012860Y017240D01*
X011980Y016360D01*
X011980Y016320D01*
X011580Y015880D02*
X011500Y015960D01*
X011500Y022200D01*
X011430Y022260D01*
X012510Y022260D02*
X012540Y022200D01*
X012540Y017560D01*
X012140Y017160D01*
X013060Y016320D02*
X013100Y016360D01*
X013100Y019560D01*
X015740Y022200D01*
X015770Y022260D01*
X016460Y022200D02*
X016860Y022200D01*
X016860Y022260D01*
X016460Y022200D02*
X014220Y019960D01*
X014220Y016440D01*
X014140Y016360D01*
X014140Y016320D01*
X013500Y015320D02*
X013500Y019480D01*
X014620Y019480D02*
X014620Y015240D01*
X014680Y015200D01*
X015660Y015320D02*
X015660Y019480D01*
X015260Y020360D02*
X015260Y016360D01*
X015220Y016320D01*
X015660Y015320D02*
X015740Y015240D01*
X015760Y015200D01*
X013600Y015200D02*
X013580Y015240D01*
X013500Y015320D01*
X013020Y002760D02*
X014679Y002760D01*
X026100Y015760D02*
X026060Y015800D01*
D15*
X023980Y014120D03*
X025500Y012280D03*
X023830Y009400D03*
X021900Y009400D03*
X019660Y013400D03*
X020060Y013880D03*
X018220Y014200D03*
X017420Y015000D03*
X016370Y014600D03*
X015180Y012120D03*
X014140Y012120D03*
X014220Y010200D03*
X013010Y009400D03*
X011510Y007240D03*
X016460Y011240D03*
X011580Y015880D03*
X012140Y017160D03*
X013500Y019480D03*
X014620Y019480D03*
X015660Y019480D03*
X015260Y020360D03*
X016940Y018360D03*
X017420Y019560D03*
X018220Y017560D03*
X010780Y012920D03*
X007580Y012920D03*
X006300Y014040D03*
X005900Y014920D03*
X008060Y016840D03*
X009340Y017960D03*
X001660Y009000D03*
M02*
