%
M48
M72
T01C0.0240
T02C0.0400
T03C0.0470
T04C0.1300
%
T01
X1660Y9000
X6300Y14040
X5900Y14920
X7580Y12920
X10780Y12920
X11580Y15880
X12140Y17160
X13500Y19480
X14620Y19480
X15660Y19480
X15260Y20360
X16940Y18360
X17420Y19560
X18220Y17560
X17420Y15000
X18220Y14200
X19660Y13400
X20060Y13880
X16370Y14600
X15180Y12120
X14140Y12120
X14220Y10200
X13010Y9400
X11510Y7240
X16460Y11240
X21900Y9400
X23830Y9400
X25500Y12280
X23980Y14120
X9340Y17960
X8060Y16840
T02
X9820Y16320
X10900Y16320
X11980Y16320
X13060Y16320
X14140Y16320
X15220Y16320
X16300Y16320
X17380Y16320
X16840Y15200
X15760Y15200
X14680Y15200
X13600Y15200
X12520Y15200
X11440Y15200
X10360Y15200
X10340Y8820
X9250Y8820
X8170Y8820
X7080Y8820
X7620Y7700
X8710Y7700
X9800Y7700
X10880Y7700
X11970Y7700
X13060Y7700
X14140Y7700
X15230Y7700
X16320Y7700
X17400Y7700
X18490Y7700
X19580Y7700
X20120Y8820
X19030Y8820
X17950Y8820
X16860Y8820
X15770Y8820
X14690Y8820
X13600Y8820
X12510Y8820
X11430Y8820
X2100Y10260
X2100Y11260
X2100Y12260
X1100Y12260
X1100Y11260
X1100Y10260
X1100Y13260
X1100Y14260
X1100Y15260
X2100Y15260
X2100Y14260
X2100Y13260
X2100Y16260
X2100Y17260
X2100Y18260
X1100Y18260
X1100Y17260
X1100Y16260
X1100Y19260
X1100Y20260
X2100Y20260
X2100Y19260
X2100Y21260
X1100Y21260
X7080Y22260
X7620Y23260
X8170Y22260
X8710Y23260
X9250Y22260
X9800Y23260
X10340Y22260
X10880Y23260
X11430Y22260
X11970Y23260
X12510Y22260
X13060Y23260
X13600Y22260
X14140Y23260
X14690Y22260
X15230Y23260
X15770Y22260
X16320Y23260
X16860Y22260
X17400Y23260
X17950Y22260
X18490Y23260
X19030Y22260
X19580Y23260
X20120Y22260
X25100Y21760
X25100Y20760
X25100Y19760
X25100Y18760
X25100Y17760
X25100Y16760
X25100Y15760
X25100Y14760
X25100Y13760
X25100Y12760
X25100Y11760
X25100Y10760
X25100Y9760
X26100Y9760
X26100Y10760
X26100Y11760
X26100Y12760
X26100Y13760
X26100Y14760
X26100Y15760
X26100Y16760
X26100Y17760
X26100Y18760
X26100Y19760
X26100Y20760
X26100Y21760
X26100Y22760
X25100Y22760
T03
X2679Y2760
X4647Y2760
X6616Y2760
X8584Y2760
X10553Y2760
X12521Y2760
X14679Y2760
X16647Y2760
X18616Y2760
X20584Y2760
X22553Y2760
X24521Y2760
T04
X22860Y8260
X20160Y15760
X22860Y22760
X7040Y15760
X4340Y22760
X4340Y8260
M30
