G75*
G70*
%OFA0B0*%
%FSLAX24Y24*%
%IPPOS*%
%LPD*%
%AMOC8*
5,1,8,0,0,1.08239X$1,22.5*
%
%ADD10C,0.0060*%
%ADD11C,0.0040*%
%ADD12C,0.0050*%
%ADD13R,1.6000X0.0300*%
%ADD14R,2.0900X0.0200*%
%ADD15R,0.0320X0.2850*%
%ADD16R,0.0320X0.1850*%
D10*
X001691Y001110D02*
X001691Y002050D01*
X002321Y002050D01*
X001691Y002050D02*
X001691Y004730D01*
X007601Y004730D01*
X013501Y004730D01*
X013501Y002050D01*
X012871Y002050D01*
X013501Y002050D02*
X013501Y001110D01*
X001691Y001110D01*
X003021Y002050D02*
X004291Y002050D01*
X004991Y002050D02*
X006261Y002050D01*
X006961Y002050D02*
X007601Y002050D01*
X008231Y002050D01*
X007601Y002050D02*
X007601Y004730D01*
X008250Y005290D02*
X008250Y005931D01*
X008570Y005610D01*
X008143Y005610D01*
X006820Y005397D02*
X006713Y005290D01*
X006500Y005290D01*
X006393Y005397D01*
X006393Y005504D01*
X006500Y005610D01*
X006606Y005610D01*
X006500Y005610D02*
X006393Y005717D01*
X006393Y005824D01*
X006500Y005931D01*
X006713Y005931D01*
X006820Y005824D01*
X006411Y004130D02*
X006413Y004158D01*
X006419Y004185D01*
X006428Y004211D01*
X006441Y004236D01*
X006458Y004259D01*
X006477Y004279D01*
X006499Y004296D01*
X006523Y004310D01*
X006549Y004320D01*
X006576Y004327D01*
X006604Y004330D01*
X006632Y004329D01*
X006659Y004324D01*
X006686Y004315D01*
X006711Y004303D01*
X006734Y004288D01*
X006755Y004269D01*
X006773Y004248D01*
X006788Y004224D01*
X006799Y004198D01*
X006807Y004172D01*
X006811Y004144D01*
X006811Y004116D01*
X006807Y004088D01*
X006799Y004062D01*
X006788Y004036D01*
X006773Y004012D01*
X006755Y003991D01*
X006734Y003972D01*
X006711Y003957D01*
X006686Y003945D01*
X006659Y003936D01*
X006632Y003931D01*
X006604Y003930D01*
X006576Y003933D01*
X006549Y003940D01*
X006523Y003950D01*
X006499Y003964D01*
X006477Y003981D01*
X006458Y004001D01*
X006441Y004024D01*
X006428Y004049D01*
X006419Y004075D01*
X006413Y004102D01*
X006411Y004130D01*
X005070Y005290D02*
X004643Y005717D01*
X004643Y005824D01*
X004750Y005931D01*
X004963Y005931D01*
X005070Y005824D01*
X005070Y005290D02*
X004643Y005290D01*
X004451Y004130D02*
X004453Y004158D01*
X004459Y004185D01*
X004468Y004211D01*
X004481Y004236D01*
X004498Y004259D01*
X004517Y004279D01*
X004539Y004296D01*
X004563Y004310D01*
X004589Y004320D01*
X004616Y004327D01*
X004644Y004330D01*
X004672Y004329D01*
X004699Y004324D01*
X004726Y004315D01*
X004751Y004303D01*
X004774Y004288D01*
X004795Y004269D01*
X004813Y004248D01*
X004828Y004224D01*
X004839Y004198D01*
X004847Y004172D01*
X004851Y004144D01*
X004851Y004116D01*
X004847Y004088D01*
X004839Y004062D01*
X004828Y004036D01*
X004813Y004012D01*
X004795Y003991D01*
X004774Y003972D01*
X004751Y003957D01*
X004726Y003945D01*
X004699Y003936D01*
X004672Y003931D01*
X004644Y003930D01*
X004616Y003933D01*
X004589Y003940D01*
X004563Y003950D01*
X004539Y003964D01*
X004517Y003981D01*
X004498Y004001D01*
X004481Y004024D01*
X004468Y004049D01*
X004459Y004075D01*
X004453Y004102D01*
X004451Y004130D01*
X003070Y005290D02*
X002643Y005290D01*
X002856Y005290D02*
X002856Y005931D01*
X003070Y005717D01*
X002481Y004130D02*
X002483Y004158D01*
X002489Y004185D01*
X002498Y004211D01*
X002511Y004236D01*
X002528Y004259D01*
X002547Y004279D01*
X002569Y004296D01*
X002593Y004310D01*
X002619Y004320D01*
X002646Y004327D01*
X002674Y004330D01*
X002702Y004329D01*
X002729Y004324D01*
X002756Y004315D01*
X002781Y004303D01*
X002804Y004288D01*
X002825Y004269D01*
X002843Y004248D01*
X002858Y004224D01*
X002869Y004198D01*
X002877Y004172D01*
X002881Y004144D01*
X002881Y004116D01*
X002877Y004088D01*
X002869Y004062D01*
X002858Y004036D01*
X002843Y004012D01*
X002825Y003991D01*
X002804Y003972D01*
X002781Y003957D01*
X002756Y003945D01*
X002729Y003936D01*
X002702Y003931D01*
X002674Y003930D01*
X002646Y003933D01*
X002619Y003940D01*
X002593Y003950D01*
X002569Y003964D01*
X002547Y003981D01*
X002528Y004001D01*
X002511Y004024D01*
X002498Y004049D01*
X002489Y004075D01*
X002483Y004102D01*
X002481Y004130D01*
X002350Y009760D02*
X000850Y009760D01*
X000600Y010010D01*
X000600Y010510D01*
X000850Y010760D01*
X002350Y010760D01*
X002600Y011010D01*
X002600Y011510D01*
X002350Y011760D01*
X000850Y011760D01*
X000600Y012010D01*
X000600Y012510D01*
X000850Y012760D01*
X002350Y012760D01*
X002600Y013010D01*
X002600Y013510D01*
X002350Y013760D01*
X000850Y013760D01*
X000600Y014010D01*
X000600Y014510D01*
X000850Y014760D01*
X002350Y014760D01*
X002600Y015010D01*
X002600Y015510D01*
X002350Y015760D01*
X000850Y015760D01*
X000600Y016010D01*
X000600Y016510D01*
X000850Y016760D01*
X002350Y016760D01*
X002600Y017010D01*
X002600Y017510D01*
X002350Y017760D01*
X000850Y017760D01*
X000600Y017510D01*
X000600Y017010D01*
X000850Y016760D01*
X000850Y015760D02*
X000600Y015510D01*
X000600Y015010D01*
X000850Y014760D01*
X000850Y013760D02*
X000600Y013510D01*
X000600Y013010D01*
X000850Y012760D01*
X000850Y011760D02*
X000600Y011510D01*
X000600Y011010D01*
X000850Y010760D01*
X002350Y010760D02*
X002600Y010510D01*
X002600Y010010D01*
X002350Y009760D01*
X002350Y011760D02*
X002600Y012010D01*
X002600Y012510D01*
X002350Y012760D01*
X002350Y013760D02*
X002600Y014010D01*
X002600Y014510D01*
X002350Y014760D01*
X002350Y015760D02*
X002600Y016010D01*
X002600Y016510D01*
X002350Y016760D01*
X002350Y017760D02*
X002600Y018010D01*
X002600Y018510D01*
X002350Y018760D01*
X000850Y018760D01*
X000600Y018510D01*
X000600Y018010D01*
X000850Y017760D01*
X000850Y018760D02*
X000600Y019010D01*
X000600Y019510D01*
X000850Y019760D01*
X002350Y019760D01*
X002600Y020010D01*
X002600Y020510D01*
X002350Y020760D01*
X002600Y021010D01*
X002600Y021510D01*
X002350Y021760D01*
X000850Y021760D01*
X000600Y021510D01*
X000600Y021010D01*
X000850Y020760D01*
X002350Y020760D01*
X003150Y021710D02*
X003150Y025710D01*
X003150Y025760D01*
X005150Y025760D01*
X005500Y025760D01*
X005500Y021710D01*
X005300Y021510D01*
X003350Y021510D01*
X003150Y021710D01*
X002071Y022529D02*
X001964Y022423D01*
X001857Y022423D01*
X001750Y022529D01*
X001750Y022743D01*
X001644Y022850D01*
X001537Y022850D01*
X001430Y022743D01*
X001430Y022529D01*
X001537Y022423D01*
X001644Y022423D01*
X001750Y022529D01*
X001750Y022743D02*
X001857Y022850D01*
X001964Y022850D01*
X002071Y022743D01*
X002071Y022529D01*
X001750Y023067D02*
X001750Y023494D01*
X001857Y023712D02*
X001750Y023819D01*
X001750Y024139D01*
X001537Y024139D02*
X001964Y024139D01*
X002071Y024032D01*
X002071Y023819D01*
X001964Y023712D01*
X001857Y023712D01*
X001537Y023712D02*
X001430Y023819D01*
X001430Y024032D01*
X001537Y024139D01*
X001750Y024356D02*
X001750Y024783D01*
X001857Y025001D02*
X002071Y025214D01*
X001430Y025214D01*
X001430Y025001D02*
X001430Y025428D01*
X001430Y025645D02*
X001857Y026072D01*
X001964Y026072D01*
X002071Y025966D01*
X002071Y025752D01*
X001964Y025645D01*
X001430Y025645D02*
X001430Y026072D01*
X003150Y025760D02*
X003150Y026960D01*
X003150Y027160D01*
X004150Y027160D01*
X005150Y027160D01*
X005150Y026960D01*
X005200Y026960D01*
X005200Y026010D01*
X005202Y025980D01*
X005207Y025950D01*
X005216Y025921D01*
X005229Y025894D01*
X005244Y025868D01*
X005263Y025844D01*
X005284Y025823D01*
X005308Y025804D01*
X005334Y025789D01*
X005361Y025776D01*
X005390Y025767D01*
X005420Y025762D01*
X005450Y025760D01*
X005500Y025760D02*
X005600Y025760D01*
X005600Y025460D01*
X021600Y025460D01*
X021600Y025760D01*
X005600Y025760D01*
X005150Y027160D02*
X022050Y027160D01*
X022050Y026960D01*
X022000Y026960D01*
X022000Y026010D01*
X021998Y025980D01*
X021993Y025950D01*
X021984Y025921D01*
X021971Y025894D01*
X021956Y025868D01*
X021937Y025844D01*
X021916Y025823D01*
X021892Y025804D01*
X021866Y025789D01*
X021839Y025776D01*
X021810Y025767D01*
X021780Y025762D01*
X021750Y025760D01*
X021700Y025760D02*
X021700Y021710D01*
X021900Y021510D01*
X023800Y021510D01*
X024050Y021760D01*
X024050Y025710D01*
X024050Y025760D01*
X024050Y026960D01*
X024050Y027160D01*
X023050Y027160D01*
X022050Y027160D01*
X021400Y027360D02*
X021370Y027362D01*
X021340Y027367D01*
X021311Y027376D01*
X021284Y027389D01*
X021258Y027404D01*
X021234Y027423D01*
X021213Y027444D01*
X021194Y027468D01*
X021179Y027494D01*
X021166Y027521D01*
X021157Y027550D01*
X021152Y027580D01*
X021150Y027610D01*
X021150Y029610D01*
X021148Y029636D01*
X021143Y029662D01*
X021135Y029687D01*
X021123Y029710D01*
X021109Y029732D01*
X021091Y029751D01*
X021072Y029769D01*
X021050Y029783D01*
X021027Y029795D01*
X021002Y029803D01*
X020976Y029808D01*
X020950Y029810D01*
X020850Y029810D01*
X006350Y029810D01*
X006250Y029810D01*
X006224Y029808D01*
X006198Y029803D01*
X006173Y029795D01*
X006150Y029783D01*
X006128Y029769D01*
X006109Y029751D01*
X006091Y029732D01*
X006077Y029710D01*
X006065Y029687D01*
X006057Y029662D01*
X006052Y029636D01*
X006050Y029610D01*
X006050Y027610D01*
X006048Y027580D01*
X006043Y027550D01*
X006034Y027521D01*
X006021Y027494D01*
X006006Y027468D01*
X005987Y027444D01*
X005966Y027423D01*
X005942Y027404D01*
X005916Y027389D01*
X005889Y027376D01*
X005860Y027367D01*
X005830Y027362D01*
X005800Y027360D01*
X006200Y027360D02*
X003150Y027360D01*
X003150Y027160D01*
X006200Y027360D02*
X021000Y027360D01*
X024050Y027360D01*
X024050Y027160D01*
X024050Y025760D02*
X022050Y025760D01*
X021700Y025760D01*
X021600Y025760D01*
X022210Y022760D02*
X022212Y022810D01*
X022218Y022860D01*
X022228Y022910D01*
X022241Y022958D01*
X022258Y023006D01*
X022279Y023052D01*
X022303Y023096D01*
X022331Y023138D01*
X022362Y023178D01*
X022396Y023215D01*
X022433Y023250D01*
X022472Y023281D01*
X022513Y023310D01*
X022557Y023335D01*
X022603Y023357D01*
X022650Y023375D01*
X022698Y023389D01*
X022747Y023400D01*
X022797Y023407D01*
X022847Y023410D01*
X022898Y023409D01*
X022948Y023404D01*
X022998Y023395D01*
X023046Y023383D01*
X023094Y023366D01*
X023140Y023346D01*
X023185Y023323D01*
X023228Y023296D01*
X023268Y023266D01*
X023306Y023233D01*
X023341Y023197D01*
X023374Y023158D01*
X023403Y023117D01*
X023429Y023074D01*
X023452Y023029D01*
X023471Y022982D01*
X023486Y022934D01*
X023498Y022885D01*
X023506Y022835D01*
X023510Y022785D01*
X023510Y022735D01*
X023506Y022685D01*
X023498Y022635D01*
X023486Y022586D01*
X023471Y022538D01*
X023452Y022491D01*
X023429Y022446D01*
X023403Y022403D01*
X023374Y022362D01*
X023341Y022323D01*
X023306Y022287D01*
X023268Y022254D01*
X023228Y022224D01*
X023185Y022197D01*
X023140Y022174D01*
X023094Y022154D01*
X023046Y022137D01*
X022998Y022125D01*
X022948Y022116D01*
X022898Y022111D01*
X022847Y022110D01*
X022797Y022113D01*
X022747Y022120D01*
X022698Y022131D01*
X022650Y022145D01*
X022603Y022163D01*
X022557Y022185D01*
X022513Y022210D01*
X022472Y022239D01*
X022433Y022270D01*
X022396Y022305D01*
X022362Y022342D01*
X022331Y022382D01*
X022303Y022424D01*
X022279Y022468D01*
X022258Y022514D01*
X022241Y022562D01*
X022228Y022610D01*
X022218Y022660D01*
X022212Y022710D01*
X022210Y022760D01*
X024600Y022510D02*
X024850Y022260D01*
X026350Y022260D01*
X026600Y022010D01*
X026600Y021510D01*
X026350Y021260D01*
X024850Y021260D01*
X024600Y021010D01*
X024600Y020510D01*
X024850Y020260D01*
X026350Y020260D01*
X026600Y020010D01*
X026600Y019510D01*
X026350Y019260D01*
X024850Y019260D01*
X024600Y019010D01*
X024600Y018510D01*
X024850Y018260D01*
X026350Y018260D01*
X026600Y018010D01*
X026600Y017510D01*
X026350Y017260D01*
X024850Y017260D01*
X024600Y017010D01*
X024600Y016510D01*
X024850Y016260D01*
X026350Y016260D01*
X026600Y016510D01*
X026600Y017010D01*
X026350Y017260D01*
X026350Y016260D02*
X026600Y016010D01*
X026600Y015510D01*
X026350Y015260D01*
X024850Y015260D01*
X024600Y015010D01*
X024600Y014510D01*
X024850Y014260D01*
X026350Y014260D01*
X026600Y014510D01*
X026600Y015010D01*
X026350Y015260D01*
X026350Y014260D02*
X026600Y014010D01*
X026600Y013510D01*
X026350Y013260D01*
X024850Y013260D01*
X024600Y013010D01*
X024600Y012510D01*
X024850Y012260D01*
X026350Y012260D01*
X026600Y012510D01*
X026600Y013010D01*
X026350Y013260D01*
X026350Y012260D02*
X026600Y012010D01*
X026600Y011510D01*
X026350Y011260D01*
X024850Y011260D01*
X024600Y011010D01*
X024600Y010510D01*
X024850Y010260D01*
X024600Y010010D01*
X024600Y009510D01*
X024850Y009260D01*
X026350Y009260D01*
X026600Y009510D01*
X026600Y010010D01*
X026350Y010260D01*
X024850Y010260D01*
X024850Y011260D02*
X024600Y011510D01*
X024600Y012010D01*
X024850Y012260D01*
X024850Y013260D02*
X024600Y013510D01*
X024600Y014010D01*
X024850Y014260D01*
X024850Y015260D02*
X024600Y015510D01*
X024600Y016010D01*
X024850Y016260D01*
X024850Y017260D02*
X024600Y017510D01*
X024600Y018010D01*
X024850Y018260D01*
X024850Y019260D02*
X024600Y019510D01*
X024600Y020010D01*
X024850Y020260D01*
X024850Y021260D02*
X024600Y021510D01*
X024600Y022010D01*
X024850Y022260D01*
X024600Y022510D02*
X024600Y023010D01*
X024850Y023260D01*
X026350Y023260D01*
X026600Y023010D01*
X026600Y022510D01*
X026350Y022260D01*
X026350Y021260D02*
X026600Y021010D01*
X026600Y020510D01*
X026350Y020260D01*
X026350Y019260D02*
X026600Y019010D01*
X026600Y018510D01*
X026350Y018260D01*
X026350Y011260D02*
X026600Y011010D01*
X026600Y010510D01*
X026350Y010260D01*
X024856Y005931D02*
X024856Y005290D01*
X024643Y005290D02*
X025070Y005290D01*
X025070Y005717D02*
X024856Y005931D01*
X024425Y005824D02*
X024319Y005931D01*
X024105Y005931D01*
X023998Y005824D01*
X023998Y005717D01*
X024425Y005290D01*
X023998Y005290D01*
X023070Y005290D02*
X022643Y005290D01*
X022856Y005290D02*
X022856Y005931D01*
X023070Y005717D01*
X022425Y005717D02*
X022212Y005931D01*
X022212Y005290D01*
X022425Y005290D02*
X021998Y005290D01*
X021070Y005290D02*
X020643Y005290D01*
X020856Y005290D02*
X020856Y005931D01*
X021070Y005717D01*
X020425Y005824D02*
X020425Y005397D01*
X019998Y005824D01*
X019998Y005397D01*
X020105Y005290D01*
X020319Y005290D01*
X020425Y005397D01*
X020425Y005824D02*
X020319Y005931D01*
X020105Y005931D01*
X019998Y005824D01*
X019601Y004730D02*
X025501Y004730D01*
X025501Y002050D01*
X024871Y002050D01*
X024171Y002050D02*
X022901Y002050D01*
X022201Y002050D02*
X020931Y002050D01*
X020231Y002050D02*
X019601Y002050D01*
X018961Y002050D01*
X019601Y002050D02*
X019601Y004730D01*
X013691Y004730D01*
X013691Y002050D01*
X014321Y002050D01*
X013691Y002050D02*
X013691Y001110D01*
X025501Y001110D01*
X025501Y002050D01*
X024321Y004130D02*
X024323Y004158D01*
X024329Y004185D01*
X024338Y004211D01*
X024351Y004236D01*
X024368Y004259D01*
X024387Y004279D01*
X024409Y004296D01*
X024433Y004310D01*
X024459Y004320D01*
X024486Y004327D01*
X024514Y004330D01*
X024542Y004329D01*
X024569Y004324D01*
X024596Y004315D01*
X024621Y004303D01*
X024644Y004288D01*
X024665Y004269D01*
X024683Y004248D01*
X024698Y004224D01*
X024709Y004198D01*
X024717Y004172D01*
X024721Y004144D01*
X024721Y004116D01*
X024717Y004088D01*
X024709Y004062D01*
X024698Y004036D01*
X024683Y004012D01*
X024665Y003991D01*
X024644Y003972D01*
X024621Y003957D01*
X024596Y003945D01*
X024569Y003936D01*
X024542Y003931D01*
X024514Y003930D01*
X024486Y003933D01*
X024459Y003940D01*
X024433Y003950D01*
X024409Y003964D01*
X024387Y003981D01*
X024368Y004001D01*
X024351Y004024D01*
X024338Y004049D01*
X024329Y004075D01*
X024323Y004102D01*
X024321Y004130D01*
X022351Y004130D02*
X022353Y004158D01*
X022359Y004185D01*
X022368Y004211D01*
X022381Y004236D01*
X022398Y004259D01*
X022417Y004279D01*
X022439Y004296D01*
X022463Y004310D01*
X022489Y004320D01*
X022516Y004327D01*
X022544Y004330D01*
X022572Y004329D01*
X022599Y004324D01*
X022626Y004315D01*
X022651Y004303D01*
X022674Y004288D01*
X022695Y004269D01*
X022713Y004248D01*
X022728Y004224D01*
X022739Y004198D01*
X022747Y004172D01*
X022751Y004144D01*
X022751Y004116D01*
X022747Y004088D01*
X022739Y004062D01*
X022728Y004036D01*
X022713Y004012D01*
X022695Y003991D01*
X022674Y003972D01*
X022651Y003957D01*
X022626Y003945D01*
X022599Y003936D01*
X022572Y003931D01*
X022544Y003930D01*
X022516Y003933D01*
X022489Y003940D01*
X022463Y003950D01*
X022439Y003964D01*
X022417Y003981D01*
X022398Y004001D01*
X022381Y004024D01*
X022368Y004049D01*
X022359Y004075D01*
X022353Y004102D01*
X022351Y004130D01*
X020381Y004130D02*
X020383Y004158D01*
X020389Y004185D01*
X020398Y004211D01*
X020411Y004236D01*
X020428Y004259D01*
X020447Y004279D01*
X020469Y004296D01*
X020493Y004310D01*
X020519Y004320D01*
X020546Y004327D01*
X020574Y004330D01*
X020602Y004329D01*
X020629Y004324D01*
X020656Y004315D01*
X020681Y004303D01*
X020704Y004288D01*
X020725Y004269D01*
X020743Y004248D01*
X020758Y004224D01*
X020769Y004198D01*
X020777Y004172D01*
X020781Y004144D01*
X020781Y004116D01*
X020777Y004088D01*
X020769Y004062D01*
X020758Y004036D01*
X020743Y004012D01*
X020725Y003991D01*
X020704Y003972D01*
X020681Y003957D01*
X020656Y003945D01*
X020629Y003936D01*
X020602Y003931D01*
X020574Y003930D01*
X020546Y003933D01*
X020519Y003940D01*
X020493Y003950D01*
X020469Y003964D01*
X020447Y003981D01*
X020428Y004001D01*
X020411Y004024D01*
X020398Y004049D01*
X020389Y004075D01*
X020383Y004102D01*
X020381Y004130D01*
X018820Y005397D02*
X018713Y005290D01*
X018500Y005290D01*
X018393Y005397D01*
X018393Y005824D01*
X018500Y005931D01*
X018713Y005931D01*
X018820Y005824D01*
X018820Y005717D01*
X018713Y005610D01*
X018393Y005610D01*
X018411Y004130D02*
X018413Y004158D01*
X018419Y004185D01*
X018428Y004211D01*
X018441Y004236D01*
X018458Y004259D01*
X018477Y004279D01*
X018499Y004296D01*
X018523Y004310D01*
X018549Y004320D01*
X018576Y004327D01*
X018604Y004330D01*
X018632Y004329D01*
X018659Y004324D01*
X018686Y004315D01*
X018711Y004303D01*
X018734Y004288D01*
X018755Y004269D01*
X018773Y004248D01*
X018788Y004224D01*
X018799Y004198D01*
X018807Y004172D01*
X018811Y004144D01*
X018811Y004116D01*
X018807Y004088D01*
X018799Y004062D01*
X018788Y004036D01*
X018773Y004012D01*
X018755Y003991D01*
X018734Y003972D01*
X018711Y003957D01*
X018686Y003945D01*
X018659Y003936D01*
X018632Y003931D01*
X018604Y003930D01*
X018576Y003933D01*
X018549Y003940D01*
X018523Y003950D01*
X018499Y003964D01*
X018477Y003981D01*
X018458Y004001D01*
X018441Y004024D01*
X018428Y004049D01*
X018419Y004075D01*
X018413Y004102D01*
X018411Y004130D01*
X016820Y005397D02*
X016820Y005504D01*
X016713Y005610D01*
X016500Y005610D01*
X016393Y005504D01*
X016393Y005397D01*
X016500Y005290D01*
X016713Y005290D01*
X016820Y005397D01*
X016713Y005610D02*
X016820Y005717D01*
X016820Y005824D01*
X016713Y005931D01*
X016500Y005931D01*
X016393Y005824D01*
X016393Y005717D01*
X016500Y005610D01*
X016451Y004130D02*
X016453Y004158D01*
X016459Y004185D01*
X016468Y004211D01*
X016481Y004236D01*
X016498Y004259D01*
X016517Y004279D01*
X016539Y004296D01*
X016563Y004310D01*
X016589Y004320D01*
X016616Y004327D01*
X016644Y004330D01*
X016672Y004329D01*
X016699Y004324D01*
X016726Y004315D01*
X016751Y004303D01*
X016774Y004288D01*
X016795Y004269D01*
X016813Y004248D01*
X016828Y004224D01*
X016839Y004198D01*
X016847Y004172D01*
X016851Y004144D01*
X016851Y004116D01*
X016847Y004088D01*
X016839Y004062D01*
X016828Y004036D01*
X016813Y004012D01*
X016795Y003991D01*
X016774Y003972D01*
X016751Y003957D01*
X016726Y003945D01*
X016699Y003936D01*
X016672Y003931D01*
X016644Y003930D01*
X016616Y003933D01*
X016589Y003940D01*
X016563Y003950D01*
X016539Y003964D01*
X016517Y003981D01*
X016498Y004001D01*
X016481Y004024D01*
X016468Y004049D01*
X016459Y004075D01*
X016453Y004102D01*
X016451Y004130D01*
X014481Y004130D02*
X014483Y004158D01*
X014489Y004185D01*
X014498Y004211D01*
X014511Y004236D01*
X014528Y004259D01*
X014547Y004279D01*
X014569Y004296D01*
X014593Y004310D01*
X014619Y004320D01*
X014646Y004327D01*
X014674Y004330D01*
X014702Y004329D01*
X014729Y004324D01*
X014756Y004315D01*
X014781Y004303D01*
X014804Y004288D01*
X014825Y004269D01*
X014843Y004248D01*
X014858Y004224D01*
X014869Y004198D01*
X014877Y004172D01*
X014881Y004144D01*
X014881Y004116D01*
X014877Y004088D01*
X014869Y004062D01*
X014858Y004036D01*
X014843Y004012D01*
X014825Y003991D01*
X014804Y003972D01*
X014781Y003957D01*
X014756Y003945D01*
X014729Y003936D01*
X014702Y003931D01*
X014674Y003930D01*
X014646Y003933D01*
X014619Y003940D01*
X014593Y003950D01*
X014569Y003964D01*
X014547Y003981D01*
X014528Y004001D01*
X014511Y004024D01*
X014498Y004049D01*
X014489Y004075D01*
X014483Y004102D01*
X014481Y004130D01*
X014570Y005290D02*
X014570Y005397D01*
X014143Y005824D01*
X014143Y005931D01*
X014570Y005931D01*
X012570Y005610D02*
X012250Y005610D01*
X012143Y005504D01*
X012143Y005397D01*
X012250Y005290D01*
X012463Y005290D01*
X012570Y005397D01*
X012570Y005610D01*
X012356Y005824D01*
X012143Y005931D01*
X010570Y005931D02*
X010570Y005610D01*
X010356Y005717D01*
X010250Y005717D01*
X010143Y005610D01*
X010143Y005397D01*
X010250Y005290D01*
X010463Y005290D01*
X010570Y005397D01*
X010570Y005931D02*
X010143Y005931D01*
X010351Y004130D02*
X010353Y004158D01*
X010359Y004185D01*
X010368Y004211D01*
X010381Y004236D01*
X010398Y004259D01*
X010417Y004279D01*
X010439Y004296D01*
X010463Y004310D01*
X010489Y004320D01*
X010516Y004327D01*
X010544Y004330D01*
X010572Y004329D01*
X010599Y004324D01*
X010626Y004315D01*
X010651Y004303D01*
X010674Y004288D01*
X010695Y004269D01*
X010713Y004248D01*
X010728Y004224D01*
X010739Y004198D01*
X010747Y004172D01*
X010751Y004144D01*
X010751Y004116D01*
X010747Y004088D01*
X010739Y004062D01*
X010728Y004036D01*
X010713Y004012D01*
X010695Y003991D01*
X010674Y003972D01*
X010651Y003957D01*
X010626Y003945D01*
X010599Y003936D01*
X010572Y003931D01*
X010544Y003930D01*
X010516Y003933D01*
X010489Y003940D01*
X010463Y003950D01*
X010439Y003964D01*
X010417Y003981D01*
X010398Y004001D01*
X010381Y004024D01*
X010368Y004049D01*
X010359Y004075D01*
X010353Y004102D01*
X010351Y004130D01*
X008381Y004130D02*
X008383Y004158D01*
X008389Y004185D01*
X008398Y004211D01*
X008411Y004236D01*
X008428Y004259D01*
X008447Y004279D01*
X008469Y004296D01*
X008493Y004310D01*
X008519Y004320D01*
X008546Y004327D01*
X008574Y004330D01*
X008602Y004329D01*
X008629Y004324D01*
X008656Y004315D01*
X008681Y004303D01*
X008704Y004288D01*
X008725Y004269D01*
X008743Y004248D01*
X008758Y004224D01*
X008769Y004198D01*
X008777Y004172D01*
X008781Y004144D01*
X008781Y004116D01*
X008777Y004088D01*
X008769Y004062D01*
X008758Y004036D01*
X008743Y004012D01*
X008725Y003991D01*
X008704Y003972D01*
X008681Y003957D01*
X008656Y003945D01*
X008629Y003936D01*
X008602Y003931D01*
X008574Y003930D01*
X008546Y003933D01*
X008519Y003940D01*
X008493Y003950D01*
X008469Y003964D01*
X008447Y003981D01*
X008428Y004001D01*
X008411Y004024D01*
X008398Y004049D01*
X008389Y004075D01*
X008383Y004102D01*
X008381Y004130D01*
X008931Y002050D02*
X010201Y002050D01*
X010901Y002050D02*
X012171Y002050D01*
X012321Y004130D02*
X012323Y004158D01*
X012329Y004185D01*
X012338Y004211D01*
X012351Y004236D01*
X012368Y004259D01*
X012387Y004279D01*
X012409Y004296D01*
X012433Y004310D01*
X012459Y004320D01*
X012486Y004327D01*
X012514Y004330D01*
X012542Y004329D01*
X012569Y004324D01*
X012596Y004315D01*
X012621Y004303D01*
X012644Y004288D01*
X012665Y004269D01*
X012683Y004248D01*
X012698Y004224D01*
X012709Y004198D01*
X012717Y004172D01*
X012721Y004144D01*
X012721Y004116D01*
X012717Y004088D01*
X012709Y004062D01*
X012698Y004036D01*
X012683Y004012D01*
X012665Y003991D01*
X012644Y003972D01*
X012621Y003957D01*
X012596Y003945D01*
X012569Y003936D01*
X012542Y003931D01*
X012514Y003930D01*
X012486Y003933D01*
X012459Y003940D01*
X012433Y003950D01*
X012409Y003964D01*
X012387Y003981D01*
X012368Y004001D01*
X012351Y004024D01*
X012338Y004049D01*
X012329Y004075D01*
X012323Y004102D01*
X012321Y004130D01*
X015021Y002050D02*
X016291Y002050D01*
X016991Y002050D02*
X018261Y002050D01*
X002350Y018760D02*
X002600Y019010D01*
X002600Y019510D01*
X002350Y019760D01*
X000850Y019760D02*
X000600Y020010D01*
X000600Y020510D01*
X000850Y020760D01*
X003690Y022760D02*
X003692Y022810D01*
X003698Y022860D01*
X003708Y022910D01*
X003721Y022958D01*
X003738Y023006D01*
X003759Y023052D01*
X003783Y023096D01*
X003811Y023138D01*
X003842Y023178D01*
X003876Y023215D01*
X003913Y023250D01*
X003952Y023281D01*
X003993Y023310D01*
X004037Y023335D01*
X004083Y023357D01*
X004130Y023375D01*
X004178Y023389D01*
X004227Y023400D01*
X004277Y023407D01*
X004327Y023410D01*
X004378Y023409D01*
X004428Y023404D01*
X004478Y023395D01*
X004526Y023383D01*
X004574Y023366D01*
X004620Y023346D01*
X004665Y023323D01*
X004708Y023296D01*
X004748Y023266D01*
X004786Y023233D01*
X004821Y023197D01*
X004854Y023158D01*
X004883Y023117D01*
X004909Y023074D01*
X004932Y023029D01*
X004951Y022982D01*
X004966Y022934D01*
X004978Y022885D01*
X004986Y022835D01*
X004990Y022785D01*
X004990Y022735D01*
X004986Y022685D01*
X004978Y022635D01*
X004966Y022586D01*
X004951Y022538D01*
X004932Y022491D01*
X004909Y022446D01*
X004883Y022403D01*
X004854Y022362D01*
X004821Y022323D01*
X004786Y022287D01*
X004748Y022254D01*
X004708Y022224D01*
X004665Y022197D01*
X004620Y022174D01*
X004574Y022154D01*
X004526Y022137D01*
X004478Y022125D01*
X004428Y022116D01*
X004378Y022111D01*
X004327Y022110D01*
X004277Y022113D01*
X004227Y022120D01*
X004178Y022131D01*
X004130Y022145D01*
X004083Y022163D01*
X004037Y022185D01*
X003993Y022210D01*
X003952Y022239D01*
X003913Y022270D01*
X003876Y022305D01*
X003842Y022342D01*
X003811Y022382D01*
X003783Y022424D01*
X003759Y022468D01*
X003738Y022514D01*
X003721Y022562D01*
X003708Y022610D01*
X003698Y022660D01*
X003692Y022710D01*
X003690Y022760D01*
X012354Y021217D02*
X012781Y020790D01*
X012998Y020790D02*
X012998Y021217D01*
X012781Y021217D02*
X012354Y020790D01*
X012998Y020790D02*
X013319Y020790D01*
X013425Y020897D01*
X013425Y021217D01*
X013643Y021217D02*
X013643Y020790D01*
X013643Y021110D02*
X014070Y021110D01*
X014070Y021217D02*
X013856Y021431D01*
X013643Y021217D01*
X014070Y021217D02*
X014070Y020790D01*
D11*
X023483Y018914D02*
X023483Y018607D01*
X023560Y018530D01*
X023714Y018530D01*
X023790Y018607D01*
X023483Y018914D01*
X023560Y018990D01*
X023714Y018990D01*
X023790Y018914D01*
X023790Y018607D01*
X023944Y018530D02*
X024251Y018530D01*
X024097Y018530D02*
X024097Y018990D01*
X024251Y018837D01*
X024097Y017990D02*
X024097Y017530D01*
X023944Y017530D02*
X024251Y017530D01*
X024251Y017837D02*
X024097Y017990D01*
X023790Y017837D02*
X023637Y017990D01*
X023637Y017530D01*
X023790Y017530D02*
X023483Y017530D01*
X023560Y016990D02*
X023483Y016914D01*
X023483Y016837D01*
X023790Y016530D01*
X023483Y016530D01*
X023560Y016990D02*
X023714Y016990D01*
X023790Y016914D01*
X023944Y016530D02*
X024251Y016530D01*
X024097Y016530D02*
X024097Y016990D01*
X024251Y016837D01*
X024097Y015990D02*
X024097Y015530D01*
X023944Y015530D02*
X024251Y015530D01*
X024251Y015837D02*
X024097Y015990D01*
X023790Y015914D02*
X023714Y015990D01*
X023560Y015990D01*
X023483Y015914D01*
X023483Y015837D01*
X023560Y015760D01*
X023483Y015683D01*
X023483Y015607D01*
X023560Y015530D01*
X023714Y015530D01*
X023790Y015607D01*
X023637Y015760D02*
X023560Y015760D01*
X023560Y014990D02*
X023790Y014760D01*
X023483Y014760D01*
X023560Y014530D02*
X023560Y014990D01*
X024097Y014990D02*
X024097Y014530D01*
X023944Y014530D02*
X024251Y014530D01*
X024251Y014837D02*
X024097Y014990D01*
X024097Y013990D02*
X024097Y013530D01*
X023944Y013530D02*
X024251Y013530D01*
X024251Y013837D02*
X024097Y013990D01*
X023790Y013990D02*
X023790Y013760D01*
X023637Y013837D01*
X023560Y013837D01*
X023483Y013760D01*
X023483Y013607D01*
X023560Y013530D01*
X023714Y013530D01*
X023790Y013607D01*
X023790Y013990D02*
X023483Y013990D01*
X023483Y012990D02*
X023483Y012914D01*
X023790Y012607D01*
X023790Y012530D01*
X023944Y012530D02*
X024251Y012530D01*
X024097Y012530D02*
X024097Y012990D01*
X024251Y012837D01*
X023790Y012990D02*
X023483Y012990D01*
X023560Y011990D02*
X023483Y011914D01*
X023483Y011837D01*
X023560Y011760D01*
X023714Y011760D01*
X023790Y011837D01*
X023790Y011914D01*
X023714Y011990D01*
X023560Y011990D01*
X023560Y011760D02*
X023483Y011683D01*
X023483Y011607D01*
X023560Y011530D01*
X023714Y011530D01*
X023790Y011607D01*
X023790Y011683D01*
X023714Y011760D01*
X023944Y011530D02*
X024251Y011530D01*
X024097Y011530D02*
X024097Y011990D01*
X024251Y011837D01*
X024097Y010990D02*
X024097Y010530D01*
X023944Y010530D02*
X024251Y010530D01*
X024251Y010837D02*
X024097Y010990D01*
X023790Y010914D02*
X023790Y010837D01*
X023714Y010760D01*
X023483Y010760D01*
X023483Y010607D02*
X023483Y010914D01*
X023560Y010990D01*
X023714Y010990D01*
X023790Y010914D01*
X023790Y010607D02*
X023714Y010530D01*
X023560Y010530D01*
X023483Y010607D01*
X023560Y009990D02*
X023483Y009914D01*
X023483Y009837D01*
X023560Y009760D01*
X023483Y009683D01*
X023483Y009607D01*
X023560Y009530D01*
X023714Y009530D01*
X023790Y009607D01*
X023944Y009530D02*
X024251Y009530D01*
X023944Y009837D01*
X023944Y009914D01*
X024021Y009990D01*
X024174Y009990D01*
X024251Y009914D01*
X023790Y009914D02*
X023714Y009990D01*
X023560Y009990D01*
X023560Y009760D02*
X023637Y009760D01*
X024060Y019530D02*
X023983Y019607D01*
X023983Y019914D01*
X024060Y019990D01*
X024214Y019990D01*
X024290Y019914D01*
X024290Y019837D01*
X024214Y019760D01*
X023983Y019760D01*
X024060Y019530D02*
X024214Y019530D01*
X024290Y019607D01*
X024290Y020530D02*
X024290Y020607D01*
X023983Y020914D01*
X023983Y020990D01*
X024290Y020990D01*
X024214Y021530D02*
X024060Y021530D01*
X023983Y021607D01*
X023983Y021760D01*
X024060Y021837D01*
X024137Y021837D01*
X024290Y021760D01*
X024290Y021990D01*
X023983Y021990D01*
X024290Y021607D02*
X024214Y021530D01*
X024310Y022530D02*
X024310Y022990D01*
X024540Y022760D01*
X024233Y022760D01*
X003751Y012337D02*
X003597Y012490D01*
X003597Y012030D01*
X003444Y012030D02*
X003751Y012030D01*
X003290Y012107D02*
X003290Y012414D01*
X003214Y012490D01*
X003060Y012490D01*
X002983Y012414D01*
X003290Y012107D01*
X003214Y012030D01*
X003060Y012030D01*
X002983Y012107D01*
X002983Y012414D01*
X003060Y013030D02*
X002983Y013107D01*
X002983Y013414D01*
X003060Y013490D01*
X003214Y013490D01*
X003290Y013414D01*
X003290Y013337D01*
X003214Y013260D01*
X002983Y013260D01*
X003060Y013030D02*
X003214Y013030D01*
X003290Y013107D01*
X003214Y014030D02*
X003290Y014107D01*
X003290Y014183D01*
X003214Y014260D01*
X003060Y014260D01*
X002983Y014183D01*
X002983Y014107D01*
X003060Y014030D01*
X003214Y014030D01*
X003214Y014260D02*
X003290Y014337D01*
X003290Y014414D01*
X003214Y014490D01*
X003060Y014490D01*
X002983Y014414D01*
X002983Y014337D01*
X003060Y014260D01*
X003290Y015030D02*
X003290Y015107D01*
X002983Y015414D01*
X002983Y015490D01*
X003290Y015490D01*
X003214Y016030D02*
X003060Y016030D01*
X002983Y016107D01*
X002983Y016183D01*
X003060Y016260D01*
X003290Y016260D01*
X003290Y016107D01*
X003214Y016030D01*
X003290Y016260D02*
X003137Y016414D01*
X002983Y016490D01*
X003060Y017030D02*
X003214Y017030D01*
X003290Y017107D01*
X003290Y017260D02*
X003137Y017337D01*
X003060Y017337D01*
X002983Y017260D01*
X002983Y017107D01*
X003060Y017030D01*
X003290Y017260D02*
X003290Y017490D01*
X002983Y017490D01*
X003060Y018030D02*
X003060Y018490D01*
X003290Y018260D01*
X002983Y018260D01*
X003060Y019030D02*
X003214Y019030D01*
X003290Y019107D01*
X003137Y019260D02*
X003060Y019260D01*
X002983Y019183D01*
X002983Y019107D01*
X003060Y019030D01*
X003060Y019260D02*
X002983Y019337D01*
X002983Y019414D01*
X003060Y019490D01*
X003214Y019490D01*
X003290Y019414D01*
X003290Y020030D02*
X002983Y020030D01*
X002983Y020337D02*
X002983Y020414D01*
X003060Y020490D01*
X003214Y020490D01*
X003290Y020414D01*
X002983Y020337D02*
X003290Y020030D01*
X003346Y020970D02*
X002999Y020970D01*
X003172Y020970D02*
X003172Y021490D01*
X003346Y021317D01*
X003137Y011490D02*
X003137Y011030D01*
X003290Y011030D02*
X002983Y011030D01*
X003290Y011337D02*
X003137Y011490D01*
X003597Y011490D02*
X003597Y011030D01*
X003444Y011030D02*
X003751Y011030D01*
X003751Y011337D02*
X003597Y011490D01*
X003597Y010490D02*
X003597Y010030D01*
X003444Y010030D02*
X003751Y010030D01*
X003751Y010337D02*
X003597Y010490D01*
X003290Y010414D02*
X003214Y010490D01*
X003060Y010490D01*
X002983Y010414D01*
X002983Y010337D01*
X003290Y010030D01*
X002983Y010030D01*
D12*
X005889Y022035D02*
X006040Y022035D01*
X006115Y022110D01*
X006275Y022035D02*
X006575Y022035D01*
X006425Y022035D02*
X006425Y022485D01*
X006575Y022335D01*
X006115Y022410D02*
X006040Y022485D01*
X005889Y022485D01*
X005814Y022410D01*
X005814Y022335D01*
X005889Y022260D01*
X005814Y022185D01*
X005814Y022110D01*
X005889Y022035D01*
X005889Y022260D02*
X005964Y022260D01*
X005889Y023035D02*
X006040Y023035D01*
X006115Y023110D01*
X006115Y023260D02*
X005964Y023335D01*
X005889Y023335D01*
X005814Y023260D01*
X005814Y023110D01*
X005889Y023035D01*
X006115Y023260D02*
X006115Y023485D01*
X005814Y023485D01*
X006275Y023410D02*
X006275Y023335D01*
X006575Y023035D01*
X006275Y023035D01*
X006275Y023410D02*
X006350Y023485D01*
X006500Y023485D01*
X006575Y023410D01*
X003825Y023860D02*
X003750Y023785D01*
X003825Y023860D02*
X003825Y024010D01*
X003750Y024085D01*
X003675Y024085D01*
X003375Y023785D01*
X003375Y024085D01*
X003225Y024245D02*
X003375Y024396D01*
X003375Y024320D01*
X003450Y024320D01*
X003450Y024396D01*
X003375Y024396D01*
X003450Y024552D02*
X003375Y024627D01*
X003375Y024778D01*
X003450Y024853D01*
X003600Y024853D01*
X003675Y024778D01*
X003675Y024702D01*
X003600Y024552D01*
X003825Y024552D01*
X003825Y024853D01*
X003600Y025013D02*
X003600Y025313D01*
X003375Y025238D02*
X003825Y025238D01*
X003600Y025013D01*
X019704Y026210D02*
X019779Y026135D01*
X019929Y026135D01*
X020004Y026210D01*
X020004Y026360D02*
X019854Y026435D01*
X019779Y026435D01*
X019704Y026360D01*
X019704Y026210D01*
X020004Y026360D02*
X020004Y026585D01*
X019704Y026585D01*
X020164Y026510D02*
X020239Y026585D01*
X020390Y026585D01*
X020465Y026510D01*
X020625Y026585D02*
X020925Y026585D01*
X020925Y026135D01*
X020925Y026360D02*
X020775Y026360D01*
X020465Y026135D02*
X020164Y026435D01*
X020164Y026510D01*
X020164Y026135D02*
X020465Y026135D01*
X020589Y023485D02*
X020815Y023260D01*
X020514Y023260D01*
X020589Y023035D02*
X020589Y023485D01*
X021125Y023485D02*
X021125Y023035D01*
X021275Y023035D02*
X020975Y023035D01*
X021275Y023335D02*
X021125Y023485D01*
X020775Y022485D02*
X020775Y022035D01*
X020925Y022035D02*
X020625Y022035D01*
X020925Y022335D02*
X020775Y022485D01*
D13*
X013600Y025610D03*
D14*
X013600Y027260D03*
D15*
X013600Y024035D03*
X014680Y024035D03*
X015770Y024035D03*
X016860Y024035D03*
X017950Y024035D03*
X019030Y024035D03*
X020120Y024035D03*
X012510Y024035D03*
X011430Y024035D03*
X010340Y024035D03*
X009250Y024035D03*
X008170Y024035D03*
X007080Y024035D03*
D16*
X007630Y024535D03*
X008720Y024535D03*
X009800Y024535D03*
X010880Y024535D03*
X011970Y024535D03*
X013060Y024535D03*
X014140Y024535D03*
X015230Y024535D03*
X016320Y024535D03*
X017400Y024535D03*
X018490Y024535D03*
X019580Y024535D03*
M02*
